<svg id="Layer_1" data-name="Layer 1" xmlns="http://www.w3.org/2000/svg" viewBox="0 0 3400 2000"><defs><style>.cls-1{fill:#e3ffd2;}.cls-2{fill:#fff;}</style></defs><title>bg-alur1</title><rect class="cls-1" width="3400" height="2000"/><path class="cls-2" d="M2202.06,1645.53c-35.86-278.67-274-494-562.43-494s-526.56,215.33-562.43,494Z" transform="translate(921.13 354.47)"/><path class="cls-2" d="M2478.87,618.12V145.21a245.19,245.19,0,0,0-64.87-8.68c-135.38,0-245.13,109.75-245.13,245.13S2278.62,626.8,2414,626.8A245.19,245.19,0,0,0,2478.87,618.12Z" transform="translate(921.13 354.47)"/><path class="cls-2" d="M1215.87-170.21A312.06,312.06,0,0,0,1156-354.47H648.72a312,312,0,0,0-59.85,184.26A312.44,312.44,0,0,0,609.51-58.13c45.1,117.79,159.21,201.42,292.86,201.42s247.76-83.63,292.87-201.42A312.65,312.65,0,0,0,1215.87-170.21Z" transform="translate(921.13 354.47)"/><path class="cls-2" d="M46.87,1590.53a164,164,0,0,0-164-164,164,164,0,0,0-164,164,163.69,163.69,0,0,0,9.45,55H37.42A163.69,163.69,0,0,0,46.87,1590.53Z" transform="translate(921.13 354.47)"/><circle class="cls-2" cx="2930" cy="513" r="24"/><circle class="cls-2" cx="3140" cy="1350" r="24"/><circle class="cls-2" cx="1242" cy="1812" r="24"/></svg>