<svg id="Layer_1" data-name="Layer 1" xmlns="http://www.w3.org/2000/svg" xmlns:xlink="http://www.w3.org/1999/xlink" viewBox="0 0 1920 1205.64"><defs><style>.cls-1{opacity:0.06;}.cls-2{fill:#8ea3ae;}.cls-121,.cls-2,.cls-59,.cls-90{opacity:0;}.cls-3{fill:#8da2ad;}.cls-122,.cls-3,.cls-60,.cls-91{opacity:0.04;}.cls-4{fill:#8ca0ab;}.cls-123,.cls-4,.cls-61,.cls-92{opacity:0.08;}.cls-5{fill:#8b9faa;}.cls-124,.cls-5,.cls-62,.cls-93{opacity:0.12;}.cls-6{fill:#8a9ea9;}.cls-125,.cls-6,.cls-63,.cls-94{opacity:0.15;}.cls-7{fill:#899da7;}.cls-126,.cls-64,.cls-7,.cls-95{opacity:0.19;}.cls-8{fill:#889ba6;}.cls-127,.cls-65,.cls-8,.cls-96{opacity:0.23;}.cls-9{fill:#869aa5;}.cls-128,.cls-66,.cls-9,.cls-97{opacity:0.27;}.cls-10{fill:#8599a3;}.cls-10,.cls-129,.cls-67,.cls-98{opacity:0.31;}.cls-11{fill:#8498a2;}.cls-11,.cls-130,.cls-68,.cls-99{opacity:0.35;}.cls-12{fill:#8396a1;}.cls-100,.cls-12,.cls-131,.cls-69{opacity:0.38;}.cls-13{fill:#82959f;}.cls-101,.cls-13,.cls-132,.cls-70{opacity:0.42;}.cls-14{fill:#81949e;}.cls-102,.cls-133,.cls-14,.cls-71{opacity:0.46;}.cls-15{fill:#80939d;}.cls-103,.cls-134,.cls-15,.cls-72{opacity:0.5;}.cls-16{fill:#7f919b;}.cls-104,.cls-135,.cls-16,.cls-73{opacity:0.54;}.cls-17{fill:#7e909a;}.cls-105,.cls-136,.cls-17,.cls-74{opacity:0.58;}.cls-18{fill:#7d8f98;}.cls-106,.cls-137,.cls-18,.cls-75{opacity:0.62;}.cls-19{fill:#7c8d97;}.cls-107,.cls-138,.cls-19,.cls-76{opacity:0.65;}.cls-20{fill:#7b8c96;}.cls-108,.cls-139,.cls-20,.cls-77{opacity:0.69;}.cls-21{fill:#7a8b94;}.cls-109,.cls-140,.cls-21,.cls-78{opacity:0.73;}.cls-22{fill:#788a93;}.cls-110,.cls-141,.cls-22,.cls-79{opacity:0.77;}.cls-23{fill:#778892;}.cls-111,.cls-142,.cls-23,.cls-80{opacity:0.81;}.cls-24{fill:#768790;}.cls-112,.cls-143,.cls-24,.cls-81{opacity:0.85;}.cls-25{fill:#75868f;}.cls-113,.cls-144,.cls-25,.cls-82{opacity:0.88;}.cls-26{fill:#74858e;}.cls-114,.cls-145,.cls-26,.cls-83{opacity:0.92;}.cls-27{fill:#73838c;}.cls-115,.cls-146,.cls-27,.cls-84{opacity:0.96;}.cls-28{fill:#72828b;}.cls-29{fill:#002a21;}.cls-30{fill:#023229;}.cls-31{fill:#155245;}.cls-32{fill:#014354;}.cls-33{fill:#1e7b8f;}.cls-34{fill:#611d55;}.cls-35{fill:#b6470c;}.cls-36,.cls-59{fill:#df5300;}.cls-37{fill:url(#linear-gradient);}.cls-38{fill:#973f75;}.cls-39{fill:#2e2662;}.cls-40{fill:#493e71;}.cls-41{fill:url(#linear-gradient-2);}.cls-42{fill:url(#linear-gradient-3);}.cls-43{fill:url(#linear-gradient-4);}.cls-44{fill:url(#linear-gradient-5);}.cls-45{fill:url(#linear-gradient-6);}.cls-46{fill:url(#linear-gradient-7);}.cls-47{fill:url(#linear-gradient-8);}.cls-48{fill:url(#linear-gradient-9);}.cls-49{fill:#257b69;}.cls-50{fill:#155144;}.cls-51{fill:url(#linear-gradient-10);}.cls-52{fill:url(#linear-gradient-11);}.cls-53{fill:url(#linear-gradient-12);}.cls-54{fill:url(#linear-gradient-13);}.cls-55{fill:url(#linear-gradient-14);}.cls-56{fill:url(#linear-gradient-15);}.cls-57{fill:url(#linear-gradient-16);}.cls-58{opacity:0.58;}.cls-60{fill:#dd5200;}.cls-61{fill:#dc5101;}.cls-62{fill:#da5001;}.cls-63{fill:#d84f02;}.cls-64{fill:#d64e02;}.cls-65{fill:#d54d03;}.cls-66{fill:#d34b03;}.cls-67{fill:#d14a04;}.cls-68{fill:#cf4904;}.cls-69{fill:#ce4805;}.cls-70{fill:#cc4705;}.cls-71{fill:#ca4606;}.cls-72{fill:#c84506;}.cls-73{fill:#c74407;}.cls-74{fill:#c54307;}.cls-75{fill:#c34208;}.cls-76{fill:#c24108;}.cls-77{fill:#c04009;}.cls-78{fill:#be3f09;}.cls-79{fill:#bc3d0a;}.cls-80{fill:#bb3c0a;}.cls-81{fill:#b93b0b;}.cls-82{fill:#b73a0b;}.cls-83{fill:#b5390c;}.cls-84{fill:#b4380c;}.cls-85{fill:#b2370d;}.cls-86{fill:#ed911f;}.cls-87{fill:#fbda00;}.cls-88{fill:url(#linear-gradient-17);}.cls-120,.cls-151,.cls-152,.cls-89{fill:none;}.cls-120,.cls-151,.cls-89{stroke-miterlimit:10;}.cls-89{stroke-width:1.16px;stroke:url(#linear-gradient-18);}.cls-100,.cls-101,.cls-102,.cls-103,.cls-104,.cls-105,.cls-106,.cls-107,.cls-108,.cls-109,.cls-110,.cls-111,.cls-112,.cls-113,.cls-114,.cls-115,.cls-116,.cls-90,.cls-91,.cls-92,.cls-93,.cls-94,.cls-95,.cls-96,.cls-97,.cls-98,.cls-99{fill:#1a0d36;}.cls-117{fill:#5f2e6d;}.cls-118{fill:#7c3d8f;}.cls-119{fill:url(#linear-gradient-19);}.cls-120{stroke:#7c3d8f;}.cls-120,.cls-151{stroke-width:1.01px;}.cls-121{fill:#721b43;}.cls-122{fill:#711b42;}.cls-123{fill:#701a42;}.cls-124{fill:#6f1a41;}.cls-125{fill:#6e1940;}.cls-126{fill:#6d193f;}.cls-127{fill:#6c193f;}.cls-128{fill:#6a183e;}.cls-129{fill:#69183d;}.cls-130{fill:#68183c;}.cls-131{fill:#67173c;}.cls-132{fill:#66173b;}.cls-133{fill:#65163a;}.cls-134{fill:#64163a;}.cls-135{fill:#631639;}.cls-136{fill:#621538;}.cls-137{fill:#611537;}.cls-138{fill:#601437;}.cls-139{fill:#5f1436;}.cls-140{fill:#5e1435;}.cls-141{fill:#5c1334;}.cls-142{fill:#5b1334;}.cls-143{fill:#5a1333;}.cls-144{fill:#591232;}.cls-145{fill:#581231;}.cls-146{fill:#571131;}.cls-147{fill:#561130;}.cls-148{fill:#bd5e88;}.cls-149{fill:#f3a1c6;}.cls-150{fill:url(#linear-gradient-20);}.cls-151{stroke:#bd5e88;}.cls-153{fill:url(#linear-gradient-21);}.cls-154{fill:url(#linear-gradient-22);}.cls-155{fill:url(#linear-gradient-23);}.cls-156{fill:url(#linear-gradient-24);}.cls-157{fill:url(#linear-gradient-25);}.cls-158{fill:url(#linear-gradient-26);}.cls-159{fill:url(#linear-gradient-27);}</style><linearGradient id="linear-gradient" x1="597.24" y1="820.97" x2="699.87" y2="833.17" gradientUnits="userSpaceOnUse"><stop offset="0" stop-color="#f0a100"/><stop offset="1" stop-color="#e76a15"/></linearGradient><linearGradient id="linear-gradient-2" x1="660.05" y1="864.26" x2="1143.36" y2="864.26" gradientUnits="userSpaceOnUse"><stop offset="0" stop-color="#f1841a"/><stop offset="0.04" stop-color="#f28a17"/><stop offset="0.23" stop-color="#f7a20a"/><stop offset="0.4" stop-color="#fab103"/><stop offset="0.54" stop-color="#fbb600"/><stop offset="0.66" stop-color="#fab103"/><stop offset="0.81" stop-color="#f7a30a"/><stop offset="0.96" stop-color="#f28b16"/><stop offset="1" stop-color="#f1841a"/></linearGradient><linearGradient id="linear-gradient-3" x1="438.18" y1="900.16" x2="315.95" y2="649.43" gradientUnits="userSpaceOnUse"><stop offset="0" stop-color="#f0a100"/><stop offset="1" stop-color="#f5ba00"/></linearGradient><linearGradient id="linear-gradient-4" x1="576.17" y1="899.34" x2="707.32" y2="747.27" gradientUnits="userSpaceOnUse"><stop offset="0" stop-color="#fbb600"/><stop offset="1" stop-color="#ffce00"/></linearGradient><linearGradient id="linear-gradient-5" x1="345.86" y1="566.73" x2="709.94" y2="501.67" gradientUnits="userSpaceOnUse"><stop offset="0" stop-color="#df5300"/><stop offset="1" stop-color="#ee7800"/></linearGradient><linearGradient id="linear-gradient-6" x1="907.99" y1="447.57" x2="1155.84" y2="447.57" gradientUnits="userSpaceOnUse"><stop offset="0" stop-color="#a52196"/><stop offset="1" stop-color="#b0318a"/></linearGradient><linearGradient id="linear-gradient-7" x1="964.65" y1="313.36" x2="825.19" y2="278.6" gradientUnits="userSpaceOnUse"><stop offset="0" stop-color="#413892"/><stop offset="1" stop-color="#693c8f"/></linearGradient><linearGradient id="linear-gradient-8" x1="1100.55" y1="387.29" x2="1037.38" y2="317.9" gradientUnits="userSpaceOnUse"><stop offset="0" stop-color="#6959a5"/><stop offset="1" stop-color="#815da4"/></linearGradient><linearGradient id="linear-gradient-9" x1="659.28" y1="498.25" x2="977.67" y2="498.25" gradientUnits="userSpaceOnUse"><stop offset="0" stop-color="#c9509e"/><stop offset="1" stop-color="#df73ab"/></linearGradient><linearGradient id="linear-gradient-10" x1="638.16" y1="268.54" x2="805.39" y2="268.54" gradientUnits="userSpaceOnUse"><stop offset="0" stop-color="#69c8f3"/><stop offset="1" stop-color="#29b0cf"/></linearGradient><linearGradient id="linear-gradient-11" x1="653.13" y1="247.12" x2="492.27" y2="234.22" gradientUnits="userSpaceOnUse"><stop offset="0" stop-color="#007d9d"/><stop offset="1" stop-color="#29b0cf"/><stop offset="1" stop-color="#007d9d"/></linearGradient><linearGradient id="linear-gradient-12" x1="704.13" y1="918.98" x2="1006.58" y2="726.64" gradientUnits="userSpaceOnUse"><stop offset="0" stop-color="#fbda00"/><stop offset="1" stop-color="#fff155"/></linearGradient><linearGradient id="linear-gradient-13" x1="611.22" y1="693.43" x2="593.86" y2="771.54" gradientUnits="userSpaceOnUse"><stop offset="0" stop-color="#fff"/><stop offset="1" stop-color="#fff" stop-opacity="0"/></linearGradient><linearGradient id="linear-gradient-14" x1="1204" y1="399.67" x2="1100.33" y2="398.65" xlink:href="#linear-gradient-13"/><linearGradient id="linear-gradient-15" x1="976.58" y1="674.9" x2="962.64" y2="772.47" gradientTransform="translate(-3.08 5.53) rotate(-0.28)" xlink:href="#linear-gradient-13"/><linearGradient id="linear-gradient-16" x1="400.78" y1="199.54" x2="448.46" y2="192.97" xlink:href="#linear-gradient-13"/><linearGradient id="linear-gradient-17" x1="364.62" y1="305.73" x2="353.35" y2="403.68" gradientTransform="translate(-120.66 358.17) rotate(-19.79)" gradientUnits="userSpaceOnUse"><stop offset="0" stop-color="#fff"/><stop offset="1" stop-color="#d8d8d8"/></linearGradient><linearGradient id="linear-gradient-18" x1="372.77" y1="234.91" x2="356.39" y2="377.25" gradientTransform="translate(-120.66 358.17) rotate(-19.79)" gradientUnits="userSpaceOnUse"><stop offset="0" stop-color="#f18700"/><stop offset="1" stop-color="#f1b800"/></linearGradient><linearGradient id="linear-gradient-19" x1="1041.33" y1="155.05" x2="1034.25" y2="216.63" xlink:href="#linear-gradient-17"/><linearGradient id="linear-gradient-20" x1="853.59" y1="299.82" x2="845.47" y2="370.44" xlink:href="#linear-gradient-17"/><linearGradient id="linear-gradient-21" x1="144.46" y1="1065.63" x2="174.51" y2="1069.2" xlink:href="#linear-gradient"/><linearGradient id="linear-gradient-22" x1="164.19" y1="1090.39" x2="311.42" y2="1090.39" xlink:href="#linear-gradient-2"/><linearGradient id="linear-gradient-23" x1="146.48" y1="1100.15" x2="265.67" y2="1024.35" xlink:href="#linear-gradient-12"/><linearGradient id="linear-gradient-24" x1="148.75" y1="982.84" x2="138.91" y2="1027.13" xlink:href="#linear-gradient-13"/><linearGradient id="linear-gradient-25" x1="329.68" y1="754.23" x2="298.48" y2="753.92" xlink:href="#linear-gradient-13"/><linearGradient id="linear-gradient-26" x1="266.22" y1="944.7" x2="256.56" y2="1012.27" gradientTransform="translate(-3.08 5.53) rotate(-0.28)" xlink:href="#linear-gradient-13"/><linearGradient id="linear-gradient-27" x1="82.97" y1="607.28" x2="101.04" y2="604.79" xlink:href="#linear-gradient-13"/></defs><title>bg-alur</title><g class="cls-1"><path class="cls-2" d="M798.44,801.77c-47.62.76-187.6-15.06-298-29.08-16.71-2.12-32.93-4.24-48.54-6.37C337,750.63,255.39,734.21,257.75,709.38c1.93-20.29,31-33.8,65.38-43.89,13.13-3.84,27-7.2,40.54-10.24,62.22-14,172.7-30.5,265.74-45.1,17.37-2.72,34.13-5.38,49.85-7.94,90.35-14.74,163.9-28.17,222.18-42.38,123.37-30.09,178.17-63.68,178.17-120.51,0-3-.14-5.93-.38-8.77-4.58-53.86-52.9-75.07-151-94.76-39.79-8-87.77-15.72-144.36-25.28-18.16-3.07-36.46-6.11-54.69-9.12-47.33-7.8-94.2-15.38-137.07-22.7-61.29-10.47-114.39-20.4-148.9-29.66-26.79-7.19-42.38-14-41.89-20.33.46-6,6.2-13.65,24.19-21,15.56-6.34,40.3-12.43,78.76-17,32.62-3.85,75.1-6.58,130.21-7.39-52.3-5.49-103.46-7.89-147.71-6.05-33.26,1.39-62.61,5.17-85.53,11.88-24,7-40.93,17.23-48,31.21-12.1,23.87.1,42.94,17.7,52.58,8.8,4.82,17.74,9.2,27,13.25,41.48,18.07,90,29.45,164,42.28,42.5,7.37,93.41,15.23,156.17,25.12L741,357.25c64,10.13,116.34,18.06,156.58,26,65.11,12.85,98.28,25.73,96.67,48a24.16,24.16,0,0,1-.79,4.84c-6,21.65-70.05,34.52-161.69,45.54-71,8.55-158.69,16-248.71,25.55-41.22,4.38-82.94,9.2-123.8,14.78C350.65,536.75,265.79,554,204.77,579.17,128,610.78,89,654.79,88,721.93c-1.49,104.2,121.37,160.29,257.91,190.62,108.16,24,287.81,45.85,358.14,48.63L646.73,1058l496.63-241.33L835.69,738.86Z"/><path class="cls-3" d="M799,799.86c-47.62.76-185.18-14.51-295.54-28.53q-25.08-3.2-48.54-6.37c-114.95-15.7-196.56-32.12-194.19-57,1.93-20.29,31-33.8,65.38-43.88,13.13-3.85,27-7.2,40.54-10.24,62.22-14,172.7-30.51,265.74-45.1,17.36-2.73,34.12-5.39,49.85-7.95,90.34-14.73,163.9-28.17,222.17-42.38,123.38-30.09,178.17-63.68,178.17-120.51,0-3-.13-5.93-.37-8.76-4.59-53.86-52.9-75.08-151-94.76-39.79-8-87.77-15.72-144.36-25.29-18.16-3.07-36.46-6.11-54.69-9.11-47.34-7.81-94.2-15.39-137.07-22.71-61.3-10.47-114.39-20.39-148.9-29.66-26.79-7.19-42.38-14-41.89-20.32.46-6,6.19-13.66,24.19-21,15.56-6.34,40.3-12.43,78.76-17,32.62-3.85,75.1-6.57,130.21-7.39-52.3-5.48-103.46-7.89-147.71-6-33.26,1.38-62.61,5.16-85.53,11.88-24,7-40.93,17.22-48,31.21-12.1,23.87.1,42.93,17.7,52.57,8.79,4.82,17.74,9.2,27,13.25,41.48,18.07,90,29.45,164,42.28,42.5,7.38,93.41,15.24,156.17,25.12l22.89,3.62c64,10.12,116.34,18.05,156.58,26,65.11,12.84,98.28,25.72,96.67,48a23.72,23.72,0,0,1-.8,4.84c-6,21.64-70,34.51-161.68,45.54-71.05,8.55-158.69,16-248.71,25.55-41.22,4.38-82.94,9.2-123.8,14.78-108.59,14.82-193.45,32.12-254.47,57.25C131,609.42,91.92,653.43,91,720.56c-1.49,104.2,121.37,160.3,257.91,190.62,108.16,24,285.39,45.32,355.72,48.09l-57.33,96.83,496.12-240L836.21,737Z"/><path class="cls-4" d="M799.48,798c-47.62.76-182.76-14-293.12-28q-25.08-3.18-48.54-6.37c-114.95-15.69-196.56-32.11-194.19-56.94,1.93-20.3,31-33.8,65.38-43.89,13.13-3.85,27-7.2,40.54-10.24,62.22-14,172.7-30.5,265.74-45.1,17.36-2.72,34.12-5.38,49.85-7.95,90.34-14.73,163.9-28.16,222.17-42.38,123.38-30.09,178.17-63.67,178.17-120.5,0-3-.13-5.94-.37-8.77-4.59-53.86-52.9-75.07-151-94.76-39.79-8-87.77-15.72-144.36-25.28-18.16-3.07-36.46-6.11-54.7-9.12-47.33-7.8-94.2-15.39-137.06-22.71-61.3-10.46-114.4-20.39-148.9-29.65-26.79-7.2-42.39-14-41.9-20.33.47-6,6.2-13.66,24.2-21,15.56-6.34,40.3-12.42,78.76-17,32.62-3.84,75.09-6.57,130.21-7.39-52.3-5.48-103.47-7.88-147.71-6-33.27,1.38-62.61,5.17-85.53,11.88-24,7-40.93,17.22-48,31.21-12.1,23.87.1,42.94,17.7,52.58,8.79,4.81,17.74,9.2,27,13.25,41.48,18.07,90,29.45,164,42.28C610.3,333.16,661.21,341,724,350.91l22.89,3.61c64,10.13,116.34,18.05,156.57,26,65.12,12.84,98.28,25.73,96.68,48a24.43,24.43,0,0,1-.8,4.84c-6,21.65-70,34.52-161.68,45.54-71.06,8.55-158.69,16-248.71,25.55-41.22,4.38-82.94,9.2-123.8,14.78C356.53,534,271.67,551.31,210.65,576.44c-76.77,31.61-115.8,75.62-116.76,142.75-1.5,104.2,121.37,160.3,257.91,190.63,108.16,24,283,44.77,353.29,47.55l-57.32,96.82,495.6-238.7L836.73,735.05Z"/><path class="cls-5" d="M800,796.06c-47.62.75-180.33-13.45-290.7-27.47-16.71-2.12-32.93-4.24-48.54-6.37-114.94-15.69-196.55-32.11-194.18-56.94,1.93-20.29,31-33.8,65.38-43.89,13.13-3.84,27-7.2,40.53-10.24,62.22-14,172.7-30.5,265.74-45.1,17.37-2.72,34.13-5.38,49.85-7.94,90.35-14.74,163.91-28.17,222.18-42.38,123.37-30.09,178.17-63.68,178.17-120.51,0-3-.13-5.93-.38-8.77-4.58-53.86-52.89-75.07-151-94.76-39.8-8-87.77-15.72-144.36-25.28-18.17-3.07-36.46-6.11-54.7-9.12-47.33-7.8-94.2-15.38-137.06-22.7-61.3-10.47-114.4-20.4-148.9-29.66-26.79-7.19-42.39-14-41.9-20.33.47-6,6.2-13.65,24.19-21,15.57-6.34,40.3-12.43,78.77-17,32.62-3.85,75.09-6.58,130.21-7.39-52.3-5.49-103.47-7.89-147.71-6.05-33.27,1.39-62.62,5.17-85.53,11.88-24,7-40.93,17.23-48,31.21-12.1,23.87.09,42.94,17.7,52.58,8.79,4.82,17.74,9.2,27,13.25,41.49,18.07,90,29.45,164,42.28,42.5,7.37,93.41,15.23,156.17,25.12l22.89,3.61c64,10.13,116.33,18.06,156.57,26,65.12,12.85,98.28,25.73,96.68,48a24.93,24.93,0,0,1-.8,4.84c-6,21.65-70,34.52-161.69,45.55-71,8.54-158.68,16-248.7,25.54-41.23,4.38-82.95,9.2-123.81,14.78-108.58,14.83-193.44,32.12-254.47,57.25C136.82,606.68,97.79,650.69,96.83,717.83,95.33,822,218.19,878.12,354.74,908.45c108.15,24,280.55,44.24,350.87,47l-57.33,96.83,495.1-237.39L837.24,733.14Z"/><path class="cls-6" d="M800.51,794.15c-47.62.76-177.91-12.9-288.28-26.92-16.71-2.13-32.93-4.24-48.54-6.37-114.95-15.7-196.55-32.12-194.19-57,1.94-20.29,31-33.8,65.38-43.88,13.14-3.85,27.05-7.2,40.54-10.24,62.22-14,172.7-30.51,265.74-45.1,17.37-2.73,34.13-5.39,49.85-8,90.35-14.73,163.9-28.17,222.18-42.38,123.37-30.09,178.17-63.68,178.17-120.51,0-3-.14-5.93-.38-8.76-4.58-53.86-52.89-75.08-151-94.76-39.8-8-87.77-15.72-144.36-25.29-18.17-3.07-36.47-6.11-54.7-9.11-47.33-7.81-94.2-15.39-137.07-22.71-61.29-10.47-114.39-20.39-148.89-29.66-26.8-7.19-42.39-14-41.9-20.32.46-6,6.2-13.66,24.19-21,15.57-6.34,40.3-12.43,78.77-17,32.61-3.85,75.09-6.57,130.21-7.39-52.3-5.48-103.47-7.89-147.71-6-33.27,1.38-62.62,5.16-85.53,11.88C389,190.76,372,201,365,215c-12.11,23.87.09,42.94,17.69,52.57,8.8,4.82,17.74,9.2,27,13.25,41.49,18.07,90,29.45,164,42.28,42.51,7.38,93.41,15.24,156.17,25.12l22.89,3.62c64,10.12,116.34,18,156.58,26,65.11,12.84,98.28,25.72,96.68,48a25.18,25.18,0,0,1-.8,4.84c-6,21.65-70,34.51-161.69,45.54-71,8.55-158.68,16-248.71,25.55-41.22,4.38-82.94,9.2-123.8,14.78-108.59,14.82-193.45,32.12-254.47,57.25-76.76,31.61-115.79,75.62-116.75,142.75-1.5,104.2,121.36,160.3,257.91,190.63,108.15,24,278.13,43.69,348.45,46.47l-57.33,96.82,494.58-236.07L837.76,731.24Z"/><path class="cls-7" d="M801,792.25c-47.62.76-175.49-12.37-285.86-26.39-16.71-2.12-32.93-4.24-48.54-6.37-114.95-15.69-196.55-32.11-194.19-56.94,1.93-20.3,31-33.8,65.38-43.89,13.13-3.85,27.05-7.2,40.54-10.24,62.22-14,172.7-30.5,265.74-45.1,17.37-2.72,34.13-5.38,49.85-8,90.35-14.73,163.9-28.16,222.18-42.38,123.37-30.09,178.17-63.67,178.17-120.5,0-3-.14-5.94-.38-8.77-4.58-53.86-52.89-75.07-151-94.76-39.8-8-87.78-15.72-144.36-25.28-18.17-3.07-36.47-6.11-54.7-9.12-47.33-7.8-94.2-15.39-137.07-22.71-61.29-10.46-114.39-20.39-148.9-29.65-26.79-7.2-42.38-14-41.89-20.33.46-6,6.2-13.66,24.19-21,15.56-6.34,40.3-12.42,78.77-17,32.61-3.84,75.09-6.57,130.21-7.39-52.3-5.48-103.47-7.88-147.72-6-33.26,1.38-62.61,5.17-85.53,11.88-24,7-40.93,17.22-48,31.21-12.1,23.87.1,42.94,17.7,52.58,8.8,4.81,17.74,9.2,27,13.25,41.48,18.07,90,29.45,164,42.28,42.5,7.37,93.41,15.23,156.17,25.12l22.89,3.61c64,10.13,116.34,18.05,156.58,26,65.11,12.84,98.28,25.73,96.67,48a24.39,24.39,0,0,1-.79,4.84c-6,21.65-70,34.52-161.69,45.54-71.05,8.55-158.69,16-248.71,25.55-41.22,4.38-82.94,9.2-123.8,14.78-108.59,14.83-193.45,32.12-254.47,57.25C142.7,604,103.67,648,102.7,715.09c-1.49,104.2,121.37,160.3,257.91,190.63,108.16,24,275.72,43.16,346,45.93l-57.33,96.83,494.07-234.76L838.28,729.33Z"/><path class="cls-8" d="M801.55,790.34c-47.62.76-173.08-11.83-283.44-25.85-16.71-2.12-32.93-4.24-48.54-6.37C354.62,742.43,273,726,275.38,701.18c1.93-20.29,31-33.8,65.38-43.89,13.13-3.84,27-7.2,40.54-10.24C443.52,633,554,616.55,647,602c17.37-2.72,34.13-5.38,49.85-7.94,90.35-14.73,163.9-28.17,222.18-42.38,123.37-30.09,178.17-63.68,178.17-120.51,0-3-.14-5.93-.38-8.77-4.59-53.86-52.9-75.07-151-94.76-39.79-8-87.77-15.72-144.36-25.28-18.16-3.07-36.46-6.11-54.69-9.12-47.34-7.8-94.2-15.38-137.07-22.7-61.3-10.47-114.39-20.4-148.9-29.66-26.79-7.19-42.38-14-41.89-20.32.46-6,6.2-13.66,24.19-21,15.56-6.34,40.3-12.43,78.76-17,32.62-3.85,75.1-6.58,130.21-7.39-52.3-5.49-103.46-7.89-147.71-6-33.26,1.39-62.61,5.17-85.53,11.88-24,7-40.93,17.23-48,31.21-12.1,23.87.1,42.94,17.7,52.58,8.8,4.82,17.74,9.2,27,13.25,41.48,18.07,90,29.45,164,42.28,42.5,7.38,93.41,15.23,156.17,25.12l22.89,3.61c64,10.13,116.34,18.06,156.58,26,65.11,12.85,98.28,25.73,96.67,48a24.16,24.16,0,0,1-.79,4.84c-6,21.65-70.05,34.52-161.69,45.55-71,8.54-158.69,16-248.71,25.55-41.22,4.37-82.94,9.19-123.8,14.77C368.28,528.55,283.42,545.84,222.4,571c-76.76,31.61-115.79,75.62-116.76,142.76C104.15,817.93,227,874,363.55,904.35c108.16,24,273.29,42.63,343.62,45.4l-57.33,96.83L1143.4,813.13l-304.6-85.7Z"/><path class="cls-9" d="M802.07,788.44c-47.62.76-170.66-11.29-281-25.31q-25.08-3.2-48.54-6.37c-114.95-15.7-196.56-32.12-194.19-57,1.93-20.29,31-33.8,65.38-43.88,13.13-3.85,27-7.2,40.54-10.24,62.22-14,172.7-30.51,265.74-45.1,17.36-2.73,34.12-5.39,49.85-8,90.34-14.73,163.9-28.17,222.17-42.38,123.38-30.09,178.17-63.68,178.17-120.51,0-3-.13-5.93-.37-8.76-4.59-53.86-52.9-75.08-151-94.76-39.79-8-87.77-15.72-144.36-25.29-18.16-3.07-36.46-6.11-54.69-9.11-47.34-7.81-94.2-15.39-137.07-22.71-61.3-10.47-114.39-20.39-148.9-29.66-26.79-7.19-42.38-14-41.89-20.32.46-6,6.19-13.66,24.19-21,15.56-6.34,40.3-12.43,78.76-17,32.62-3.85,75.1-6.57,130.21-7.39-52.3-5.48-103.46-7.88-147.71-6-33.26,1.38-62.61,5.16-85.53,11.88-24,7-40.93,17.22-48,31.21-12.1,23.87.1,42.94,17.7,52.57,8.79,4.82,17.74,9.2,27,13.25,41.48,18.08,90,29.45,164,42.28,42.5,7.38,93.41,15.24,156.17,25.12l22.89,3.62c64,10.12,116.34,18.05,156.58,26,65.11,12.84,98.28,25.72,96.67,48a23.72,23.72,0,0,1-.8,4.84C1008,448.14,944,461,852.32,472c-71.05,8.55-158.69,16-248.71,25.55-41.22,4.38-82.94,9.2-123.8,14.78-108.59,14.82-193.45,32.12-254.47,57.25-76.76,31.61-115.8,75.62-116.76,142.75C107.08,816.56,230,872.66,366.49,903c108.16,24,270.87,42.08,341.2,44.86l-57.33,96.82,493-232.13-304.08-87Z"/><path class="cls-10" d="M802.59,786.54C755,787.29,634.35,775.78,524,761.76c-16.71-2.12-32.93-4.24-48.54-6.37C360.5,739.7,278.89,723.28,281.26,698.45c1.93-20.3,31-33.8,65.38-43.89,13.13-3.85,27-7.2,40.53-10.24,62.22-14,172.71-30.5,265.75-45.1,17.36-2.72,34.12-5.38,49.85-8,90.34-14.73,163.9-28.16,222.17-42.38,123.37-30.09,178.17-63.67,178.17-120.5,0-3-.13-5.94-.37-8.77-4.59-53.86-52.9-75.07-151-94.76-39.8-8-87.77-15.72-144.36-25.28-18.16-3.07-36.46-6.11-54.7-9.12-47.33-7.8-94.2-15.39-137.06-22.71-61.3-10.46-114.4-20.39-148.9-29.65-26.79-7.2-42.39-14-41.9-20.33.47-6,6.2-13.66,24.19-21,15.57-6.34,40.3-12.42,78.77-17,32.62-3.84,75.09-6.57,130.21-7.39-52.3-5.48-103.47-7.88-147.71-6-33.27,1.38-62.61,5.17-85.53,11.88-24,7-40.93,17.22-48,31.21-12.1,23.87.1,42.94,17.7,52.58,8.79,4.81,17.74,9.2,27,13.25,41.48,18.07,90,29.45,164,42.28,42.5,7.37,93.41,15.23,156.17,25.12l22.89,3.61c64,10.13,116.34,18.05,156.57,26,65.12,12.84,98.28,25.73,96.68,48a24.43,24.43,0,0,1-.8,4.84c-6,21.65-70,34.52-161.68,45.54-71.06,8.55-158.69,16-248.71,25.55-41.23,4.38-82.94,9.2-123.8,14.78-108.59,14.83-193.45,32.12-254.48,57.25C151.51,599.85,112.48,643.86,111.52,711c-1.5,104.2,121.36,160.3,257.91,190.63,108.16,24,268.45,41.55,338.77,44.32l-57.32,96.83L1143.41,812,839.84,723.62Z"/><path class="cls-11" d="M803.1,784.63c-47.62.76-165.81-10.22-276.18-24.24-16.71-2.12-32.93-4.24-48.54-6.37-114.94-15.69-196.55-32.11-194.19-56.94,1.94-20.29,31-33.8,65.38-43.89,13.14-3.84,27.05-7.2,40.54-10.24,62.22-14,172.7-30.5,265.74-45.1,17.37-2.72,34.13-5.38,49.85-7.94,90.35-14.73,163.9-28.17,222.18-42.38,123.37-30.09,178.17-63.68,178.17-120.51,0-3-.13-5.93-.38-8.77-4.58-53.86-52.89-75.07-151-94.76-39.8-8-87.77-15.72-144.36-25.28-18.17-3.07-36.47-6.11-54.7-9.12-47.33-7.8-94.2-15.38-137.07-22.7-61.29-10.47-114.39-20.4-148.89-29.66-26.8-7.19-42.39-14-41.9-20.32.47-6,6.2-13.66,24.19-21,15.57-6.34,40.3-12.43,78.77-17,32.62-3.85,75.09-6.58,130.21-7.39-52.3-5.49-103.47-7.89-147.71-6-33.27,1.39-62.62,5.17-85.53,11.88-24,7-40.93,17.23-48,31.21-12.1,23.87.09,42.94,17.7,52.58,8.79,4.82,17.74,9.2,27,13.25,41.49,18.07,90,29.45,164,42.28,42.51,7.38,93.42,15.23,156.18,25.12L767.42,345c64,10.13,116.34,18.06,156.58,26,65.12,12.85,98.28,25.73,96.68,48a24.93,24.93,0,0,1-.8,4.84c-6,21.65-70,34.52-161.69,45.55-71.05,8.54-158.68,16-248.71,25.55-41.22,4.37-82.94,9.19-123.8,14.77-108.58,14.83-193.44,32.12-254.47,57.25-76.76,31.61-115.79,75.62-116.75,142.76-1.5,104.2,121.36,160.3,257.91,190.62,108.15,24,266,41,336.35,43.79l-57.33,96.82,492-229.5L840.35,721.72Z"/><path class="cls-12" d="M803.62,782.73c-47.62.76-163.39-9.68-273.76-23.7-16.71-2.13-32.93-4.24-48.54-6.37C366.37,737,284.77,720.54,287.13,695.71c1.94-20.29,31-33.8,65.38-43.88,13.14-3.85,27.05-7.2,40.54-10.24,62.22-14,172.7-30.51,265.74-45.1,17.37-2.73,34.13-5.39,49.85-8,90.35-14.73,163.9-28.17,222.18-42.38C1054.19,516.07,1109,482.48,1109,425.65c0-3-.14-5.93-.38-8.76-4.58-53.86-52.89-75.08-151-94.76-39.8-8-87.78-15.72-144.36-25.29-18.17-3.07-36.47-6.11-54.7-9.11-47.33-7.81-94.2-15.39-137.07-22.71-61.29-10.47-114.39-20.39-148.89-29.66-26.8-7.19-42.39-14-41.9-20.32.46-6,6.2-13.66,24.19-21,15.56-6.34,40.3-12.43,78.77-17,32.61-3.85,75.09-6.57,130.21-7.39-52.3-5.48-103.47-7.88-147.72-6-33.26,1.38-62.61,5.16-85.53,11.88-24,7-40.92,17.22-48,31.21-12.1,23.87.1,42.94,17.7,52.57,8.8,4.82,17.74,9.2,27,13.25,41.49,18.08,90,29.45,164,42.28,42.5,7.38,93.41,15.24,156.17,25.12l22.89,3.62c64,10.12,116.34,18.05,156.58,26,65.11,12.84,98.28,25.72,96.68,48a25.18,25.18,0,0,1-.8,4.84c-6,21.65-70,34.51-161.69,45.54-71,8.55-158.68,16-248.71,25.55-41.22,4.38-82.94,9.2-123.8,14.78C380,523.08,295.17,540.38,234.15,565.51c-76.76,31.61-115.79,75.62-116.75,142.75-1.5,104.2,121.36,160.3,257.91,190.63,108.15,24,263.61,40.47,333.93,43.24L651.91,1039l491.51-228.19-302.55-91Z"/><path class="cls-13" d="M804.14,780.82c-47.62.76-161-9.14-271.34-23.16-16.71-2.12-32.93-4.24-48.54-6.37-114.95-15.69-196.55-32.11-194.19-56.94,1.93-20.3,31-33.8,65.38-43.89,13.13-3.85,27.05-7.2,40.54-10.24,62.22-14,172.7-30.5,265.74-45.1,17.37-2.72,34.13-5.38,49.85-8,90.35-14.73,163.9-28.16,222.18-42.38,123.37-30.09,178.17-63.67,178.17-120.5,0-3-.14-5.94-.38-8.77-4.58-53.86-52.9-75.07-151-94.76-39.8-8-87.78-15.72-144.37-25.28-18.16-3.07-36.46-6.11-54.69-9.12-47.33-7.8-94.2-15.39-137.07-22.71C563.11,253.19,510,243.26,475.5,234c-26.79-7.2-42.38-14-41.89-20.33.46-6,6.2-13.66,24.19-21,15.56-6.34,40.3-12.42,78.77-17,32.61-3.84,75.09-6.57,130.2-7.39-52.29-5.48-103.46-7.88-147.71-6-33.26,1.38-62.61,5.17-85.53,11.88-24,7-40.93,17.22-48,31.21-12.1,23.87.1,42.94,17.7,52.58,8.8,4.81,17.74,9.2,27,13.25,41.48,18.07,90,29.45,164,42.28,42.5,7.37,93.41,15.23,156.17,25.12l22.89,3.61c64,10.13,116.34,18,156.58,26,65.11,12.84,98.28,25.73,96.67,48a24.39,24.39,0,0,1-.79,4.84c-6,21.65-70,34.52-161.69,45.54-71.05,8.55-158.69,16-248.71,25.55-41.22,4.38-82.94,9.2-123.8,14.78C383,521.72,298.11,539,237.09,564.14c-76.76,31.61-115.79,75.62-116.76,142.75-1.49,104.2,121.37,160.3,257.91,190.63,108.16,24,261.2,39.93,331.52,42.71l-57.33,96.83,491-226.88-302-92.27Z"/><path class="cls-14" d="M804.66,778.92c-47.62.76-158.56-8.61-268.92-22.63q-25.08-3.18-48.54-6.37C372.25,734.23,290.64,717.81,293,693c1.93-20.29,31-33.8,65.38-43.89,13.13-3.84,27-7.2,40.54-10.24,62.22-14,172.7-30.5,265.74-45.1,17.36-2.72,34.13-5.38,49.85-7.94,90.34-14.73,163.9-28.17,222.17-42.38,123.38-30.09,178.17-63.68,178.17-120.51,0-3-.13-5.93-.37-8.77-4.59-53.86-52.9-75.07-151-94.76-39.79-8-87.77-15.72-144.36-25.28C800.94,291,782.64,288,764.41,285c-47.34-7.8-94.2-15.38-137.07-22.7C566,251.82,513,241.89,478.44,232.63c-26.79-7.19-42.38-14-41.89-20.32.46-6,6.19-13.66,24.19-21,15.56-6.34,40.3-12.43,78.76-17,32.62-3.85,75.1-6.58,130.21-7.39-52.3-5.49-103.46-7.89-147.71-6.05-33.26,1.39-62.61,5.17-85.53,11.88-24,7-40.93,17.23-48,31.21-12.1,23.87.1,42.94,17.7,52.58,8.79,4.82,17.74,9.2,27,13.25,41.48,18.07,90,29.45,164,42.28,42.5,7.38,93.41,15.24,156.17,25.12l22.89,3.61c64,10.13,116.34,18.06,156.58,26,65.11,12.85,98.28,25.73,96.67,48a24.16,24.16,0,0,1-.79,4.84c-6,21.65-70.05,34.52-161.69,45.55-71,8.54-158.69,16-248.71,25.55-41.22,4.37-82.94,9.19-123.8,14.77C385.91,520.35,301.05,537.64,240,562.77c-76.76,31.61-115.79,75.62-116.76,142.76-1.49,104.2,121.37,160.3,257.91,190.62,108.16,24,258.77,39.4,329.1,42.18L653,1035.15l490.48-225.56L841.91,716Z"/><path class="cls-15" d="M805.18,777c-47.62.75-156.14-8.07-266.5-22.09q-25.08-3.2-48.54-6.37C375.19,732.87,293.58,716.44,296,691.61c1.93-20.29,31-33.8,65.38-43.88,13.13-3.85,27-7.2,40.54-10.24,62.22-14,172.7-30.51,265.74-45.1,17.36-2.73,34.12-5.39,49.85-7.95,90.34-14.73,163.9-28.16,222.17-42.38C1063,512,1117.8,478.38,1117.8,421.55c0-3-.13-5.93-.37-8.76-4.59-53.86-52.9-75.08-151-94.76-39.79-8-87.77-15.72-144.36-25.29-18.16-3.07-36.46-6.11-54.7-9.11-47.33-7.81-94.2-15.39-137.06-22.71-61.3-10.47-114.39-20.39-148.9-29.66-26.79-7.19-42.39-14-41.9-20.32.47-6,6.2-13.66,24.2-21,15.56-6.34,40.3-12.43,78.76-17,32.62-3.85,75.1-6.57,130.21-7.39-52.3-5.48-103.47-7.88-147.71-6-33.27,1.38-62.61,5.16-85.53,11.88-24,7-40.93,17.22-48,31.21-12.1,23.87.1,42.94,17.7,52.57,8.79,4.82,17.74,9.2,27,13.25,41.48,18.08,90,29.45,164,42.28,42.5,7.38,93.41,15.24,156.17,25.12l22.89,3.62c64,10.12,116.34,18.05,156.57,26,65.12,12.84,98.29,25.72,96.68,48a23.72,23.72,0,0,1-.8,4.84c-6,21.65-70,34.51-161.68,45.54-71.05,8.55-158.69,16-248.71,25.55-41.22,4.38-82.94,9.2-123.8,14.78C388.85,519,304,536.28,243,561.41,166.21,593,127.17,637,126.21,704.16c-1.5,104.2,121.37,160.3,257.91,190.63,108.16,24,256.35,38.86,326.67,41.63l-57.32,96.83,490-224.25-301-94.9Z"/><path class="cls-16" d="M805.69,775.11c-47.62.76-153.71-7.53-264.08-21.55-16.71-2.12-32.93-4.24-48.54-6.37-114.94-15.69-196.55-32.11-194.18-56.94,1.93-20.3,31-33.8,65.38-43.89,13.13-3.85,27-7.2,40.53-10.24,62.22-14,172.71-30.5,265.75-45.1,17.36-2.72,34.12-5.38,49.84-7.95,90.35-14.73,163.91-28.16,222.18-42.37,123.37-30.1,178.17-63.68,178.17-120.51,0-3-.13-5.94-.37-8.77-4.59-53.86-52.9-75.07-151-94.76-39.8-8-87.77-15.72-144.36-25.28-18.17-3.07-36.46-6.11-54.7-9.12-47.33-7.8-94.2-15.39-137.06-22.71-61.3-10.46-114.4-20.39-148.9-29.65-26.79-7.2-42.39-14-41.9-20.33.47-6,6.2-13.65,24.19-21,15.57-6.34,40.3-12.42,78.77-17,32.62-3.84,75.09-6.57,130.21-7.39-52.3-5.48-103.47-7.88-147.71-6-33.27,1.38-62.61,5.17-85.53,11.88-24,7-40.93,17.22-48,31.21-12.1,23.87.1,42.94,17.7,52.58,8.79,4.81,17.74,9.2,27,13.25,41.49,18.07,90,29.45,164,42.28,42.5,7.37,93.41,15.23,156.17,25.12l22.89,3.61c64,10.13,116.33,18.05,156.57,26,65.12,12.84,98.28,25.73,96.68,48a24.43,24.43,0,0,1-.8,4.84c-6,21.65-70,34.52-161.69,45.54-71,8.55-158.68,16-248.7,25.55-41.23,4.38-82.95,9.2-123.8,14.78C391.79,517.62,306.93,534.91,245.9,560c-76.76,31.61-115.79,75.62-116.75,142.75-1.5,104.2,121.36,160.3,257.91,190.63,108.15,24,253.93,38.32,324.25,41.1L654,1031.34l489.46-222.93L843,712.2Z"/><path class="cls-17" d="M806.21,773.21c-47.62.75-151.29-7-261.66-21-16.71-2.12-32.93-4.24-48.54-6.37-114.95-15.69-196.55-32.11-194.19-56.94,1.94-20.29,31-33.8,65.38-43.89,13.14-3.84,27.05-7.2,40.54-10.24,62.22-14,172.7-30.5,265.74-45.1,17.37-2.72,34.13-5.38,49.85-7.94,90.35-14.73,163.9-28.17,222.18-42.38,123.37-30.09,178.17-63.68,178.17-120.51,0-3-.14-5.93-.38-8.77-4.58-53.86-52.89-75.07-151-94.76-39.8-8-87.77-15.72-144.36-25.28-18.17-3.07-36.47-6.11-54.7-9.12-47.33-7.8-94.2-15.38-137.07-22.7-61.29-10.47-114.39-20.4-148.89-29.66-26.8-7.19-42.39-14-41.9-20.32.46-6,6.2-13.66,24.19-21,15.57-6.34,40.3-12.43,78.77-17,32.62-3.85,75.09-6.58,130.21-7.39-52.3-5.49-103.47-7.89-147.71-6.05-33.27,1.39-62.62,5.17-85.53,11.88-24,7-40.93,17.23-48,31.21-12.11,23.87.09,42.94,17.7,52.58,8.79,4.82,17.74,9.2,27,13.25,41.49,18.07,90,29.45,164,42.28,42.51,7.38,93.42,15.24,156.18,25.12l22.88,3.62c64,10.12,116.34,18.05,156.58,26,65.11,12.85,98.28,25.73,96.68,48a24.93,24.93,0,0,1-.8,4.84c-6,21.65-70,34.52-161.69,45.55-71.05,8.54-158.68,16-248.71,25.55-41.22,4.37-82.94,9.19-123.8,14.77-108.58,14.83-193.44,32.12-254.47,57.25-76.76,31.61-115.79,75.63-116.75,142.76-1.5,104.2,121.36,160.3,257.91,190.62,108.15,24,251.51,37.79,321.83,40.56l-57.33,96.83,489-221.62-300-97.53Z"/><path class="cls-18" d="M806.73,771.3c-47.62.76-148.87-6.45-259.24-20.47-16.71-2.13-32.93-4.24-48.54-6.37-114.95-15.69-196.55-32.12-194.19-57,1.93-20.29,31-33.8,65.38-43.88,13.13-3.85,27.05-7.2,40.54-10.24,62.22-14,172.7-30.51,265.74-45.1,17.37-2.73,34.13-5.38,49.85-7.95,90.35-14.73,163.9-28.16,222.18-42.38,123.37-30.09,178.17-63.68,178.17-120.51,0-3-.14-5.93-.38-8.76-4.58-53.86-52.89-75.08-151-94.76-39.8-8-87.78-15.72-144.36-25.29-18.17-3.07-36.47-6.11-54.7-9.11-47.33-7.81-94.2-15.39-137.07-22.71C577.8,246.35,524.7,236.43,490.2,227.16c-26.8-7.19-42.39-14-41.9-20.32.46-6,6.2-13.66,24.19-21,15.56-6.34,40.3-12.43,78.77-17,32.61-3.85,75.09-6.57,130.21-7.39-52.3-5.48-103.47-7.88-147.72-6-33.26,1.38-62.61,5.16-85.53,11.88-24,7-40.93,17.22-48,31.21-12.1,23.87.1,42.94,17.7,52.57,8.8,4.82,17.74,9.2,27,13.25,41.48,18.08,90,29.45,164,42.28,42.5,7.38,93.41,15.24,156.17,25.12L788,335.39c64,10.12,116.34,18.05,156.58,26,65.11,12.84,98.28,25.72,96.67,48a24.39,24.39,0,0,1-.79,4.84c-6,21.65-70.05,34.51-161.69,45.54-71,8.55-158.69,16-248.71,25.55-41.22,4.38-82.94,9.2-123.8,14.78-108.59,14.82-193.45,32.12-254.47,57.25C175,588.92,136,632.93,135,700.06c-1.5,104.2,121.36,160.3,257.9,190.63,108.16,24,249.1,37.24,319.42,40L655,1027.53l488.44-220.3L844,708.39Z"/><path class="cls-19" d="M807.25,769.4c-47.62.76-146.46-5.92-256.82-19.94-16.71-2.12-32.93-4.24-48.54-6.37C386.94,727.4,305.34,711,307.7,686.15c1.93-20.3,31-33.8,65.38-43.89,13.13-3.85,27-7.2,40.54-10.24,62.22-14,172.7-30.5,265.74-45.1,17.37-2.72,34.13-5.38,49.85-7.95,90.35-14.73,163.9-28.16,222.18-42.37,123.37-30.09,178.17-63.68,178.17-120.51,0-3-.14-5.94-.38-8.77-4.58-53.86-52.9-75.07-151-94.76-39.79-8-87.77-15.72-144.36-25.28-18.16-3.07-36.46-6.11-54.69-9.12-47.34-7.8-94.2-15.39-137.07-22.71C580.74,245,527.64,235.06,493.13,225.8c-26.79-7.2-42.38-14-41.89-20.33.46-6,6.2-13.65,24.19-21,15.56-6.35,40.3-12.43,78.76-17,32.62-3.84,75.1-6.57,130.21-7.39-52.3-5.48-103.46-7.88-147.71-6-33.26,1.38-62.61,5.17-85.53,11.88-24,7-40.93,17.22-48,31.21-12.1,23.87.1,42.94,17.7,52.58,8.8,4.81,17.74,9.2,27,13.25,41.48,18.07,90,29.45,164,42.28,42.5,7.37,93.41,15.23,156.17,25.12L790.93,334c64,10.13,116.34,18.05,156.58,26,65.11,12.84,98.28,25.73,96.67,48a24.39,24.39,0,0,1-.79,4.84c-6,21.65-70.05,34.52-161.69,45.54-71.05,8.55-158.69,16-248.71,25.55-41.22,4.38-82.94,9.2-123.8,14.78-108.59,14.83-193.45,32.12-254.47,57.25C178,587.55,138.93,631.56,138,698.69,136.47,802.89,259.33,859,395.87,889.32c108.16,24,246.67,36.71,317,39.49l-57.33,96.82,487.92-219-299-100.15Z"/><path class="cls-20" d="M807.77,767.5c-47.62.75-144-5.39-254.4-19.41q-25.08-3.18-48.54-6.37C389.88,726,308.27,709.61,310.64,684.78c1.93-20.29,31-33.8,65.38-43.88,13.13-3.85,27-7.21,40.54-10.25,62.22-14,172.7-30.5,265.74-45.1,17.36-2.72,34.12-5.38,49.85-7.94,90.34-14.73,163.9-28.17,222.17-42.38,123.38-30.09,178.17-63.68,178.17-120.51,0-3-.13-5.93-.37-8.77-4.59-53.86-52.9-75.07-151-94.76-39.79-8-87.77-15.72-144.36-25.28-18.16-3.07-36.46-6.11-54.69-9.12-47.34-7.8-94.2-15.38-137.07-22.7-61.3-10.47-114.39-20.4-148.9-29.66-26.79-7.19-42.38-14-41.89-20.32.46-6,6.19-13.66,24.19-21,15.56-6.34,40.3-12.43,78.76-17,32.62-3.85,75.1-6.58,130.21-7.39-52.3-5.49-103.46-7.89-147.71-6.05-33.26,1.39-62.61,5.17-85.53,11.88-24,7-40.93,17.23-48,31.21-12.1,23.87.1,42.94,17.7,52.58,8.79,4.82,17.74,9.2,27,13.25,41.48,18.07,90,29.45,164,42.28C657.31,311.3,708.22,319.16,771,329l22.89,3.62c64,10.12,116.34,18,156.58,26,65.11,12.84,98.28,25.72,96.67,48a23.72,23.72,0,0,1-.8,4.84c-6,21.64-70,34.51-161.68,45.54-71,8.54-158.69,16-248.71,25.55-41.22,4.37-82.94,9.19-123.8,14.77-108.59,14.83-193.45,32.12-254.47,57.25C180.9,586.18,141.87,630.2,140.9,697.33,139.41,801.53,262.27,857.63,398.81,888,507,912,643.06,924.13,713.39,926.9l-57.33,96.83,487.41-217.68L845,704.58Z"/><path class="cls-21" d="M808.29,765.59c-47.62.76-141.62-4.84-252-18.86q-25.08-3.19-48.54-6.37c-114.95-15.69-196.56-32.12-194.19-57,1.93-20.29,31-33.8,65.38-43.88,13.13-3.85,27-7.2,40.53-10.24,62.23-14,172.71-30.51,265.75-45.1,17.36-2.73,34.12-5.38,49.85-8,90.34-14.73,163.9-28.16,222.17-42.38,123.37-30.09,178.17-63.68,178.17-120.51,0-3-.13-5.93-.37-8.76-4.59-53.86-52.9-75.08-151-94.76-39.79-8-87.77-15.72-144.36-25.29-18.16-3.07-36.46-6.11-54.7-9.11-47.33-7.81-94.2-15.39-137.06-22.71-61.3-10.47-114.4-20.39-148.9-29.66-26.79-7.19-42.39-14-41.9-20.32.47-6,6.2-13.66,24.2-21,15.56-6.34,40.3-12.43,78.76-17,32.62-3.85,75.09-6.57,130.21-7.39-52.3-5.48-103.47-7.88-147.71-6C509.3,152.74,480,156.52,457,163.24c-24,7-40.93,17.22-48,31.21-12.1,23.87.1,42.94,17.7,52.57,8.79,4.82,17.74,9.2,27,13.25,41.48,18.08,90,29.45,164,42.29,42.5,7.37,93.41,15.23,156.17,25.12l22.89,3.61c64,10.12,116.34,18,156.57,26,65.12,12.84,98.28,25.72,96.68,48a24.43,24.43,0,0,1-.8,4.84c-6,21.65-70,34.51-161.68,45.54-71.06,8.55-158.69,16-248.71,25.55-41.22,4.38-82.94,9.2-123.8,14.78-108.59,14.82-193.45,32.12-254.47,57.25C183.83,584.82,144.8,628.83,143.84,696c-1.5,104.2,121.37,160.3,257.91,190.63,108.16,24,241.83,35.63,312.15,38.41l-57.32,96.82,486.89-216.36L845.54,702.68Z"/><path class="cls-22" d="M808.8,763.69c-47.62.75-139.19-4.31-249.56-18.33-16.71-2.12-32.93-4.24-48.54-6.37-114.94-15.69-196.55-32.11-194.18-56.94,1.93-20.3,31-33.8,65.38-43.89,13.13-3.85,27-7.2,40.53-10.24,62.22-14,172.7-30.5,265.74-45.1,17.37-2.72,34.13-5.38,49.85-8,90.35-14.73,163.91-28.16,222.18-42.37,123.37-30.09,178.17-63.68,178.17-120.51q0-4.53-.38-8.77c-4.58-53.86-52.89-75.07-151-94.76-39.8-8-87.77-15.72-144.36-25.28-18.17-3.07-36.46-6.11-54.7-9.12-47.33-7.8-94.2-15.39-137.06-22.71C589.55,240.89,536.45,231,502,221.7c-26.79-7.2-42.39-14-41.9-20.33.47-6,6.2-13.65,24.19-21,15.57-6.34,40.3-12.43,78.77-17,32.62-3.84,75.09-6.57,130.21-7.39-52.3-5.48-103.47-7.88-147.71-6-33.27,1.39-62.62,5.17-85.53,11.88-24,7-40.93,17.22-48,31.21-12.1,23.87.09,42.94,17.7,52.58,8.79,4.81,17.74,9.2,27,13.25,41.49,18.07,90,29.45,164,42.28,42.5,7.37,93.41,15.23,156.17,25.12l22.89,3.61c64,10.13,116.33,18.06,156.57,26,65.12,12.84,98.28,25.73,96.68,48a25.18,25.18,0,0,1-.8,4.84c-6,21.65-70,34.52-161.69,45.54-71,8.55-158.68,16-248.7,25.55-41.23,4.38-82.95,9.2-123.81,14.78-108.58,14.83-193.44,32.12-254.47,57.25-76.76,31.61-115.79,75.62-116.75,142.75-1.5,104.2,121.36,160.3,257.91,190.63,108.15,24,239.41,35.1,309.73,37.87l-57.33,96.83,486.39-215L846.05,700.77Z"/><path class="cls-23" d="M809.32,761.78C761.7,762.54,672.55,758,562.18,744c-16.71-2.12-32.93-4.24-48.54-6.37-114.95-15.69-196.55-32.11-194.19-56.94,1.94-20.29,31-33.8,65.38-43.88,13.14-3.85,27.05-7.21,40.54-10.25,62.22-14,172.7-30.5,265.74-45.09,17.37-2.73,34.13-5.39,49.85-8,90.35-14.73,163.9-28.17,222.18-42.38,123.37-30.09,178.17-63.68,178.17-120.51,0-3-.14-5.93-.38-8.77-4.58-53.86-52.89-75.07-151-94.76-39.8-8-87.77-15.72-144.36-25.28-18.17-3.07-36.47-6.11-54.7-9.12-47.33-7.8-94.2-15.38-137.07-22.7-61.29-10.47-114.39-20.4-148.89-29.66-26.8-7.19-42.39-14-41.9-20.32.46-6,6.2-13.66,24.19-21,15.56-6.34,40.3-12.43,78.77-17,32.61-3.85,75.09-6.58,130.21-7.39-52.3-5.49-103.47-7.89-147.71-6-33.27,1.39-62.62,5.17-85.53,11.88-24,7-40.93,17.23-48,31.21-12.11,23.87.09,42.94,17.69,52.58,8.8,4.82,17.74,9.2,27,13.25,41.49,18.07,90,29.45,164,42.28,42.51,7.38,93.41,15.24,156.17,25.12l22.89,3.62c64,10.12,116.34,18.05,156.58,26,65.11,12.84,98.28,25.72,96.68,48a25.18,25.18,0,0,1-.8,4.84c-6,21.64-70,34.51-161.69,45.54-71.05,8.54-158.68,16-248.71,25.55-41.22,4.37-82.94,9.19-123.8,14.77-108.59,14.83-193.45,32.12-254.47,57.25-76.76,31.61-115.79,75.63-116.75,142.76-1.5,104.2,121.36,160.3,257.91,190.62,108.15,24,237,34.56,307.31,37.34L657.61,1018l485.88-213.73L846.57,698.87Z"/><path class="cls-24" d="M809.84,759.88c-47.62.76-134.35-3.23-244.72-17.25-16.71-2.13-32.93-4.24-48.54-6.37-115-15.69-196.55-32.12-194.19-57,1.93-20.29,31-33.8,65.38-43.88,13.13-3.85,27.05-7.2,40.54-10.24,62.22-14,172.7-30.5,265.74-45.1,17.37-2.73,34.13-5.38,49.85-8,90.35-14.73,163.9-28.16,222.18-42.38,123.37-30.09,178.17-63.68,178.17-120.51,0-3-.14-5.93-.38-8.76-4.58-53.86-52.9-75.07-151-94.76-39.8-8-87.78-15.72-144.36-25.29-18.17-3.07-36.47-6.11-54.7-9.11-47.33-7.81-94.2-15.39-137.07-22.71-61.29-10.47-114.39-20.39-148.9-29.66-26.79-7.19-42.38-14-41.89-20.32.46-6,6.2-13.66,24.19-21,15.56-6.34,40.3-12.43,78.77-17,32.61-3.84,75.09-6.57,130.21-7.39-52.3-5.48-103.47-7.88-147.72-6-33.26,1.38-62.61,5.16-85.53,11.88-24,7-40.93,17.22-48,31.21-12.1,23.87.1,42.94,17.7,52.57,8.8,4.82,17.74,9.2,27,13.25,41.48,18.08,90,29.45,164,42.29,42.5,7.37,93.41,15.23,156.17,25.12l22.89,3.61c64,10.12,116.34,18.05,156.58,26,65.11,12.84,98.28,25.73,96.67,48a24.39,24.39,0,0,1-.79,4.84c-6,21.65-70,34.52-161.69,45.54-71,8.55-158.69,16-248.71,25.55-41.22,4.38-82.94,9.2-123.8,14.78C415.29,506.68,330.43,524,269.41,549.11c-76.76,31.61-115.79,75.62-116.76,142.75C151.16,796.06,274,852.16,410.56,882.49c108.16,24,234.58,34,304.9,36.8l-57.33,96.82,485.36-212.42L847.09,697Z"/><path class="cls-25" d="M810.36,758c-47.62.76-131.94-2.69-242.3-16.71-16.71-2.12-32.93-4.24-48.54-6.37C404.57,719.2,323,702.78,325.33,678c1.93-20.3,31-33.8,65.38-43.89,13.13-3.85,27-7.2,40.54-10.24,62.22-14,172.7-30.5,265.74-45.1,17.37-2.72,34.13-5.38,49.85-8C837.19,556,910.74,542.61,969,528.4c123.37-30.09,178.17-63.68,178.17-120.51,0-3-.14-5.94-.38-8.77-4.59-53.86-52.9-75.07-151-94.76-39.79-8-87.77-15.72-144.36-25.28C833.26,276,815,273,796.73,270c-47.34-7.8-94.2-15.39-137.07-22.71-61.3-10.46-114.39-20.39-148.9-29.65-26.79-7.2-42.38-14-41.89-20.33.46-6,6.2-13.65,24.19-21,15.56-6.34,40.3-12.43,78.76-17,32.62-3.84,75.1-6.57,130.21-7.39-52.3-5.48-103.46-7.88-147.71-6-33.26,1.39-62.61,5.17-85.53,11.88-24,7-40.93,17.22-48,31.21-12.1,23.87.1,42.94,17.7,52.58,8.79,4.81,17.74,9.2,27,13.25,41.48,18.07,90,29.45,164,42.28,42.5,7.37,93.41,15.23,156.17,25.12l22.89,3.61c64,10.13,116.34,18.06,156.58,26,65.11,12.84,98.28,25.73,96.67,48a24.39,24.39,0,0,1-.79,4.84c-6,21.65-70,34.52-161.69,45.54-71.05,8.55-158.69,16-248.71,25.55-41.22,4.38-82.94,9.2-123.8,14.78-108.59,14.83-193.45,32.12-254.47,57.25-76.76,31.61-115.79,75.62-116.76,142.75C154.1,794.69,277,850.79,413.5,881.12c108.16,24,232.15,33.49,302.48,36.26l-57.33,96.83L1143.5,803.1l-295.89-108Z"/><path class="cls-26" d="M810.88,756.07c-47.62.76-129.52-2.16-239.88-16.18q-25.08-3.18-48.54-6.37c-115-15.69-196.56-32.11-194.19-56.94,1.93-20.29,31-33.8,65.38-43.88,13.13-3.85,27-7.21,40.54-10.24,62.22-14,172.7-30.51,265.74-45.1,17.36-2.73,34.12-5.39,49.85-8C840.12,554.68,913.68,541.24,972,527c123.38-30.09,178.17-63.68,178.17-120.51,0-3-.13-5.93-.37-8.77-4.59-53.86-52.9-75.07-151-94.76-39.79-8-87.77-15.72-144.36-25.28-18.16-3.07-36.46-6.11-54.69-9.11-47.34-7.81-94.2-15.39-137.07-22.71-61.3-10.47-114.39-20.4-148.9-29.66-26.79-7.19-42.38-14-41.89-20.32.46-6,6.19-13.66,24.19-21,15.56-6.34,40.3-12.43,78.76-17,32.62-3.85,75.1-6.58,130.21-7.39-52.3-5.49-103.46-7.89-147.71-6-33.26,1.39-62.61,5.17-85.53,11.88-24,7-40.93,17.23-48,31.21-12.1,23.87.1,42.94,17.7,52.58,8.79,4.82,17.74,9.2,27,13.25,41.48,18.07,90,29.45,164,42.28,42.5,7.38,93.41,15.24,156.17,25.12l22.89,3.62c64,10.12,116.34,18.05,156.58,26,65.11,12.84,98.28,25.72,96.67,48a23.72,23.72,0,0,1-.8,4.84c-6,21.64-70,34.51-161.68,45.54-71,8.54-158.69,16-248.71,25.55-41.22,4.37-82.94,9.19-123.8,14.77C421.17,504,336.31,521.24,275.29,546.37,198.53,578,159.49,622,158.53,689.13,157,793.33,279.9,849.43,416.44,879.75c108.16,24,229.73,33,300.05,35.73l-57.32,96.82L1143.5,802.51,848.13,693.16Z"/><path class="cls-27" d="M811.39,754.17c-47.62.75-127.09-1.62-237.46-15.64-16.71-2.13-32.93-4.24-48.53-6.37C410.45,716.47,328.84,700,331.21,675.21c1.93-20.29,31-33.8,65.38-43.88,13.13-3.85,27-7.2,40.53-10.24,62.22-14,172.71-30.5,265.75-45.1,17.36-2.73,34.12-5.38,49.85-8,90.34-14.73,163.9-28.16,222.17-42.38,123.37-30.09,178.17-63.68,178.17-120.51,0-3-.13-5.93-.37-8.76-4.59-53.86-52.9-75.07-151-94.76-39.8-8-87.77-15.72-144.36-25.29-18.16-3.07-36.46-6.1-54.7-9.11-47.33-7.81-94.2-15.39-137.06-22.71-61.3-10.46-114.4-20.39-148.9-29.66-26.79-7.19-42.39-14-41.9-20.32.47-6,6.2-13.66,24.19-21,15.57-6.34,40.3-12.43,78.77-17,32.62-3.84,75.09-6.57,130.21-7.39-52.3-5.48-103.47-7.88-147.71-6-33.27,1.38-62.61,5.16-85.53,11.88-24,7-40.93,17.22-48,31.21-12.1,23.87.1,42.94,17.7,52.57,8.79,4.82,17.74,9.2,27,13.25,41.48,18.08,90,29.45,164,42.29,42.5,7.37,93.41,15.23,156.17,25.12l22.89,3.61c64,10.12,116.34,18.05,156.57,26,65.12,12.84,98.28,25.73,96.68,48a24.43,24.43,0,0,1-.8,4.84c-6,21.65-70,34.52-161.68,45.54C834.15,456,746.52,463.42,656.5,473c-41.23,4.38-82.94,9.2-123.8,14.78C424.11,502.58,339.25,519.88,278.22,545c-76.76,31.61-115.79,75.62-116.75,142.75C160,792,282.83,848.06,419.38,878.39c108.16,24,227.31,32.41,297.63,35.18l-57.33,96.83,483.83-208.48L848.65,691.25Z"/><path class="cls-28" d="M811.91,752.26c-47.62.76-124.67-1.08-235-15.1-16.71-2.12-32.93-4.24-48.54-6.37-114.94-15.69-196.55-32.11-194.19-56.94,1.94-20.3,31-33.8,65.38-43.89,13.14-3.85,27.05-7.2,40.54-10.24,62.22-14,172.7-30.5,265.74-45.1,17.37-2.72,34.13-5.38,49.85-7.94,90.35-14.74,163.9-28.17,222.18-42.38C1101.2,494.21,1156,460.62,1156,403.79q0-4.53-.38-8.77c-4.58-53.86-52.89-75.07-151-94.76-39.8-8-87.77-15.72-144.36-25.28-18.17-3.07-36.47-6.11-54.7-9.12-47.33-7.8-94.2-15.39-137.07-22.71-61.29-10.46-114.39-20.39-148.89-29.65-26.8-7.2-42.39-14-41.9-20.33.47-6,6.2-13.65,24.19-21,15.57-6.34,40.3-12.43,78.77-17,32.62-3.84,75.09-6.57,130.21-7.39-52.3-5.48-103.47-7.88-147.71-6-33.27,1.39-62.62,5.17-85.53,11.88-24,7-40.93,17.22-48,31.21-12.1,23.87.09,42.94,17.7,52.58,8.79,4.81,17.74,9.2,27,13.25,41.49,18.07,90,29.45,164,42.28,42.51,7.37,93.42,15.23,156.18,25.12l22.88,3.61c64,10.13,116.34,18.06,156.58,26,65.12,12.84,98.28,25.73,96.68,48a25.18,25.18,0,0,1-.8,4.84c-6,21.65-70,34.52-161.69,45.54-71,8.55-158.68,16-248.71,25.55-41.22,4.38-82.94,9.2-123.8,14.78-108.58,14.83-193.44,32.12-254.47,57.25-76.76,31.61-115.79,75.62-116.75,142.75-1.5,104.2,121.36,160.3,257.91,190.63,108.15,24,224.89,31.87,295.21,34.65l-57.33,96.82,483.32-207.16-294.36-112Z"/></g><g class="cls-1"><path class="cls-29" d="M710.69,148V135.67s-91-.49-141.87,6.4l11.66,13.27C613.1,151.49,655.58,148.76,710.69,148Z"/><path class="cls-30" d="M580.48,155.34v-12.2c-33.26,1.38-80.11,13.88-103,20.59l24.27,8.57C517.28,166,542,159.87,580.48,155.34Z"/><path class="cls-31" d="M477.53,203.23c.46-6,6.19-23.6,24.19-30.93V160.1l-24.27,3.63c-24,7-52.88,27.2-52.88,27.2s.11,12.28,0,17.9c-.3,15.33,9.68,25.64,22.56,32.7,8.79,4.81,17.74,9.19,27,13.24l45.25-31.21C492.63,216.37,477,209.57,477.53,203.23Z"/><path class="cls-32" d="M519.42,223.56l-45.22,14.3,0,16.91c41.48,18.08,90,29.45,164,42.29l30.16-43.84C607,242.75,553.93,232.82,519.42,223.56Z"/><path class="cls-33" d="M668.32,253.22,638.16,280.9v16.16c42.5,7.37,93.41,15.23,156.17,25.12l11.06-46.26C758.05,268.12,711.19,260.54,668.32,253.22Z"/><path class="cls-34" d="M1155.84,413.85V391.79s-60.1,14.08-85.37,13.95a24.16,24.16,0,0,1-.79,4.84c-6,21.65-70.05,34.52-161.69,45.55l69.68,75.41C1101.05,501.45,1155.84,470.68,1155.84,413.85Z"/><path class="cls-35" d="M535.48,496.45C426.89,511.28,342,528.57,281,553.7c43.66,30.84,91.16,63.2,118.36,83.51,13.13-3.85,27-7.2,40.54-10.24,62.22-14,172.7-30.5,265.74-45.1l0-19.39-46.32-80.81C618.06,486.05,576.34,490.87,535.48,496.45Z"/><path class="cls-36" d="M164.25,696.46c-1.49,104.2,121.37,160.29,257.91,190.62l106-146.23C413.23,725.16,331.62,708.74,334,683.91c1.93-20.29,31-36.62,65.38-46.7,0-5.78-.35-19.42-.35-19.42s-80-37.23-118-64.09c-70.59,29.07-116.76,121.74-116.76,121.74S164.33,691.06,164.25,696.46Z"/><path class="cls-37" d="M777.7,923.37c2.49.06,74-86.4,93-163.1-9.77-1.24-101.08,11.46-294-13q-25.08-3.18-48.54-6.37L422.41,864.75l-.25,22.33C576.34,921.32,748,922.71,777.7,923.37Z"/><path class="cls-38" d="M977.67,531.54V512.21L908,456.13c-71,8.54-158.69,16-248.71,25.54l46.32,80.81,0,19.39c17.36-2.73,34.13-5.38,49.85-8C845.84,559.19,919.4,545.76,977.67,531.54Z"/><path class="cls-39" d="M860.08,285c-18.16-3.07-36.46-6.11-54.69-9.12L794.33,306v16.16l22.89,3.61c64,10.13,116.34,18,156.58,26l30.64-41.46C964.65,302.34,916.67,294.6,860.08,285Z"/><path class="cls-40" d="M1155.47,405.08c-4.59-53.86-52.9-75.07-151-94.76l-30.64,25.3v16.16c65.11,12.84,98.28,31.72,96.67,54C1095.74,405.87,1132.31,405.42,1155.47,405.08Z"/><polygon class="cls-41" points="849.01 704.68 660.05 996.4 660.05 1023.83 1143.36 816.67 1143.36 789.24 849.01 704.68"/><path class="cls-42" d="M164.25,674.31c-1.49,104.2,121.37,160.29,257.91,190.62l106-146.23C413.23,703,331.62,686.59,334,661.76c1.93-20.29,31-33.8,65.38-43.89-27.2-20.31-74.7-55.48-118.36-86.32C204.25,563.16,165.22,607.17,164.25,674.31Z"/><path class="cls-29" d="M710.69,135.75c-52.3-5.49-103.46-7.89-147.71-6.05l17.5,13.44C613.1,139.29,655.58,136.56,710.69,135.75Z"/><path class="cls-43" d="M777.7,901.22c2.49.06,74-86.4,93-163.1-9.77-1.24-101.08,11.46-294-13q-25.08-3.18-48.54-6.37l-106,146.23C576.34,899.17,748,900.56,777.7,901.22Z"/><path class="cls-44" d="M535.48,474.3C426.89,489.13,342,506.42,281,531.55c43.66,30.84,91.16,66,118.36,86.32,13.13-3.84,27-7.2,40.54-10.24,62.22-14,172.7-30.5,265.74-45.1l-46.37-103C618.06,463.9,576.34,468.72,535.48,474.3Z"/><path class="cls-45" d="M1155.84,391.7c0-3-.13-5.93-.37-8.77-23.16.34-59.73.79-85,.66a24.16,24.16,0,0,1-.79,4.84C1063.69,410.08,999.63,423,908,434l69.68,78.24C1101.05,482.12,1155.84,448.53,1155.84,391.7Z"/><path class="cls-46" d="M860.08,262.89c-18.16-3.07-36.46-6.11-54.69-9.12L794.33,306l22.89,3.61c64,10.13,116.34,18.06,156.58,26l30.64-47.45C964.65,280.19,916.67,272.45,860.08,262.89Z"/><path class="cls-47" d="M1155.47,382.93c-4.59-53.86-52.9-75.07-151-94.76L973.8,335.62c65.11,12.85,98.28,25.73,96.67,48C1095.74,383.72,1132.31,383.27,1155.47,382.93Z"/><path class="cls-48" d="M977.67,512.21,908,434c-71,8.55-158.69,16-248.71,25.55l46.37,103c17.36-2.72,34.13-5.38,49.85-7.94C845.84,539.85,919.4,526.42,977.67,512.21Z"/><path class="cls-49" d="M477.53,181.08c.46-6,6.19-13.65,24.19-21l-24.27-18.52c-24,7-40.93,17.23-48,31.21-12.1,23.87.1,42.94,17.7,52.58,8.79,4.82,17.74,9.2,27,13.25l45.25-37.21C492.63,194.22,477,187.42,477.53,181.08Z"/><path class="cls-50" d="M580.48,143.14,563,129.7c-33.26,1.39-62.61,5.17-85.53,11.88l24.27,18.52C517.28,153.76,542,147.67,580.48,143.14Z"/><path class="cls-51" d="M668.32,231.07,638.16,280.9c42.5,7.37,93.41,15.23,156.17,25.12l11.06-52.25C758.05,246,711.19,238.39,668.32,231.07Z"/><path class="cls-52" d="M519.42,201.41l-45.25,37.21c41.48,18.07,90,29.45,164,42.28l30.16-49.83C607,220.6,553.93,210.67,519.42,201.41Z"/><polygon class="cls-53" points="849.01 677.26 660.05 996.41 1143.36 789.24 849.01 677.26"/><path class="cls-54" d="M408.69,704.73s207.79,36.69,390.92,41C703.24,848,508.17,795.51,408.69,704.73Z"/><path class="cls-55" d="M1070.32,305.55c51.11,15.09,95.8,46.75,80,107-13,49.62-80.08,67.21-112.42,78.32C1104.14,451.68,1147.83,344.71,1070.32,305.55Z"/><polygon class="cls-56" points="854.08 687.38 801.24 782.63 1121.94 789.39 854.08 687.38"/><path class="cls-57" d="M453,152.39c-12,5.8-26.69,19.75-27.12,37.54s14.66,33.75,38.36,40.8C453,209.58,445.46,185.14,453,152.39Z"/></g><g class="cls-1"><g class="cls-58"><ellipse class="cls-59" cx="278.76" cy="753.67" rx="92.64" ry="22.04"/><ellipse class="cls-60" cx="280.11" cy="753.41" rx="89.51" ry="21.29"/><ellipse class="cls-61" cx="281.45" cy="753.14" rx="86.38" ry="20.55"/><ellipse class="cls-62" cx="282.8" cy="752.88" rx="83.24" ry="19.8"/><ellipse class="cls-63" cx="284.15" cy="752.61" rx="80.11" ry="19.06"/><ellipse class="cls-64" cx="285.49" cy="752.35" rx="76.98" ry="18.31"/><ellipse class="cls-65" cx="286.84" cy="752.08" rx="73.85" ry="17.57"/><ellipse class="cls-66" cx="288.18" cy="751.82" rx="70.72" ry="16.82"/><ellipse class="cls-67" cx="289.53" cy="751.55" rx="67.58" ry="16.08"/><ellipse class="cls-68" cx="290.88" cy="751.29" rx="64.45" ry="15.33"/><ellipse class="cls-69" cx="292.22" cy="751.02" rx="61.32" ry="14.59"/><ellipse class="cls-70" cx="293.57" cy="750.76" rx="58.19" ry="13.84"/><ellipse class="cls-71" cx="294.91" cy="750.49" rx="55.06" ry="13.1"/><ellipse class="cls-72" cx="296.26" cy="750.23" rx="51.93" ry="12.35"/><ellipse class="cls-73" cx="297.6" cy="749.96" rx="48.79" ry="11.61"/><path class="cls-74" d="M344.61,749.7c0,6-20.44,10.86-45.66,10.86s-45.66-4.86-45.66-10.86,20.44-10.86,45.66-10.86S344.61,743.7,344.61,749.7Z"/><path class="cls-75" d="M342.83,749.43c0,5.59-19,10.12-42.53,10.12s-42.53-4.53-42.53-10.12,19-10.11,42.53-10.11S342.83,743.85,342.83,749.43Z"/><path class="cls-76" d="M341,749.17c0,5.18-17.64,9.37-39.4,9.37s-39.4-4.19-39.4-9.37,17.64-9.37,39.4-9.37S341,744,341,749.17Z"/><path class="cls-77" d="M339.26,748.9c0,4.77-16.24,8.63-36.27,8.63s-36.27-3.86-36.27-8.63S283,740.28,303,740.28,339.26,744.14,339.26,748.9Z"/><path class="cls-78" d="M337.47,748.64c0,4.35-14.83,7.88-33.14,7.88S271.2,753,271.2,748.64s14.83-7.88,33.13-7.88S337.47,744.29,337.47,748.64Z"/><path class="cls-79" d="M335.69,748.37c0,4-13.44,7.14-30,7.14s-30-3.19-30-7.14,13.43-7.13,30-7.13S335.69,744.43,335.69,748.37Z"/><path class="cls-80" d="M333.9,748.11c0,3.53-12,6.39-26.87,6.39s-26.88-2.86-26.88-6.39,12-6.39,26.88-6.39S333.9,744.58,333.9,748.11Z"/><path class="cls-81" d="M332.11,747.84c0,3.12-10.63,5.65-23.74,5.65s-23.74-2.53-23.74-5.65,10.63-5.64,23.74-5.64S332.11,744.73,332.11,747.84Z"/><path class="cls-82" d="M330.33,747.58c0,2.71-9.23,4.9-20.61,4.9s-20.61-2.19-20.61-4.9,9.23-4.9,20.61-4.9S330.33,744.87,330.33,747.58Z"/><path class="cls-83" d="M328.54,747.31c0,2.3-7.82,4.16-17.48,4.16s-17.47-1.86-17.47-4.16,7.82-4.15,17.47-4.15S328.54,745,328.54,747.31Z"/><path class="cls-84" d="M326.76,747.05c0,1.88-6.43,3.41-14.35,3.41s-14.35-1.53-14.35-3.41,6.43-3.41,14.35-3.41S326.76,745.16,326.76,747.05Z"/><path class="cls-85" d="M325,746.78c0,1.48-5,2.67-11.21,2.67s-11.22-1.19-11.22-2.67,5-2.66,11.22-2.66S325,745.31,325,746.78Z"/></g><path class="cls-86" d="M415.1,482.54c-19.4-55.58-78.83-84.42-132.74-64.43S200.47,499.37,219.87,555a110,110,0,0,0,6.23,14.41L305,747.19h10l90.55-172A109.58,109.58,0,0,0,415.1,482.54Z"/><path class="cls-87" d="M425.1,482.54c-19.4-55.58-78.82-84.42-132.73-64.43S210.48,499.37,229.87,555a110,110,0,0,0,6.23,14.41L315,747.19l100.56-172A109.58,109.58,0,0,0,425.1,482.54Z"/><path class="cls-88" d="M400.46,495.13c14.8,42.4-6.54,89.15-47.68,104.4s-86.48-6.75-101.28-49.15,6.55-89.15,47.69-104.41S385.66,452.72,400.46,495.13Z"/><ellipse class="cls-89" cx="325.98" cy="522.75" rx="69.02" ry="71.15"/></g><g class="cls-1"><g class="cls-58"><ellipse class="cls-90" cx="886.58" cy="291.84" rx="92.64" ry="22.04"/><ellipse class="cls-91" cx="887.23" cy="291.92" rx="89.51" ry="21.29"/><ellipse class="cls-92" cx="887.89" cy="292" rx="86.38" ry="20.55"/><path class="cls-93" d="M971.78,292.08c0,10.94-37.27,19.8-83.24,19.8S805.3,303,805.3,292.08s37.26-19.81,83.24-19.81S971.78,281.14,971.78,292.08Z"/><path class="cls-94" d="M969.3,292.16c0,10.52-35.86,19-80.11,19s-80.11-8.53-80.11-19S845,273.1,889.19,273.1,969.3,281.63,969.3,292.16Z"/><path class="cls-95" d="M966.82,292.23c0,10.12-34.46,18.32-77,18.32s-77-8.2-77-18.32,34.47-18.31,77-18.31S966.82,282.12,966.82,292.23Z"/><path class="cls-96" d="M964.34,292.31c0,9.71-33.06,17.57-73.85,17.57s-73.84-7.86-73.84-17.57,33.06-17.57,73.84-17.57S964.34,282.61,964.34,292.31Z"/><path class="cls-97" d="M961.86,292.39c0,9.29-31.66,16.82-70.71,16.82s-70.72-7.53-70.72-16.82,31.66-16.82,70.72-16.82S961.86,283.1,961.86,292.39Z"/><path class="cls-98" d="M959.38,292.47c0,8.88-30.26,16.08-67.58,16.08s-67.59-7.2-67.59-16.08,30.26-16.08,67.59-16.08S959.38,283.59,959.38,292.47Z"/><path class="cls-99" d="M956.9,292.55c0,8.46-28.85,15.33-64.45,15.33S828,301,828,292.55s28.85-15.34,64.45-15.34S956.9,284.08,956.9,292.55Z"/><path class="cls-100" d="M954.42,292.62c0,8.06-27.45,14.59-61.32,14.59s-61.32-6.53-61.32-14.59S859.24,278,893.1,278,954.42,284.57,954.42,292.62Z"/><path class="cls-101" d="M951.94,292.7c0,7.65-26.05,13.85-58.19,13.85s-58.19-6.2-58.19-13.85,26.06-13.84,58.19-13.84S951.94,285.06,951.94,292.7Z"/><path class="cls-102" d="M949.46,292.78c0,7.23-24.65,13.1-55.05,13.1s-55.06-5.87-55.06-13.1,24.65-13.1,55.06-13.1S949.46,285.55,949.46,292.78Z"/><path class="cls-103" d="M947,292.86c0,6.82-23.25,12.35-51.93,12.35s-51.93-5.53-51.93-12.35,23.25-12.35,51.93-12.35S947,286,947,292.86Z"/><path class="cls-104" d="M944.51,292.94c0,6.41-21.85,11.61-48.8,11.61s-48.79-5.2-48.79-11.61,21.84-11.61,48.79-11.61S944.51,286.53,944.51,292.94Z"/><path class="cls-105" d="M942,293c0,6-20.45,10.87-45.67,10.87S850.7,299,850.7,293s20.44-10.86,45.66-10.86S942,287,942,293Z"/><path class="cls-106" d="M939.55,293.09c0,5.59-19,10.12-42.54,10.12s-42.53-4.53-42.53-10.12S873.53,283,897,283,939.55,287.5,939.55,293.09Z"/><path class="cls-107" d="M937.07,293.17c0,5.18-17.64,9.37-39.4,9.37s-39.4-4.19-39.4-9.37,17.64-9.37,39.4-9.37S937.07,288,937.07,293.17Z"/><path class="cls-108" d="M934.59,293.25c0,4.76-16.24,8.63-36.27,8.63s-36.27-3.87-36.27-8.63,16.24-8.63,36.27-8.63S934.59,288.48,934.59,293.25Z"/><path class="cls-109" d="M932.11,293.33c0,4.35-14.84,7.88-33.14,7.88s-33.14-3.53-33.14-7.88,14.84-7.89,33.14-7.89S932.11,289,932.11,293.33Z"/><path class="cls-110" d="M929.63,293.4c0,4-13.44,7.14-30,7.14s-30-3.19-30-7.14,13.43-7.13,30-7.13S929.63,289.46,929.63,293.4Z"/><path class="cls-111" d="M927.15,293.48c0,3.53-12,6.4-26.88,6.4s-26.87-2.87-26.87-6.4,12-6.39,26.87-6.39S927.15,290,927.15,293.48Z"/><path class="cls-112" d="M924.67,293.56c0,3.12-10.63,5.65-23.74,5.65s-23.74-2.53-23.74-5.65,10.62-5.65,23.74-5.65S924.67,290.44,924.67,293.56Z"/><path class="cls-113" d="M922.19,293.64c0,2.71-9.23,4.9-20.61,4.9S881,296.35,881,293.64s9.23-4.9,20.61-4.9S922.19,290.93,922.19,293.64Z"/><path class="cls-114" d="M919.71,293.72c0,2.29-7.83,4.16-17.48,4.16s-17.48-1.87-17.48-4.16,7.83-4.16,17.48-4.16S919.71,291.42,919.71,293.72Z"/><path class="cls-115" d="M917.23,293.8c0,1.88-6.42,3.41-14.35,3.41s-14.34-1.53-14.34-3.41,6.42-3.42,14.34-3.42S917.23,291.91,917.23,293.8Z"/><path class="cls-116" d="M914.75,293.87c0,1.48-5,2.67-11.22,2.67s-11.21-1.19-11.21-2.67,5-2.66,11.21-2.66S914.75,292.4,914.75,293.87Z"/></g><path class="cls-117" d="M967.7,126.5C955.5,91.55,918.14,73.42,884.24,86S832.76,137.08,845,172a66.89,66.89,0,0,0,3.92,9.06l49.6,111.82h6.29l56.93-108.12A68.92,68.92,0,0,0,967.7,126.5Z"/><path class="cls-118" d="M974,126.5C961.79,91.55,924.43,73.42,890.53,86S839,137.08,851.24,172a68.14,68.14,0,0,0,3.91,9.06L904.76,292.9,968,184.78A68.92,68.92,0,0,0,974,126.5Z"/><ellipse class="cls-119" cx="911.67" cy="151.78" rx="49.77" ry="51.31"/><path class="cls-120" d="M952.5,136.63c8.12,23.25-3.59,48.88-26.14,57.25s-47.41-3.7-55.53-26.95,3.59-48.88,26.15-57.25S944.39,113.39,952.5,136.63Z"/></g><g class="cls-1"><g class="cls-58"><ellipse class="cls-121" cx="740.56" cy="518.35" rx="92.64" ry="22.04"/><ellipse class="cls-122" cx="741.9" cy="518.09" rx="89.51" ry="21.29"/><ellipse class="cls-123" cx="743.25" cy="517.82" rx="86.38" ry="20.55"/><ellipse class="cls-124" cx="744.6" cy="517.56" rx="83.24" ry="19.8"/><ellipse class="cls-125" cx="745.94" cy="517.29" rx="80.11" ry="19.06"/><ellipse class="cls-126" cx="747.29" cy="517.03" rx="76.98" ry="18.31"/><ellipse class="cls-127" cx="748.63" cy="516.76" rx="73.85" ry="17.57"/><ellipse class="cls-128" cx="749.98" cy="516.5" rx="70.72" ry="16.82"/><ellipse class="cls-129" cx="751.33" cy="516.23" rx="67.58" ry="16.08"/><ellipse class="cls-130" cx="752.67" cy="515.97" rx="64.45" ry="15.33"/><ellipse class="cls-131" cx="754.02" cy="515.7" rx="61.32" ry="14.59"/><ellipse class="cls-132" cx="755.36" cy="515.44" rx="58.19" ry="13.84"/><ellipse class="cls-133" cx="756.71" cy="515.17" rx="55.06" ry="13.1"/><ellipse class="cls-134" cx="758.06" cy="514.91" rx="51.93" ry="12.35"/><ellipse class="cls-135" cx="759.4" cy="514.64" rx="48.79" ry="11.61"/><ellipse class="cls-136" cx="760.75" cy="514.38" rx="45.66" ry="10.86"/><ellipse class="cls-137" cx="762.09" cy="514.11" rx="42.53" ry="10.12"/><ellipse class="cls-138" cx="763.44" cy="513.85" rx="39.4" ry="9.37"/><ellipse class="cls-139" cx="764.79" cy="513.58" rx="36.27" ry="8.63"/><ellipse class="cls-140" cx="766.13" cy="513.32" rx="33.14" ry="7.88"/><ellipse class="cls-141" cx="767.48" cy="513.05" rx="30" ry="7.14"/><ellipse class="cls-142" cx="768.82" cy="512.79" rx="26.87" ry="6.39"/><ellipse class="cls-143" cx="770.17" cy="512.52" rx="23.74" ry="5.65"/><ellipse class="cls-144" cx="771.51" cy="512.26" rx="20.61" ry="4.9"/><ellipse class="cls-145" cx="772.86" cy="511.99" rx="17.48" ry="4.16"/><ellipse class="cls-146" cx="774.21" cy="511.73" rx="14.35" ry="3.41"/><ellipse class="cls-147" cx="775.55" cy="511.46" rx="11.21" ry="2.67"/></g><path class="cls-148" d="M848.9,322.58c-14-40.07-56.83-60.87-95.7-46.45s-59,58.59-45.06,98.66a79.94,79.94,0,0,0,4.49,10.39L769.51,513.4h7.22l65.28-124A79,79,0,0,0,848.9,322.58Z"/><path class="cls-149" d="M856.12,322.58c-14-40.07-56.84-60.87-95.71-46.45s-59,58.59-45.06,98.66a79.94,79.94,0,0,0,4.49,10.39L776.73,513.4l72.5-124A79,79,0,0,0,856.12,322.58Z"/><ellipse class="cls-150" cx="784.03" cy="351.58" rx="57.07" ry="58.84"/><ellipse class="cls-151" cx="784.65" cy="351.58" rx="49.77" ry="51.3"/></g><rect class="cls-152" width="1920" height="1080"/><g class="cls-1"><path class="cls-35" d="M126.25,824.74c-33.08,10.71-58.93,23.2-77.52,41.35C62,888.36,76.5,911.73,84.78,926.4A123.91,123.91,0,0,1,97.13,919c19-10.12,52.61-22,81-32.58l0-14L164,814.07C151.4,817.23,138.69,820.71,126.25,824.74Z"/><path class="cls-36" d="M13.16,969.19c-.45,75.26,37,115.78,78.57,137.68L124,1001.26c-35-11.33-59.87-23.19-59.15-41.13.59-14.65,9.43-26.44,19.91-33.73,0-4.17-.1-14-.1-14s-24.36-26.89-36-46.29C27.23,887.09,13.16,954,13.16,954S13.19,965.3,13.16,969.19Z"/><path class="cls-153" d="M200,1133.08c.76,0,22.55-62.4,28.35-117.79-3-.9-30.79,8.27-89.57-9.43q-7.63-2.29-14.79-4.6L91.8,1090.75l-.07,16.12C138.69,1131.6,191,1132.6,200,1133.08Z"/><path class="cls-38" d="M261,850.09v-14l-21.23-40.5c-21.64,6.17-48.34,11.55-75.76,18.45l14.11,58.36,0,14c5.29-2,10.39-3.88,15.18-5.73C220.79,870.06,243.2,860.35,261,850.09Z"/><polygon class="cls-154" points="221.76 975.14 164.19 1185.83 164.19 1205.64 311.42 1056.02 311.42 1036.21 221.76 975.14"/><polygon class="cls-155" points="221.76 955.33 164.19 1185.83 311.42 1036.21 221.76 955.33"/><path class="cls-156" d="M87.62,975.17s63.3,26.5,119.09,29.6C177.35,1078.62,117.93,1040.73,87.62,975.17Z"/><path class="cls-157" d="M289.17,686.86c15.57,10.91,29.19,33.77,24.38,77.27-4,35.83-24.4,48.54-34.25,56.56C299.48,792.41,312.79,715.15,289.17,686.86Z"/><polygon class="cls-158" points="223.3 962.64 207.21 1031.44 304.9 1036.31 223.3 962.64"/><path class="cls-159" d="M101.13,576.25c-3.65,4.19-8.13,14.26-8.26,27.11s4.47,24.38,11.69,29.47A171,171,0,0,1,101.13,576.25Z"/></g></svg>