<svg id="Layer_1" data-name="Layer 1" xmlns="http://www.w3.org/2000/svg" xmlns:xlink="http://www.w3.org/1999/xlink" viewBox="0 0 3400 2488"><defs><style>.cls-1{fill:none;}.cls-2{clip-path:url(#clip-path);}.cls-3{fill:#e3ffd2;}.cls-4{fill:#fff;}</style><clipPath id="clip-path" transform="translate(2968.15 97)"><rect class="cls-1" x="-1231" y="-82" width="1125" height="2436"/></clipPath></defs><title>bg-alur-mobile</title><g class="cls-2"><rect class="cls-3" width="3400" height="2488"/><path class="cls-4" d="M-106,2391c-35.86-298.7-274-529.5-562.43-529.5s-526.56,230.8-562.43,529.5Z" transform="translate(2968.15 97)"/><path class="cls-4" d="M-62,1289.75V782.86a229.68,229.68,0,0,0-64.87-9.3C-262.25,773.56-372,891.19-372,1036.3s109.75,262.75,245.13,262.75A229.68,229.68,0,0,0-62,1289.75Z" transform="translate(2968.15 97)"/><path class="cls-4" d="M-604.15,100.5c0-73.81-22.2-142.06-59.84-197.5H-1171.3c-37.65,55.44-59.85,123.69-59.85,197.5a356.31,356.31,0,0,0,20.64,120.14c45.1,126.25,159.21,215.89,292.86,215.89s247.76-89.64,292.87-215.89A356.55,356.55,0,0,0-604.15,100.5Z" transform="translate(2968.15 97)"/><path class="cls-4" d="M-2000.15,2332.05c0-97.08-73.43-175.79-164-175.79s-164,78.71-164,175.79a186.88,186.88,0,0,0,9.45,58.95h309.1A186.88,186.88,0,0,0-2000.15,2332.05Z" transform="translate(2968.15 97)"/><ellipse class="cls-4" cx="2930" cy="894.14" rx="24" ry="25.72"/><ellipse class="cls-4" cx="3140" cy="1791.29" rx="24" ry="25.72"/><ellipse class="cls-4" cx="1242" cy="2286.49" rx="24" ry="25.72"/></g></svg>