<svg id="Layer_1" data-name="Layer 1" xmlns="http://www.w3.org/2000/svg" xmlns:xlink="http://www.w3.org/1999/xlink" viewBox="0 0 1068 2292.97"><defs><style>.cls-1{opacity:0.06;}.cls-2{fill:#8ea3ae;}.cls-121,.cls-2,.cls-59,.cls-90{opacity:0;}.cls-3{fill:#8da2ad;}.cls-122,.cls-3,.cls-60,.cls-91{opacity:0.04;}.cls-4{fill:#8ca0ab;}.cls-123,.cls-4,.cls-61,.cls-92{opacity:0.08;}.cls-5{fill:#8b9faa;}.cls-124,.cls-5,.cls-62,.cls-93{opacity:0.12;}.cls-6{fill:#8a9ea9;}.cls-125,.cls-6,.cls-63,.cls-94{opacity:0.15;}.cls-7{fill:#899da7;}.cls-126,.cls-64,.cls-7,.cls-95{opacity:0.19;}.cls-8{fill:#889ba6;}.cls-127,.cls-65,.cls-8,.cls-96{opacity:0.23;}.cls-9{fill:#869aa5;}.cls-128,.cls-66,.cls-9,.cls-97{opacity:0.27;}.cls-10{fill:#8599a3;}.cls-10,.cls-129,.cls-67,.cls-98{opacity:0.31;}.cls-11{fill:#8498a2;}.cls-11,.cls-130,.cls-68,.cls-99{opacity:0.35;}.cls-12{fill:#8396a1;}.cls-100,.cls-12,.cls-131,.cls-69{opacity:0.38;}.cls-13{fill:#82959f;}.cls-101,.cls-13,.cls-132,.cls-70{opacity:0.42;}.cls-14{fill:#81949e;}.cls-102,.cls-133,.cls-14,.cls-71{opacity:0.46;}.cls-15{fill:#80939d;}.cls-103,.cls-134,.cls-15,.cls-72{opacity:0.5;}.cls-16{fill:#7f919b;}.cls-104,.cls-135,.cls-16,.cls-73{opacity:0.54;}.cls-17{fill:#7e909a;}.cls-105,.cls-136,.cls-17,.cls-74{opacity:0.58;}.cls-18{fill:#7d8f98;}.cls-106,.cls-137,.cls-18,.cls-75{opacity:0.62;}.cls-19{fill:#7c8d97;}.cls-107,.cls-138,.cls-19,.cls-76{opacity:0.65;}.cls-20{fill:#7b8c96;}.cls-108,.cls-139,.cls-20,.cls-77{opacity:0.69;}.cls-21{fill:#7a8b94;}.cls-109,.cls-140,.cls-21,.cls-78{opacity:0.73;}.cls-22{fill:#788a93;}.cls-110,.cls-141,.cls-22,.cls-79{opacity:0.77;}.cls-23{fill:#778892;}.cls-111,.cls-142,.cls-23,.cls-80{opacity:0.81;}.cls-24{fill:#768790;}.cls-112,.cls-143,.cls-24,.cls-81{opacity:0.85;}.cls-25{fill:#75868f;}.cls-113,.cls-144,.cls-25,.cls-82{opacity:0.88;}.cls-26{fill:#74858e;}.cls-114,.cls-145,.cls-26,.cls-83{opacity:0.92;}.cls-27{fill:#73838c;}.cls-115,.cls-146,.cls-27,.cls-84{opacity:0.96;}.cls-28{fill:#72828b;}.cls-29{fill:#002a21;}.cls-30{fill:#023229;}.cls-31{fill:#155245;}.cls-32{fill:#014354;}.cls-33{fill:#1e7b8f;}.cls-34{fill:#611d55;}.cls-35{fill:#b6470c;}.cls-36,.cls-59{fill:#df5300;}.cls-37{fill:url(#linear-gradient);}.cls-38{fill:#973f75;}.cls-39{fill:#2e2662;}.cls-40{fill:#493e71;}.cls-41{fill:url(#linear-gradient-2);}.cls-42{fill:url(#linear-gradient-3);}.cls-43{fill:url(#linear-gradient-4);}.cls-44{fill:url(#linear-gradient-5);}.cls-45{fill:url(#linear-gradient-6);}.cls-46{fill:url(#linear-gradient-7);}.cls-47{fill:url(#linear-gradient-8);}.cls-48{fill:url(#linear-gradient-9);}.cls-49{fill:#257b69;}.cls-50{fill:#155144;}.cls-51{fill:url(#linear-gradient-10);}.cls-52{fill:url(#linear-gradient-11);}.cls-53{fill:url(#linear-gradient-12);}.cls-54{fill:url(#linear-gradient-13);}.cls-55{fill:url(#linear-gradient-14);}.cls-56{fill:url(#linear-gradient-15);}.cls-57{fill:url(#linear-gradient-16);}.cls-58{opacity:0.58;}.cls-60{fill:#dd5200;}.cls-61{fill:#dc5101;}.cls-62{fill:#da5001;}.cls-63{fill:#d84f02;}.cls-64{fill:#d64e02;}.cls-65{fill:#d54d03;}.cls-66{fill:#d34b03;}.cls-67{fill:#d14a04;}.cls-68{fill:#cf4904;}.cls-69{fill:#ce4805;}.cls-70{fill:#cc4705;}.cls-71{fill:#ca4606;}.cls-72{fill:#c84506;}.cls-73{fill:#c74407;}.cls-74{fill:#c54307;}.cls-75{fill:#c34208;}.cls-76{fill:#c24108;}.cls-77{fill:#c04009;}.cls-78{fill:#be3f09;}.cls-79{fill:#bc3d0a;}.cls-80{fill:#bb3c0a;}.cls-81{fill:#b93b0b;}.cls-82{fill:#b73a0b;}.cls-83{fill:#b5390c;}.cls-84{fill:#b4380c;}.cls-85{fill:#b2370d;}.cls-86{fill:#ed911f;}.cls-87{fill:#fbda00;}.cls-88{fill:url(#linear-gradient-17);}.cls-120,.cls-151,.cls-89{fill:none;stroke-miterlimit:10;}.cls-89{stroke-width:1.16px;stroke:url(#linear-gradient-18);}.cls-100,.cls-101,.cls-102,.cls-103,.cls-104,.cls-105,.cls-106,.cls-107,.cls-108,.cls-109,.cls-110,.cls-111,.cls-112,.cls-113,.cls-114,.cls-115,.cls-116,.cls-90,.cls-91,.cls-92,.cls-93,.cls-94,.cls-95,.cls-96,.cls-97,.cls-98,.cls-99{fill:#1a0d36;}.cls-117{fill:#5f2e6d;}.cls-118{fill:#7c3d8f;}.cls-119{fill:url(#linear-gradient-19);}.cls-120{stroke:#7c3d8f;}.cls-120,.cls-151{stroke-width:1.01px;}.cls-121{fill:#721b43;}.cls-122{fill:#711b42;}.cls-123{fill:#701a42;}.cls-124{fill:#6f1a41;}.cls-125{fill:#6e1940;}.cls-126{fill:#6d193f;}.cls-127{fill:#6c193f;}.cls-128{fill:#6a183e;}.cls-129{fill:#69183d;}.cls-130{fill:#68183c;}.cls-131{fill:#67173c;}.cls-132{fill:#66173b;}.cls-133{fill:#65163a;}.cls-134{fill:#64163a;}.cls-135{fill:#631639;}.cls-136{fill:#621538;}.cls-137{fill:#611537;}.cls-138{fill:#601437;}.cls-139{fill:#5f1436;}.cls-140{fill:#5e1435;}.cls-141{fill:#5c1334;}.cls-142{fill:#5b1334;}.cls-143{fill:#5a1333;}.cls-144{fill:#591232;}.cls-145{fill:#581231;}.cls-146{fill:#571131;}.cls-147{fill:#561130;}.cls-148{fill:#bd5e88;}.cls-149{fill:#f3a1c6;}.cls-150{fill:url(#linear-gradient-20);}.cls-151{stroke:#bd5e88;}.cls-152{fill:url(#linear-gradient-21);}.cls-153{fill:url(#linear-gradient-22);}.cls-154{fill:url(#linear-gradient-23);}.cls-155{fill:url(#linear-gradient-24);}.cls-156{fill:url(#linear-gradient-25);}.cls-157{fill:url(#linear-gradient-26);}.cls-158{fill:url(#linear-gradient-27);}.cls-159{fill:url(#linear-gradient-28);}</style><linearGradient id="linear-gradient" x1="344.73" y1="1848.38" x2="443.37" y2="1860.1" gradientUnits="userSpaceOnUse"><stop offset="0" stop-color="#f0a100"/><stop offset="1" stop-color="#e76a15"/></linearGradient><linearGradient id="linear-gradient-2" x1="572.05" y1="1743.01" x2="1055.36" y2="1743.01" gradientUnits="userSpaceOnUse"><stop offset="0" stop-color="#f1841a"/><stop offset="0.04" stop-color="#f28a17"/><stop offset="0.23" stop-color="#f7a20a"/><stop offset="0.4" stop-color="#fab103"/><stop offset="0.54" stop-color="#fbb600"/><stop offset="0.66" stop-color="#fab103"/><stop offset="0.81" stop-color="#f7a30a"/><stop offset="0.96" stop-color="#f28b16"/><stop offset="1" stop-color="#f1841a"/></linearGradient><linearGradient id="linear-gradient-3" x1="275.95" y1="1972.14" x2="15.35" y2="1437.58" gradientUnits="userSpaceOnUse"><stop offset="0" stop-color="#f0a100"/><stop offset="1" stop-color="#f5ba00"/></linearGradient><linearGradient id="linear-gradient-4" x1="304.68" y1="1914.28" x2="480.21" y2="1710.74" gradientUnits="userSpaceOnUse"><stop offset="0" stop-color="#fbb600"/><stop offset="1" stop-color="#ffce00"/></linearGradient><linearGradient id="linear-gradient-5" x1="96.82" y1="1190.31" x2="454.31" y2="1126.42" gradientUnits="userSpaceOnUse"><stop offset="0" stop-color="#df5300"/><stop offset="1" stop-color="#ee7800"/></linearGradient><linearGradient id="linear-gradient-6" x1="657.46" y1="941.73" x2="905.32" y2="941.73" gradientUnits="userSpaceOnUse"><stop offset="0" stop-color="#a52196"/><stop offset="1" stop-color="#b0318a"/></linearGradient><linearGradient id="linear-gradient-7" x1="710.23" y1="597.02" x2="562.87" y2="560.3" gradientUnits="userSpaceOnUse"><stop offset="0" stop-color="#413892"/><stop offset="1" stop-color="#693c8f"/></linearGradient><linearGradient id="linear-gradient-8" x1="870.76" y1="748.44" x2="772.25" y2="640.22" gradientUnits="userSpaceOnUse"><stop offset="0" stop-color="#6959a5"/><stop offset="1" stop-color="#815da4"/></linearGradient><linearGradient id="linear-gradient-9" x1="408.75" y1="1061.9" x2="727.14" y2="1061.9" gradientUnits="userSpaceOnUse"><stop offset="0" stop-color="#c9509e"/><stop offset="1" stop-color="#df73ab"/></linearGradient><linearGradient id="linear-gradient-10" x1="387.63" y1="517.28" x2="554.86" y2="517.28" gradientUnits="userSpaceOnUse"><stop offset="0" stop-color="#69c8f3"/><stop offset="1" stop-color="#29b0cf"/></linearGradient><linearGradient id="linear-gradient-11" x1="401.56" y1="458.22" x2="241.39" y2="445.37" gradientUnits="userSpaceOnUse"><stop offset="0" stop-color="#007d9d"/><stop offset="1" stop-color="#29b0cf"/><stop offset="1" stop-color="#007d9d"/></linearGradient><linearGradient id="linear-gradient-12" x1="513.89" y1="1775.05" x2="905.17" y2="1526.22" gradientUnits="userSpaceOnUse"><stop offset="0" stop-color="#fbda00"/><stop offset="1" stop-color="#fff155"/></linearGradient><linearGradient id="linear-gradient-13" x1="358.82" y1="1576.62" x2="326.51" y2="1722.01" gradientUnits="userSpaceOnUse"><stop offset="0" stop-color="#fff"/><stop offset="1" stop-color="#fff" stop-opacity="0"/></linearGradient><linearGradient id="linear-gradient-14" x1="952.77" y1="826.14" x2="850.33" y2="825.13" xlink:href="#linear-gradient-13"/><linearGradient id="linear-gradient-15" x1="748.73" y1="1465.38" x2="717.04" y2="1687.18" gradientTransform="translate(156.12 -183.07) rotate(-0.28)" xlink:href="#linear-gradient-13"/><linearGradient id="linear-gradient-16" x1="142.9" y1="343.75" x2="202.21" y2="335.58" xlink:href="#linear-gradient-13"/><linearGradient id="linear-gradient-17" x1="284.23" y1="1425.69" x2="268.75" y2="1560.18" gradientTransform="translate(-373.68 263.52) rotate(-19.79)" gradientUnits="userSpaceOnUse"><stop offset="0" stop-color="#fff"/><stop offset="1" stop-color="#d8d8d8"/></linearGradient><linearGradient id="linear-gradient-18" x1="295.39" y1="1328.68" x2="272.95" y2="1523.68" gradientTransform="translate(-211.15 76.87) rotate(-19.79)" gradientUnits="userSpaceOnUse"><stop offset="0" stop-color="#f18700"/><stop offset="1" stop-color="#f1b800"/></linearGradient><linearGradient id="linear-gradient-19" x1="924.2" y1="505.64" x2="913.22" y2="601.09" gradientTransform="translate(-211.15 76.87) rotate(-19.79)" xlink:href="#linear-gradient-17"/><linearGradient id="linear-gradient-20" x1="630.79" y1="944.14" x2="618.9" y2="1047.5" gradientTransform="translate(-211.15 76.87) rotate(-19.79)" xlink:href="#linear-gradient-17"/><linearGradient id="linear-gradient-21" x1="-148.07" y1="1912.21" x2="-151.39" y2="1941.09" gradientTransform="translate(-211.15 76.87) rotate(-19.79)" xlink:href="#linear-gradient-17"/><linearGradient id="linear-gradient-22" x1="93.9" y1="2272.42" x2="123.95" y2="2275.99" xlink:href="#linear-gradient"/><linearGradient id="linear-gradient-23" x1="276.17" y1="2110.53" x2="423.4" y2="2110.53" xlink:href="#linear-gradient-2"/><linearGradient id="linear-gradient-24" x1="279.46" y1="2207.29" x2="398.65" y2="2131.49" xlink:href="#linear-gradient-12"/><linearGradient id="linear-gradient-25" x1="119.2" y1="2276.63" x2="109.35" y2="2320.92" xlink:href="#linear-gradient-13"/><linearGradient id="linear-gradient-26" x1="300.13" y1="2048.01" x2="268.92" y2="2047.71" xlink:href="#linear-gradient-13"/><linearGradient id="linear-gradient-27" x1="233.64" y1="2240.28" x2="223.98" y2="2307.85" gradientTransform="translate(156.12 -183.07) rotate(-0.28)" xlink:href="#linear-gradient-13"/><linearGradient id="linear-gradient-28" x1="53.42" y1="1901.07" x2="71.49" y2="1898.58" xlink:href="#linear-gradient-13"/></defs><title>bg-alur-mobile</title><g class="cls-1"><path class="cls-2" d="M547.91,1781.5c-47.62,1.8-187.59-35.7-298-68.94-16.71-5-32.93-10-48.54-15.1-114.95-37.2-196.55-76.14-194.19-135,1.93-48.11,31-80.13,65.38-104a404.67,404.67,0,0,1,40.54-24.28c62.22-33.22,172.7-72.32,265.74-106.93,17.37-6.46,34.13-12.76,49.85-18.84,90.35-34.93,163.9-66.78,222.18-100.48,123.37-71.34,178.17-151,178.17-285.71,0-7.16-.14-14.07-.38-20.79-4.58-127.69-52.9-178-151-224.66-39.8-18.93-87.78-37.27-144.36-60-18.17-7.28-36.47-14.48-54.7-21.61-47.33-18.5-94.2-36.48-137.07-53.84C280.26,516.51,227.16,493,192.65,471c-26.79-17.06-42.38-33.16-41.89-48.19.46-14.2,6.2-32.38,24.19-49.76,15.56-15,40.3-29.46,78.77-40.21,32.61-9.12,75.09-15.59,130.2-17.52-52.29-13-103.46-18.69-147.71-14.33-33.26,3.28-62.61,12.25-85.53,28.17-24,16.64-40.93,40.83-48,74-12.1,56.6.1,101.81,17.7,124.66a365.72,365.72,0,0,0,27,31.41c41.48,42.85,90,69.82,164,100.25C353.89,677,404.8,695.59,467.56,719l22.89,8.57c64,24,116.34,42.8,156.58,61.62,65.11,30.45,98.28,61,96.67,113.73-.11,3.73-.33,7.52-.79,11.48-6,51.32-70,81.83-161.69,108-71.05,20.26-158.69,37.91-248.71,60.58-41.22,10.38-82.94,21.81-123.8,35-108.59,35.15-193.45,76.16-254.47,135.74-76.76,74.94-115.79,179.29-116.76,338.45-1.49,247,121.37,380,257.91,452,108.16,57,287.82,108.7,358.14,115.28L396.2,2389l496.63-572.18L585.16,1632.34Z" transform="translate(162.53 -186.65)"/><path class="cls-3" d="M548.43,1777c-47.62,1.79-185.18-34.43-295.54-67.67q-25.08-7.54-48.54-15.1C89.4,1657,7.79,1618.08,10.16,1559.21c1.93-48.11,31-80.13,65.38-104a403.55,403.55,0,0,1,40.54-24.28c62.22-33.22,172.7-72.32,265.74-106.93,17.36-6.46,34.13-12.76,49.85-18.84,90.34-34.93,163.9-66.78,222.17-100.48C777.22,1133.3,832,1053.67,832,918.93c0-7.16-.13-14.07-.37-20.79-4.59-127.69-52.9-178-151-224.66-39.79-18.93-87.77-37.27-144.36-60-18.16-7.28-36.46-14.48-54.69-21.61-47.34-18.5-94.2-36.48-137.07-53.84-61.3-24.81-114.39-48.35-148.9-70.31-26.79-17.06-42.38-33.16-41.89-48.19.46-14.2,6.19-32.38,24.19-49.76,15.56-15,40.3-29.46,78.76-40.21,32.62-9.12,75.1-15.59,130.21-17.52-52.3-13-103.46-18.7-147.71-14.33C205.89,301,176.54,310,153.62,325.93c-24,16.64-40.93,40.83-48,74-12.1,56.6.1,101.81,17.7,124.66a364,364,0,0,0,27,31.41c41.48,42.85,90,69.82,164,100.25,42.5,17.48,93.41,36.11,156.17,59.55l22.89,8.57c64,24,116.34,42.8,156.58,61.62,65.11,30.45,98.28,61,96.67,113.73-.11,3.73-.33,7.52-.79,11.48-6,51.32-70.05,81.83-161.69,108-71,20.26-158.69,37.91-248.71,60.58-41.22,10.38-82.94,21.81-123.8,35-108.59,35.15-193.45,76.16-254.47,135.74-76.76,74.94-115.79,179.29-116.76,338.45-1.49,247,121.37,380,257.91,452,108.16,56.95,285.39,107.42,355.72,114l-57.33,229.57,496.12-569.07-307.16-187.6Z" transform="translate(162.53 -186.65)"/><path class="cls-4" d="M549,1772.47c-47.62,1.8-182.76-33.15-293.12-66.39q-25.08-7.55-48.54-15.1c-114.95-37.2-196.56-76.14-194.19-135,1.93-48.11,31-80.13,65.38-104A403.55,403.55,0,0,1,119,1427.65c62.22-33.22,172.7-72.32,265.74-106.93,17.36-6.46,34.12-12.76,49.85-18.84C525,1267,598.51,1235.1,656.78,1201.4,780.16,1130.06,835,1050.43,835,915.69c0-7.16-.13-14.07-.37-20.79-4.59-127.69-52.9-178-151-224.66-39.79-18.93-87.77-37.27-144.36-60-18.16-7.28-36.46-14.48-54.7-21.61-47.33-18.5-94.2-36.48-137.06-53.84C286.13,510,233,486.49,198.53,464.53c-26.79-17.06-42.39-33.16-41.9-48.19.47-14.2,6.2-32.38,24.2-49.76,15.56-15,40.3-29.46,78.76-40.21,32.62-9.12,75.1-15.59,130.21-17.52-52.3-13-103.47-18.7-147.71-14.33-33.26,3.28-62.61,12.25-85.53,28.17-24,16.64-40.93,40.83-48,74-12.1,56.6.1,101.81,17.7,124.66a365.48,365.48,0,0,0,27,31.41c41.48,42.85,90,69.82,164,100.25,42.5,17.48,93.41,36.11,156.17,59.55l22.89,8.57c64,24,116.34,42.8,156.57,61.62,65.12,30.45,98.29,61,96.68,113.73-.11,3.73-.33,7.52-.8,11.48-6,51.32-70,81.83-161.68,108-71.05,20.26-158.69,37.91-248.71,60.58-41.22,10.38-82.94,21.81-123.8,35C106,1146.68,21.14,1187.69-39.88,1247.27c-76.76,74.94-115.8,179.29-116.76,338.45-1.5,247,121.37,380,257.91,452,108.16,57,283,106.15,353.29,112.73L397.24,2380,892.84,1814,586.2,1623.31Z" transform="translate(162.53 -186.65)"/><path class="cls-5" d="M549.47,1768c-47.63,1.79-180.34-31.88-290.71-65.12-16.71-5-32.93-10-48.54-15.1-114.94-37.2-196.55-76.14-194.18-135,1.93-48.11,31-80.13,65.38-104A404.54,404.54,0,0,1,122,1424.41c62.22-33.22,172.71-72.32,265.75-106.93,17.36-6.46,34.12-12.76,49.85-18.84,90.34-34.93,163.9-66.78,222.17-100.48,123.37-71.34,178.17-151,178.17-285.71,0-7.16-.13-14.07-.37-20.79-4.59-127.69-52.9-178-151-224.66-39.8-18.93-87.77-37.27-144.36-60-18.16-7.28-36.46-14.48-54.7-21.61-47.33-18.5-94.2-36.48-137.06-53.84-61.3-24.81-114.4-48.35-148.9-70.31-26.79-17.06-42.39-33.16-41.9-48.19.47-14.2,6.2-32.38,24.19-49.76,15.57-15,40.3-29.46,78.77-40.21,32.62-9.12,75.09-15.59,130.21-17.52-52.3-13-103.47-18.7-147.71-14.33-33.27,3.28-62.61,12.25-85.53,28.17-24,16.64-40.93,40.83-48,74-12.1,56.6.1,101.81,17.7,124.66a367.18,367.18,0,0,0,27,31.41c41.49,42.85,90,69.82,164,100.25,42.5,17.48,93.41,36.11,156.17,59.55l22.89,8.57c64,24,116.33,42.8,156.57,61.62,65.12,30.45,98.28,61,96.68,113.73-.11,3.73-.34,7.52-.8,11.48-6,51.32-70,81.83-161.69,108-71,20.26-158.68,37.91-248.7,60.58-41.23,10.38-82.95,21.8-123.8,35C108.94,1143.44,24.08,1184.45-36.95,1244c-76.76,74.94-115.79,179.29-116.75,338.45-1.5,247,121.36,380,257.91,452,108.15,56.95,280.55,104.87,350.87,111.45l-57.33,229.57,495.1-562.84L586.72,1618.8Z" transform="translate(162.53 -186.65)"/><path class="cls-6" d="M550,1763.44c-47.62,1.8-177.91-30.6-288.28-63.84-16.71-5-32.93-10-48.54-15.1-114.94-37.2-196.55-76.14-194.19-135,1.94-48.11,31-80.13,65.38-104a405.8,405.8,0,0,1,40.54-24.28c62.22-33.22,172.7-72.32,265.74-106.93,17.37-6.46,34.13-12.76,49.85-18.84,90.35-34.93,163.9-66.78,222.18-100.48C786,1123.58,840.83,1044,840.83,909.21c0-7.16-.14-14.07-.38-20.79-4.58-127.69-52.89-178-151-224.66-39.8-18.93-87.77-37.27-144.36-60-18.17-7.28-36.47-14.48-54.7-21.61-47.33-18.5-94.2-36.48-137.07-53.84C292,503.55,238.91,480,204.41,458.05c-26.8-17.06-42.39-33.16-41.9-48.19.46-14.2,6.2-32.38,24.19-49.76,15.57-15,40.3-29.46,78.77-40.21,32.62-9.12,75.09-15.59,130.21-17.52-52.3-13-103.47-18.7-147.71-14.33-33.27,3.28-62.62,12.25-85.53,28.17-24,16.64-40.93,40.83-48,74-12.11,56.6.09,101.81,17.7,124.66a367.18,367.18,0,0,0,27,31.41c41.49,42.85,90,69.82,164,100.25,42.51,17.48,93.42,36.11,156.18,59.55l22.88,8.57c64,24,116.34,42.8,156.58,61.62,65.11,30.45,98.28,61,96.68,113.73-.12,3.73-.34,7.52-.8,11.48-6,51.32-70,81.83-161.69,108-71.05,20.26-158.68,37.91-248.71,60.58-41.22,10.38-82.94,21.8-123.8,35C111.88,1140.2,27,1181.21-34,1240.79c-76.76,74.94-115.79,179.29-116.75,338.45-1.5,247,121.36,380,257.91,452,108.15,57,278.13,103.6,348.45,110.18l-57.33,229.56,494.59-559.71-305.63-197Z" transform="translate(162.53 -186.65)"/><path class="cls-7" d="M550.5,1758.93c-47.62,1.79-175.49-29.33-285.86-62.57-16.71-5-32.93-10-48.54-15.1-114.95-37.2-196.55-76.14-194.19-135,1.93-48.11,31-80.13,65.38-104a404.67,404.67,0,0,1,40.54-24.28c62.22-33.22,172.7-72.32,265.74-106.93,17.37-6.46,34.13-12.76,49.85-18.84,90.35-34.93,163.9-66.78,222.18-100.48C789,1120.34,843.77,1040.71,843.77,906c0-7.16-.14-14.07-.38-20.79-4.58-127.69-52.89-178-151-224.66-39.8-18.93-87.78-37.27-144.36-59.95-18.17-7.28-36.47-14.48-54.7-21.61-47.33-18.5-94.2-36.48-137.07-53.84C295,500.31,241.85,476.77,207.35,454.81c-26.8-17.06-42.39-33.16-41.9-48.19.46-14.2,6.2-32.38,24.19-49.76,15.56-15,40.3-29.46,78.77-40.21,32.61-9.12,75.09-15.59,130.21-17.52-52.3-13-103.47-18.7-147.72-14.33-33.26,3.28-62.61,12.25-85.53,28.17-24,16.64-40.93,40.83-48,74-12.1,56.6.1,101.81,17.7,124.66a367.25,367.25,0,0,0,27,31.41c41.48,42.85,90,69.82,164,100.25,42.5,17.48,93.41,36.11,156.17,59.55l22.89,8.57c64,24,116.34,42.8,156.58,61.62,65.11,30.45,98.28,61,96.67,113.73-.11,3.73-.33,7.52-.79,11.48-6,51.32-70.05,81.83-161.69,108-71,20.26-158.69,37.91-248.71,60.58-41.22,10.38-82.94,21.8-123.8,35C114.81,1137,30,1178-31.07,1237.55c-76.76,74.94-115.79,179.29-116.75,338.45-1.5,247,121.36,380,257.9,452,108.16,56.95,275.72,102.33,346,108.91l-57.33,229.56,494.07-556.6L587.75,1609.77Z" transform="translate(162.53 -186.65)"/><path class="cls-8" d="M551,1754.41c-47.62,1.8-173.08-28.05-283.44-61.29-16.71-5-32.93-10-48.54-15.1-114.95-37.2-196.55-76.14-194.19-135,1.93-48.11,31-80.13,65.38-104a403.55,403.55,0,0,1,40.54-24.28c62.22-33.22,172.7-72.32,265.74-106.93,17.37-6.46,34.13-12.76,49.85-18.84,90.35-34.93,163.9-66.78,222.18-100.48,123.37-71.34,178.17-151,178.17-285.71,0-7.16-.14-14.07-.38-20.79-4.58-127.69-52.9-178-151-224.66-39.79-18.93-87.77-37.27-144.36-59.95-18.16-7.28-36.46-14.48-54.69-21.61-47.33-18.5-94.2-36.48-137.07-53.84-61.29-24.81-114.39-48.35-148.9-70.31-26.79-17.06-42.38-33.16-41.89-48.19.46-14.2,6.2-32.38,24.19-49.76,15.56-15,40.3-29.46,78.76-40.21,32.62-9.12,75.1-15.59,130.21-17.52-52.3-13-103.46-18.7-147.71-14.33-33.26,3.28-62.61,12.25-85.53,28.17-24,16.64-40.93,40.83-48,74-12.1,56.6.1,101.81,17.7,124.66a367.25,367.25,0,0,0,27,31.41c41.48,42.85,90,69.82,164,100.25,42.5,17.48,93.41,36.11,156.17,59.55l22.89,8.57c64,24,116.34,42.8,156.58,61.62,65.11,30.45,98.28,61,96.67,113.73-.11,3.73-.33,7.52-.79,11.48-6,51.32-70,81.83-161.69,108-71.05,20.26-158.69,37.91-248.71,60.58-41.22,10.38-82.94,21.8-123.8,35-108.59,35.15-193.45,76.16-254.47,135.74-76.76,74.94-115.79,179.29-116.76,338.45-1.49,247,121.37,380,257.91,452,108.16,57,273.29,101,343.62,107.63l-57.33,229.56,493.56-553.48-304.6-203.18Z" transform="translate(162.53 -186.65)"/><path class="cls-9" d="M551.54,1749.9c-47.62,1.8-170.66-26.78-281-60q-25.08-7.55-48.54-15.1c-114.95-37.2-196.56-76.14-194.19-135,1.93-48.11,31-80.13,65.38-104a403.55,403.55,0,0,1,40.54-24.28c62.22-33.22,172.7-72.32,265.74-106.93,17.36-6.46,34.12-12.76,49.85-18.84,90.34-34.93,163.9-66.78,222.17-100.48,123.38-71.34,178.17-151,178.17-285.71,0-7.16-.13-14.07-.37-20.79-4.59-127.69-52.9-178-151-224.66-39.79-18.93-87.77-37.27-144.36-59.95-18.16-7.28-36.46-14.48-54.69-21.61C451.85,554,405,536,362.12,518.64c-61.3-24.81-114.39-48.35-148.9-70.31-26.79-17.06-42.38-33.16-41.89-48.19.46-14.2,6.19-32.38,24.19-49.76,15.56-15,40.3-29.46,78.76-40.21,32.62-9.12,75.1-15.59,130.21-17.52-52.3-13-103.46-18.7-147.71-14.33-33.26,3.28-62.61,12.25-85.53,28.17-24,16.64-40.93,40.83-48,74-12.1,56.6.1,101.81,17.7,124.66a365.48,365.48,0,0,0,27,31.41c41.48,42.85,90,69.82,164,100.25,42.5,17.48,93.41,36.11,156.17,59.55L511,704.92c64,24,116.34,42.8,156.58,61.62,65.11,30.45,98.28,61,96.67,113.73-.11,3.73-.33,7.52-.8,11.48-6,51.32-70,81.83-161.68,108-71,20.26-158.69,37.91-248.71,60.58-41.22,10.38-82.94,21.8-123.8,35-108.59,35.15-193.45,76.16-254.47,135.74C-101.95,1306-141,1410.36-141.95,1569.52c-1.49,247,121.37,380,257.91,452,108.16,56.95,270.87,99.78,341.2,106.36L399.83,2357.4l493-550.37L588.79,1600.74Z" transform="translate(162.53 -186.65)"/><path class="cls-10" d="M552.06,1745.39c-47.62,1.79-168.24-25.51-278.6-58.75q-25.08-7.55-48.54-15.1c-114.95-37.2-196.56-76.14-194.19-135,1.93-48.11,31-80.13,65.38-104a403.55,403.55,0,0,1,40.54-24.28c62.22-33.22,172.7-72.32,265.74-106.93,17.36-6.46,34.12-12.76,49.85-18.84,90.34-34.93,163.9-66.78,222.17-100.48,123.38-71.34,178.17-151,178.17-285.71,0-7.16-.13-14.07-.37-20.79-4.59-127.69-52.9-178-151-224.66-39.79-18.93-87.77-37.27-144.36-59.95-18.16-7.28-36.46-14.48-54.7-21.61-47.33-18.5-94.2-36.48-137.06-53.84-61.3-24.81-114.4-48.35-148.9-70.31-26.79-17.06-42.39-33.16-41.9-48.19.47-14.2,6.2-32.38,24.2-49.76,15.56-15,40.3-29.46,78.76-40.21,32.62-9.12,75.09-15.59,130.21-17.52-52.3-13-103.47-18.7-147.71-14.33-33.27,3.28-62.61,12.25-85.53,28.17-24,16.64-40.93,40.83-48,74-12.1,56.6.1,101.81,17.7,124.66a365.48,365.48,0,0,0,27,31.41c41.48,42.85,90,69.82,164,100.24,42.5,17.49,93.41,36.12,156.17,59.56L514,701.68c64,24,116.34,42.8,156.57,61.62,65.12,30.45,98.28,61,96.68,113.73-.11,3.73-.34,7.52-.8,11.48-6,51.32-70,81.83-161.68,108C533.67,1016.74,446,1034.39,356,1057.06c-41.22,10.38-82.94,21.8-123.8,35-108.59,35.15-193.45,76.16-254.47,135.74C-99,1302.77-138,1407.12-139,1566.28c-1.5,247,121.37,380,257.91,452,108.16,57,268.45,98.5,338.77,105.08l-57.32,229.56,492.53-547.25L589.31,1596.22Z" transform="translate(162.53 -186.65)"/><path class="cls-11" d="M552.57,1740.87c-47.62,1.8-165.81-24.23-276.18-57.47-16.71-5-32.93-10.05-48.54-15.1-114.94-37.2-196.55-76.14-194.18-135,1.93-48.11,31-80.13,65.38-104A404.54,404.54,0,0,1,139.58,1405c62.22-33.22,172.7-72.32,265.74-106.93,17.37-6.46,34.13-12.76,49.85-18.84,90.35-34.93,163.91-66.78,222.18-100.48,123.37-71.34,178.17-151,178.17-285.71,0-7.16-.13-14.07-.38-20.79-4.58-127.69-52.89-178-151-224.66-39.8-18.93-87.77-37.27-144.36-59.95-18.17-7.28-36.46-14.48-54.7-21.61-47.33-18.5-94.2-36.48-137.06-53.84-61.3-24.81-114.4-48.35-148.9-70.31-26.79-17.06-42.39-33.16-41.9-48.19.47-14.2,6.2-32.38,24.19-49.76,15.57-15,40.3-29.46,78.77-40.21,32.62-9.12,75.09-15.59,130.21-17.52-52.3-13-103.47-18.7-147.71-14.33C229.39,275.12,200,284.09,177.13,300c-24,16.64-40.93,40.83-48,74-12.1,56.6.09,101.81,17.7,124.66a367.18,367.18,0,0,0,27,31.41c41.49,42.85,90,69.82,164,100.24,42.5,17.49,93.41,36.12,156.17,59.56l22.89,8.57c64,24,116.33,42.8,156.57,61.62,65.12,30.45,98.28,61,96.68,113.73-.12,3.73-.34,7.52-.8,11.48-6,51.32-70,81.83-161.69,108-71,20.26-158.68,37.91-248.7,60.58-41.23,10.38-82.95,21.8-123.81,35C126.57,1124,41.71,1165-19.32,1224.59c-76.76,74.94-115.79,179.29-116.75,338.45-1.5,247,121.36,380,257.91,452,108.15,56.95,266,97.23,336.35,103.81l-57.33,229.56,492-544.14L589.82,1591.71Z" transform="translate(162.53 -186.65)"/><path class="cls-12" d="M553.09,1736.36c-47.62,1.79-163.39-23-273.76-56.2-16.71-5-32.93-10.05-48.54-15.1-114.95-37.2-196.55-76.14-194.19-135,1.94-48.11,31-80.13,65.38-104a405.8,405.8,0,0,1,40.54-24.28c62.22-33.22,172.7-72.32,265.74-106.93,17.37-6.46,34.13-12.76,49.85-18.84,90.35-34.93,163.9-66.78,222.18-100.48,123.37-71.34,178.17-151,178.17-285.71,0-7.16-.14-14.07-.38-20.79-4.58-127.69-52.89-178-151-224.66-39.8-18.93-87.77-37.27-144.36-60-18.17-7.28-36.47-14.48-54.7-21.61-47.33-18.5-94.2-36.48-137.07-53.84C309.64,484.11,256.54,460.57,222,438.61c-26.8-17.06-42.39-33.16-41.9-48.19.46-14.2,6.2-32.38,24.19-49.76,15.56-15,40.3-29.46,78.77-40.21,32.61-9.12,75.09-15.59,130.21-17.52-52.3-13-103.47-18.7-147.71-14.33-33.27,3.28-62.62,12.25-85.53,28.17-24,16.64-40.93,40.83-48,74-12.11,56.6.09,101.81,17.69,124.66a367.25,367.25,0,0,0,27,31.41c41.49,42.85,90,69.82,164,100.24,42.51,17.49,93.41,36.12,156.17,59.56l22.89,8.57c64,24,116.34,42.8,156.58,61.62,65.11,30.45,98.28,61,96.68,113.73-.12,3.73-.34,7.52-.8,11.48-6,51.32-70,81.83-161.69,108-71.05,20.26-158.68,37.91-248.71,60.58-41.22,10.38-82.94,21.8-123.8,35-108.59,35.15-193.45,76.16-254.47,135.74-76.76,74.94-115.79,179.29-116.75,338.45-1.5,247,121.36,380,257.91,452,108.15,57,263.61,96,333.93,102.53l-57.33,229.57,491.51-541L590.34,1587.19Z" transform="translate(162.53 -186.65)"/><path class="cls-13" d="M553.61,1731.84c-47.62,1.8-161-21.68-271.34-54.92-16.71-5-32.93-10.05-48.54-15.1-114.95-37.2-196.55-76.14-194.19-135,1.93-48.11,31-80.13,65.38-104a404.67,404.67,0,0,1,40.54-24.28c62.22-33.22,172.7-72.32,265.74-106.93,17.37-6.46,34.13-12.76,49.85-18.84,90.35-34.93,163.9-66.78,222.18-100.48,123.37-71.34,178.17-151,178.17-285.71,0-7.16-.14-14.07-.38-20.79-4.58-127.69-52.9-178-151-224.66-39.8-18.93-87.78-37.27-144.36-60-18.17-7.28-36.47-14.48-54.7-21.61C463.61,541,416.74,523,373.87,505.68c-61.29-24.81-114.39-48.35-148.9-70.31-26.79-17.06-42.38-33.16-41.89-48.19.46-14.2,6.2-32.38,24.19-49.76,15.56-15,40.3-29.46,78.77-40.21,32.61-9.12,75.09-15.59,130.21-17.52-52.3-13-103.47-18.7-147.72-14.33-33.26,3.28-62.61,12.25-85.53,28.17-24,16.64-40.93,40.83-48,74-12.1,56.6.1,101.81,17.7,124.66a367.25,367.25,0,0,0,27,31.41c41.48,42.85,90,69.82,164,100.24,42.5,17.49,93.41,36.12,156.17,59.56L522.77,692c64,24,116.34,42.8,156.58,61.62,65.11,30.45,98.28,61,96.67,113.73-.11,3.73-.33,7.52-.79,11.48-6,51.32-70.05,81.83-161.69,108-71,20.26-158.69,37.91-248.71,60.58-41.22,10.38-82.94,21.8-123.8,35-108.59,35.15-193.45,76.16-254.47,135.74-76.76,74.94-115.79,179.29-116.76,338.45-1.49,247,121.37,380,257.91,452,108.16,56.95,261.2,94.68,331.52,101.26L401.9,2339.34l491-537.9-302-218.76Z" transform="translate(162.53 -186.65)"/><path class="cls-14" d="M554.13,1727.33c-47.62,1.79-158.56-20.41-268.92-53.65-16.71-5-32.93-10-48.54-15.1-114.95-37.2-196.55-76.14-194.19-135,1.93-48.11,31-80.13,65.38-104a403.55,403.55,0,0,1,40.54-24.28c62.22-33.22,172.7-72.32,265.74-106.93,17.37-6.46,34.13-12.76,49.85-18.84,90.35-34.93,163.9-66.78,222.18-100.48,123.37-71.34,178.17-151,178.17-285.71,0-7.16-.14-14.07-.38-20.79-4.59-127.69-52.9-178-151-224.66-39.79-18.93-87.77-37.27-144.36-60-18.16-7.28-36.46-14.48-54.69-21.61-47.34-18.5-94.2-36.48-137.07-53.84-61.3-24.81-114.39-48.35-148.9-70.31C201.12,415.07,185.53,399,186,383.94c.46-14.2,6.2-32.38,24.19-49.76,15.56-15,40.3-29.46,78.76-40.21,32.62-9.12,75.1-15.59,130.21-17.52-52.3-13-103.46-18.7-147.71-14.33-33.26,3.28-62.61,12.25-85.53,28.17-24,16.64-40.93,40.83-48,74-12.1,56.6.1,101.81,17.7,124.66a367.25,367.25,0,0,0,27,31.41c41.48,42.85,90,69.82,164,100.24,42.5,17.49,93.41,36.12,156.17,59.56l22.89,8.57c64,24,116.34,42.8,156.58,61.62,65.11,30.45,98.28,61,96.67,113.73-.11,3.73-.33,7.52-.79,11.48-6,51.32-70,81.83-161.69,108-71.05,20.26-158.69,37.91-248.71,60.58-41.22,10.38-82.94,21.8-123.8,35-108.59,35.15-193.45,76.16-254.47,135.74-76.76,74.94-115.79,179.29-116.76,338.45-1.49,247,121.37,380,257.91,452,108.16,57,258.77,93.41,329.1,100l-57.33,229.56L892.9,1800,591.38,1578.17Z" transform="translate(162.53 -186.65)"/><path class="cls-15" d="M554.65,1722.81c-47.62,1.8-156.14-19.13-266.5-52.37q-25.08-7.55-48.54-15.1c-115-37.2-196.56-76.14-194.19-135,1.93-48.11,31-80.13,65.38-104A403.55,403.55,0,0,1,151.34,1392c62.22-33.22,172.7-72.32,265.74-106.93,17.36-6.46,34.12-12.76,49.85-18.84,90.34-34.93,163.9-66.78,222.17-100.48,123.38-71.34,178.17-151,178.17-285.71,0-7.16-.13-14.07-.37-20.79-4.59-127.69-52.9-178-151-224.66-39.79-18.93-87.77-37.27-144.36-60-18.16-7.28-36.46-14.48-54.69-21.61-47.34-18.5-94.2-36.48-137.07-53.84-61.3-24.81-114.39-48.35-148.9-70.31-26.79-17.06-42.38-33.16-41.89-48.19.46-14.2,6.19-32.38,24.19-49.76,15.56-15,40.3-29.46,78.76-40.21,32.62-9.12,75.1-15.59,130.21-17.52-52.3-13-103.46-18.7-147.71-14.33-33.26,3.28-62.61,12.25-85.53,28.17-24,16.64-40.93,40.83-48,74-12.1,56.6.1,101.81,17.7,124.66a365.48,365.48,0,0,0,27,31.41c41.48,42.85,90,69.82,164,100.24,42.5,17.49,93.41,36.12,156.17,59.56l22.89,8.57c64,24,116.34,42.8,156.58,61.62,65.11,30.45,98.28,61,96.67,113.73-.11,3.73-.33,7.52-.8,11.48-6,51.32-70,81.83-161.68,108-71,20.26-158.69,37.91-248.71,60.57-41.22,10.39-82.94,21.81-123.8,35C138.32,1111,53.46,1152.05-7.56,1211.63c-76.76,74.94-115.8,179.29-116.76,338.45-1.5,247.05,121.37,380.05,257.91,452,108.16,57,256.35,92.14,326.68,98.72l-57.33,229.56,490-531.67-301-225Z" transform="translate(162.53 -186.65)"/><path class="cls-16" d="M555.17,1718.3c-47.62,1.79-153.72-17.86-264.09-51.1-16.71-5-32.93-10-48.53-15.1-115-37.2-196.56-76.14-194.19-135,1.93-48.11,31-80.13,65.38-104a404.54,404.54,0,0,1,40.53-24.28C216.49,1355.55,327,1316.45,420,1281.84c17.36-6.46,34.12-12.76,49.85-18.84,90.34-34.93,163.9-66.78,222.17-100.48,123.37-71.34,178.17-151,178.17-285.71,0-7.16-.13-14.07-.37-20.79-4.59-127.69-52.9-178-151-224.66-39.8-18.93-87.77-37.27-144.36-60-18.16-7.28-36.46-14.48-54.7-21.61-47.33-18.5-94.2-36.48-137.06-53.84-61.3-24.81-114.4-48.35-148.9-70.31-26.79-17.06-42.39-33.16-41.9-48.19.47-14.2,6.2-32.38,24.19-49.76,15.57-15,40.3-29.46,78.77-40.21,32.62-9.12,75.09-15.59,130.21-17.52-52.3-13-103.47-18.7-147.71-14.33-33.27,3.28-62.61,12.25-85.53,28.17-24,16.64-40.93,40.83-48,74-12.1,56.6.1,101.81,17.7,124.66a365.48,365.48,0,0,0,27,31.41c41.48,42.85,90,69.82,164,100.24,42.5,17.49,93.41,36.12,156.17,59.56l22.89,8.57c64,24,116.34,42.8,156.57,61.62,65.12,30.45,98.28,61,96.68,113.73-.11,3.73-.34,7.52-.8,11.48-6,51.32-70,81.83-161.68,108C551.3,997.3,463.67,1015,373.65,1037.61c-41.23,10.39-82.94,21.81-123.8,35C141.26,1107.8,56.4,1148.81-4.63,1208.39c-76.76,74.94-115.79,179.29-116.75,338.45-1.5,247.05,121.36,380.05,257.91,452,108.16,57,253.93,90.87,324.25,97.45L403.45,2325.8l489.47-528.56-300.5-228.1Z" transform="translate(162.53 -186.65)"/><path class="cls-17" d="M555.68,1713.79C508.06,1715.58,404.39,1697.2,294,1664c-16.71-5-32.93-10-48.54-15.1-114.94-37.2-196.55-76.14-194.19-135,1.94-48.11,31-80.13,65.38-104a405.8,405.8,0,0,1,40.54-24.28c62.22-33.22,172.7-72.32,265.74-106.93,17.37-6.46,34.13-12.76,49.85-18.84C563.15,1224.83,636.7,1193,695,1159.28c123.37-71.34,178.17-151,178.17-285.71,0-7.16-.13-14.07-.38-20.79-4.58-127.69-52.89-178-151-224.66-39.8-18.93-87.77-37.27-144.36-60-18.17-7.28-36.47-14.48-54.7-21.61-47.33-18.5-94.2-36.48-137.07-53.84-61.29-24.81-114.39-48.35-148.89-70.31-26.8-17.06-42.39-33.16-41.9-48.19.47-14.2,6.2-32.38,24.19-49.76,15.57-15,40.3-29.46,78.77-40.21,32.62-9.12,75.09-15.59,130.21-17.52-52.3-13-103.47-18.7-147.71-14.33-33.27,3.28-62.62,12.25-85.53,28.17-24,16.64-40.93,40.83-48,74-12.1,56.6.09,101.81,17.7,124.66a367.18,367.18,0,0,0,27,31.41c41.49,42.85,90,69.82,164,100.24C398,628.36,448.88,647,511.64,670.43L534.52,679c64,24,116.34,42.8,156.58,61.62,65.12,30.45,98.28,61,96.68,113.73-.12,3.73-.34,7.52-.8,11.48-6,51.32-70,81.83-161.69,108-71,20.26-158.68,37.91-248.71,60.57-41.22,10.38-82.94,21.81-123.8,35C144.2,1104.56,59.34,1145.57-1.69,1205.15c-76.76,74.94-115.79,179.29-116.75,338.45-1.5,247.05,121.36,380.05,257.91,452,108.15,57,251.51,89.59,321.83,96.17L404,2321.28l488.95-525.44-300-231.22Z" transform="translate(162.53 -186.65)"/><path class="cls-18" d="M556.2,1709.27c-47.62,1.8-148.87-15.31-259.24-48.55-16.71-5-32.93-10-48.54-15.1-114.95-37.2-196.55-76.14-194.19-135,1.94-48.11,31-80.13,65.38-104a405.8,405.8,0,0,1,40.54-24.28c62.22-33.22,172.7-72.32,265.74-106.93,17.37-6.46,34.13-12.76,49.85-18.84,90.35-34.93,163.9-66.78,222.18-100.48,123.37-71.34,178.17-151,178.17-285.71,0-7.16-.14-14.07-.38-20.79-4.58-127.69-52.89-178-151-224.66-39.8-18.93-87.78-37.27-144.36-60-18.17-7.28-36.47-14.48-54.7-21.61-47.33-18.5-94.2-36.48-137.07-53.84-61.29-24.81-114.39-48.35-148.89-70.31-26.8-17.06-42.39-33.16-41.9-48.19.46-14.2,6.2-32.38,24.19-49.76,15.56-15,40.3-29.46,78.77-40.21,32.61-9.12,75.09-15.59,130.21-17.52-52.3-13-103.47-18.7-147.72-14.33-33.26,3.28-62.61,12.25-85.53,28.17-24,16.64-40.92,40.83-48,74-12.1,56.6.1,101.81,17.7,124.66a367.25,367.25,0,0,0,27,31.41c41.49,42.85,90,69.82,164,100.24,42.5,17.49,93.41,36.12,156.17,59.56l22.89,8.57c64,24,116.34,42.8,156.58,61.62,65.11,30.45,98.28,61,96.68,113.73-.12,3.73-.34,7.52-.8,11.48-6,51.32-70,81.83-161.69,108-71.05,20.26-158.68,37.91-248.71,60.57-41.22,10.38-82.94,21.81-123.8,35-108.59,35.15-193.45,76.16-254.47,135.74-76.76,74.94-115.79,179.29-116.75,338.45-1.5,247.05,121.36,380.05,257.91,452,108.15,57,249.09,88.32,319.41,94.9l-57.33,229.56,488.44-522.33L593.45,1560.11Z" transform="translate(162.53 -186.65)"/><path class="cls-19" d="M556.72,1704.76c-47.62,1.79-146.45-14-256.82-47.28-16.71-5-32.93-10-48.54-15.1-115-37.2-196.55-76.14-194.19-135,1.93-48.11,31-80.13,65.38-104a404.67,404.67,0,0,1,40.54-24.28c62.22-33.22,172.7-72.32,265.74-106.93,17.37-6.46,34.13-12.76,49.85-18.84,90.35-34.93,163.9-66.78,222.18-100.48C824.23,1081.46,879,1001.83,879,867.09c0-7.16-.14-14.07-.38-20.79-4.58-127.69-52.9-178-151-224.66-39.8-18.93-87.78-37.27-144.37-59.95-18.16-7.28-36.46-14.48-54.69-21.61-47.33-18.51-94.2-36.48-137.07-53.84-61.29-24.81-114.39-48.35-148.9-70.31-26.79-17.06-42.38-33.16-41.89-48.19.46-14.2,6.2-32.38,24.19-49.76,15.56-15,40.3-29.46,78.77-40.21,32.61-9.12,75.09-15.59,130.2-17.52-52.29-13-103.46-18.7-147.71-14.33-33.26,3.28-62.61,12.25-85.53,28.17-24,16.64-40.93,40.83-48,74-12.1,56.6.1,101.81,17.7,124.66a367.25,367.25,0,0,0,27,31.41c41.48,42.85,90,69.82,164,100.24,42.5,17.49,93.41,36.12,156.17,59.56l22.89,8.57c64,24,116.34,42.8,156.58,61.62,65.11,30.45,98.28,61,96.67,113.73-.11,3.73-.33,7.52-.79,11.48-6,51.32-70.05,81.83-161.69,108-71,20.26-158.69,37.91-248.71,60.57-41.22,10.38-82.94,21.81-123.8,35-108.59,35.15-193.45,76.16-254.47,135.74C-72.57,1273.61-111.6,1378-112.57,1537.12c-1.49,247.05,121.37,380.05,257.91,452,108.16,57,246.67,87,317,93.62L405,2312.26,892.93,1793,594,1555.59Z" transform="translate(162.53 -186.65)"/><path class="cls-20" d="M557.24,1700.24c-47.62,1.8-144-12.76-254.4-46q-25.08-7.54-48.54-15.1c-115-37.2-196.56-76.14-194.19-135,1.93-48.11,31-80.13,65.38-104A403.55,403.55,0,0,1,166,1375.81c62.22-33.22,172.7-72.32,265.74-106.93,17.36-6.46,34.13-12.76,49.85-18.84,90.34-34.93,163.9-66.78,222.17-100.48C827.17,1078.22,882,998.59,882,863.85c0-7.16-.13-14.07-.37-20.79-4.59-127.69-52.9-178-151-224.66-39.79-18.93-87.77-37.27-144.36-59.95C568,551.17,549.74,544,531.51,536.84c-47.34-18.51-94.2-36.48-137.07-53.84-61.3-24.81-114.39-48.35-148.9-70.31-26.79-17.06-42.38-33.16-41.89-48.19.46-14.2,6.19-32.38,24.19-49.76,15.56-15,40.3-29.46,78.76-40.21,32.62-9.12,75.1-15.59,130.21-17.52-52.3-13-103.46-18.7-147.71-14.33-33.26,3.28-62.61,12.25-85.53,28.17-24,16.64-40.93,40.83-48,74-12.1,56.6.1,101.81,17.7,124.66a365.48,365.48,0,0,0,27,31.41c41.48,42.85,90,69.82,164,100.24,42.5,17.49,93.41,36.12,156.17,59.56l22.89,8.57c64,24,116.34,42.8,156.58,61.62,65.11,30.45,98.28,61,96.67,113.73-.11,3.73-.33,7.52-.79,11.48-6,51.32-70,81.83-161.69,108-71.05,20.26-158.69,37.91-248.71,60.57-41.22,10.38-82.94,21.81-123.8,35C153,1094.84,68.15,1135.85,7.13,1195.43c-76.76,74.94-115.79,179.29-116.76,338.45-1.49,247,121.37,380,257.91,451.95,108.16,57,244.25,85.77,314.58,92.35l-57.33,229.56,487.41-516.09L594.49,1551.08Z" transform="translate(162.53 -186.65)"/><path class="cls-21" d="M557.76,1695.73c-47.62,1.79-141.62-11.49-252-44.73q-25.08-7.55-48.54-15.1c-115-37.2-196.56-76.14-194.19-135,1.93-48.11,31-80.13,65.38-104A403.55,403.55,0,0,1,169,1372.57c62.22-33.22,172.7-72.32,265.74-106.93,17.36-6.46,34.12-12.76,49.85-18.84,90.34-34.93,163.9-66.78,222.17-100.48C830.11,1075,884.9,995.35,884.9,860.61c0-7.16-.13-14.07-.37-20.79-4.59-127.69-52.9-178-151-224.66-39.79-18.93-87.77-37.28-144.36-59.95-18.16-7.28-36.46-14.48-54.7-21.61-47.33-18.51-94.2-36.48-137.06-53.84C336.08,455,283,431.41,248.48,409.45c-26.79-17.06-42.39-33.16-41.9-48.19.47-14.2,6.2-32.38,24.2-49.76,15.56-15,40.3-29.46,78.76-40.21,32.62-9.12,75.1-15.59,130.21-17.52-52.3-13-103.47-18.7-147.71-14.33-33.27,3.28-62.61,12.25-85.53,28.17-24,16.64-40.93,40.83-48,74-12.1,56.6.1,101.8,17.7,124.66a365.48,365.48,0,0,0,27,31.41c41.48,42.85,90,69.82,164,100.24,42.5,17.49,93.41,36.12,156.17,59.56L546.28,666c64,24,116.34,42.8,156.57,61.62,65.12,30.45,98.29,61,96.68,113.73-.11,3.73-.33,7.52-.8,11.48-6,51.32-70,81.83-161.68,108-71,20.26-158.69,37.91-248.71,60.57-41.22,10.38-82.94,21.81-123.8,35C156,1091.6,71.09,1132.61,10.07,1192.19c-76.76,74.94-115.8,179.29-116.76,338.45-1.5,247,121.37,380,257.91,451.95,108.16,57,241.83,84.49,312.15,91.07l-57.32,229.57,486.89-513L595,1546.56Z" transform="translate(162.53 -186.65)"/><path class="cls-22" d="M558.27,1691.21c-47.62,1.8-139.19-10.21-249.56-43.45-16.71-5-32.93-10-48.54-15.1-114.94-37.2-196.55-76.14-194.18-135,1.93-48.11,31-80.13,65.38-104.05a406.31,406.31,0,0,1,40.53-24.27c62.22-33.22,172.71-72.32,265.75-106.93,17.36-6.46,34.12-12.76,49.84-18.84,90.35-34.93,163.91-66.78,222.18-100.48,123.37-71.34,178.17-151,178.17-285.71,0-7.16-.13-14.07-.37-20.79-4.59-127.69-52.9-178-151-224.66C696.64,593,648.67,574.64,592.08,552c-18.17-7.28-36.46-14.48-54.7-21.61-47.33-18.51-94.2-36.48-137.06-53.84-61.3-24.81-114.4-48.35-148.9-70.31C224.63,389.15,209,373.05,209.52,358c.47-14.2,6.2-32.38,24.19-49.76,15.57-15,40.3-29.46,78.77-40.21,32.62-9.12,75.09-15.59,130.21-17.52-52.3-13-103.47-18.7-147.71-14.33-33.27,3.28-62.61,12.25-85.53,28.17-24,16.64-40.93,40.83-48,74-12.1,56.6.1,101.8,17.7,124.66a367.18,367.18,0,0,0,27,31.41c41.49,42.85,90,69.82,164,100.24,42.5,17.49,93.41,36.12,156.17,59.56l22.89,8.57c63.95,24,116.33,42.8,156.57,61.62,65.12,30.45,98.28,61,96.68,113.73-.11,3.73-.34,7.52-.8,11.48-6,51.32-70,81.83-161.69,108-71.05,20.26-158.68,37.91-248.7,60.57-41.23,10.38-82.95,21.81-123.8,35C158.89,1088.36,74,1129.37,13,1189c-76.76,74.94-115.79,179.29-116.75,338.45-1.5,247,121.36,380,257.91,451.95,108.15,57,239.41,83.22,309.73,89.8l-57.33,229.56L893,1788.85l-297.43-246.8Z" transform="translate(162.53 -186.65)"/><path class="cls-23" d="M558.79,1686.7c-47.62,1.79-136.77-8.94-247.14-42.18-16.71-5-32.93-10-48.54-15.1-115-37.2-196.55-76.14-194.19-135,1.94-48.11,31-80.13,65.38-104.05a407.59,407.59,0,0,1,40.54-24.27c62.22-33.22,172.7-72.32,265.74-106.93,17.37-6.46,34.13-12.76,49.85-18.84,90.35-34.93,163.9-66.78,222.18-100.48,123.37-71.34,178.17-151,178.17-285.71,0-7.16-.14-14.07-.38-20.79-4.58-127.69-52.89-178-151-224.66-39.8-18.93-87.77-37.28-144.36-59.95-18.17-7.28-36.47-14.48-54.7-21.61-47.33-18.51-94.2-36.48-137.07-53.84C342,448.47,288.86,424.93,254.36,403c-26.8-17.06-42.39-33.17-41.9-48.19.46-14.2,6.2-32.38,24.19-49.76,15.57-15,40.3-29.46,78.77-40.21,32.62-9.12,75.09-15.59,130.21-17.52-52.3-13-103.47-18.7-147.71-14.33-33.27,3.28-62.62,12.25-85.53,28.17-24,16.64-40.93,40.83-48,74-12.11,56.6.09,101.8,17.7,124.66a368.72,368.72,0,0,0,27,31.41c41.49,42.85,90,69.82,164,100.24,42.51,17.49,93.42,36.12,156.18,59.56l22.88,8.57c64,24,116.34,42.8,156.58,61.62,65.11,30.45,98.28,61,96.68,113.73-.12,3.73-.34,7.52-.8,11.48-6,51.32-70,81.83-161.69,108-71,20.26-158.68,37.91-248.71,60.57-41.22,10.38-82.94,21.81-123.8,35C161.83,1085.12,77,1126.13,15.94,1185.71-60.82,1260.65-99.85,1365-100.81,1524.16c-1.5,247,121.36,380,257.91,451.95,108.15,57,237,82,307.31,88.53L407.08,2294.2,893,1787.45,596,1537.54Z" transform="translate(162.53 -186.65)"/><path class="cls-24" d="M559.31,1682.18c-47.62,1.8-134.35-7.66-244.72-40.9-16.71-5-32.93-10-48.54-15.1-115-37.2-196.55-76.14-194.19-135,1.93-48.11,31-80.13,65.38-104.05a406.45,406.45,0,0,1,40.54-24.27c62.22-33.22,172.7-72.32,265.74-106.93,17.37-6.46,34.13-12.76,49.85-18.84,90.35-34.93,163.9-66.78,222.18-100.48,123.37-71.34,178.17-151,178.17-285.71,0-7.16-.14-14.07-.38-20.79-4.58-127.69-52.89-178-151-224.67-39.8-18.93-87.78-37.27-144.36-59.94-18.17-7.28-36.47-14.48-54.7-21.61-47.33-18.51-94.2-36.48-137.07-53.84C344.9,445.23,291.8,421.69,257.3,399.73c-26.8-17.06-42.39-33.17-41.9-48.19.46-14.2,6.2-32.38,24.19-49.76,15.56-15,40.3-29.46,78.77-40.21C351,252.45,393.45,246,448.57,244.05c-52.3-13-103.47-18.7-147.72-14.33C267.59,233,238.24,242,215.32,257.89c-24,16.64-40.93,40.83-48,74-12.1,56.6.1,101.8,17.7,124.66A368.79,368.79,0,0,0,212,488c41.48,42.85,90,69.82,164,100.24,42.5,17.49,93.41,36.12,156.17,59.56l22.89,8.57c64,24,116.34,42.8,156.58,61.62,65.11,30.45,98.28,61,96.67,113.73-.11,3.73-.33,7.52-.79,11.47-6,51.33-70,81.84-161.69,108-71.05,20.26-158.69,37.91-248.71,60.57-41.22,10.38-82.94,21.81-123.8,35-108.59,35.15-193.45,76.16-254.47,135.74-76.76,74.94-115.79,179.29-116.75,338.45-1.5,247,121.36,380,257.9,451.95,108.16,57,234.58,80.67,304.9,87.25L407.6,2289.68,893,1786.05l-296.4-253Z" transform="translate(162.53 -186.65)"/><path class="cls-25" d="M559.83,1677.67c-47.62,1.79-131.94-6.39-242.3-39.63-16.71-5-32.93-10-48.54-15.1-115-37.2-196.55-76.14-194.19-135,1.93-48.11,31-80.13,65.38-104a405.31,405.31,0,0,1,40.54-24.27c62.22-33.22,172.7-72.32,265.74-106.93,17.37-6.46,34.13-12.76,49.85-18.84,90.35-34.93,163.9-66.78,222.18-100.48,123.37-71.34,178.17-151,178.17-285.71,0-7.16-.14-14.07-.38-20.79-4.58-127.69-52.9-178-151-224.67-39.79-18.93-87.77-37.27-144.36-59.94-18.16-7.28-36.46-14.48-54.69-21.61-47.34-18.51-94.2-36.48-137.07-53.84-61.29-24.81-114.39-48.35-148.9-70.31-26.79-17.06-42.38-33.17-41.89-48.19.46-14.2,6.2-32.38,24.19-49.76,15.56-15,40.3-29.46,78.76-40.21,32.62-9.12,75.1-15.59,130.21-17.52-52.3-13-103.46-18.7-147.71-14.33-33.26,3.28-62.61,12.25-85.53,28.17-24,16.64-40.93,40.83-48,74-12.1,56.6.1,101.8,17.7,124.66a368.79,368.79,0,0,0,27,31.41c41.48,42.85,90,69.82,164,100.24,42.5,17.49,93.41,36.12,156.17,59.56L558,653.08c64,24,116.34,42.8,156.58,61.62,65.11,30.45,98.28,61,96.67,113.73-.11,3.73-.33,7.52-.79,11.47-6,51.33-70,81.84-161.69,108-71,20.26-158.69,37.91-248.71,60.57-41.22,10.38-82.94,21.81-123.8,35-108.59,35.15-193.45,76.16-254.47,135.74C-54.94,1254.17-94,1358.52-94.94,1517.68c-1.49,247,121.37,380,257.91,452,108.16,57,232.15,79.4,302.48,86l-57.33,229.56L893,1784.65,597.08,1528.51Z" transform="translate(162.53 -186.65)"/><path class="cls-26" d="M560.35,1673.16c-47.62,1.79-129.52-5.12-239.88-38.36q-25.08-7.54-48.54-15.1c-115-37.2-196.56-76.14-194.19-135,1.93-48.11,31-80.13,65.38-104a405.31,405.31,0,0,1,40.54-24.27c62.22-33.22,172.7-72.32,265.74-106.93,17.36-6.46,34.12-12.76,49.85-18.84,90.34-34.93,163.9-66.78,222.17-100.48,123.38-71.34,178.17-151,178.17-285.71,0-7.16-.13-14.07-.37-20.79-4.59-127.69-52.9-178-151-224.67C708.4,580,660.42,561.68,603.83,539c-18.16-7.28-36.46-14.48-54.69-21.61-47.34-18.51-94.2-36.48-137.07-53.84-61.3-24.81-114.39-48.35-148.9-70.31-26.79-17.06-42.38-33.17-41.89-48.19.46-14.2,6.19-32.38,24.19-49.76,15.56-15,40.3-29.46,78.76-40.21,32.62-9.12,75.1-15.59,130.21-17.52-52.3-13-103.46-18.7-147.71-14.33-33.26,3.28-62.61,12.25-85.53,28.17-24,16.64-40.93,40.83-48,74-12.1,56.6.1,101.8,17.7,124.66a367,367,0,0,0,27,31.41c41.48,42.85,90,69.82,164,100.24,42.5,17.49,93.41,36.12,156.17,59.56L561,649.84c64,24,116.34,42.8,156.58,61.62,65.11,30.45,98.28,61,96.67,113.73-.11,3.73-.33,7.52-.8,11.47-6,51.33-70,81.84-161.68,108-71,20.26-158.69,37.91-248.71,60.57-41.22,10.38-82.94,21.81-123.8,35C170.64,1075.4,85.78,1116.41,24.76,1176-52,1250.93-91,1355.28-92,1514.44c-1.49,247,121.37,380,257.91,452,108.16,57,229.73,78.12,300.06,84.7l-57.33,229.56L893,1783.26,597.6,1524Z" transform="translate(162.53 -186.65)"/><path class="cls-27" d="M560.87,1668.64c-47.62,1.8-127.1-3.84-237.47-37.08q-25.06-7.55-48.53-15.1c-115-37.2-196.56-76.14-194.19-135,1.93-48.11,31-80.13,65.38-104a406.31,406.31,0,0,1,40.53-24.27c62.23-33.22,172.71-72.32,265.75-106.93,17.36-6.46,34.12-12.76,49.85-18.84,90.34-34.93,163.9-66.78,222.17-100.48,123.37-71.34,178.17-151,178.17-285.71,0-7.16-.13-14.07-.37-20.79-4.59-127.69-52.9-178-151-224.67-39.79-18.93-87.77-37.27-144.36-59.94-18.16-7.28-36.46-14.48-54.7-21.61-47.33-18.51-94.2-36.48-137.06-53.84C353.71,435.51,300.61,412,266.11,390c-26.79-17.06-42.39-33.17-41.9-48.19.47-14.2,6.2-32.38,24.2-49.76,15.56-15,40.29-29.46,78.76-40.21,32.62-9.12,75.09-15.59,130.21-17.52-52.3-13-103.47-18.7-147.71-14.33-33.27,3.28-62.61,12.25-85.53,28.17-24,16.64-40.93,40.83-48,74-12.1,56.6.1,101.8,17.7,124.66a367,367,0,0,0,27,31.41c41.48,42.85,90,69.82,164,100.24C427.35,596,478.26,614.59,541,638l22.89,8.57c64,24,116.34,42.8,156.57,61.62,65.12,30.45,98.28,61,96.68,113.73-.11,3.73-.34,7.52-.8,11.47-6,51.33-70,81.84-161.68,108C583.62,961.66,496,979.31,406,1002c-41.22,10.38-82.94,21.81-123.8,35-108.59,35.15-193.45,76.16-254.47,135.74C-49.07,1247.69-88.1,1352-89.06,1511.2c-1.5,247,121.37,380,257.91,452,108.16,57,227.31,76.85,297.63,83.43l-57.32,229.56L893,1781.86,598.12,1519.48Z" transform="translate(162.53 -186.65)"/><path class="cls-28" d="M561.38,1664.13c-47.62,1.79-124.67-2.57-235-35.81-16.71-5-32.93-10-48.54-15.1-114.94-37.2-196.55-76.14-194.18-135,1.93-48.11,31-80.13,65.38-104a406.31,406.31,0,0,1,40.53-24.27c62.22-33.22,172.7-72.32,265.74-106.93,17.37-6.46,34.13-12.76,49.85-18.84,90.35-34.93,163.91-66.78,222.18-100.48,123.37-71.34,178.17-151,178.17-285.71,0-7.16-.13-14.07-.38-20.79-4.58-127.69-52.89-178-151-224.67-39.8-18.93-87.77-37.27-144.36-59.94-18.17-7.28-36.46-14.48-54.7-21.61-47.33-18.51-94.2-36.48-137.06-53.84-61.3-24.81-114.4-48.35-148.9-70.31-26.79-17.06-42.39-33.17-41.9-48.19.47-14.2,6.2-32.38,24.19-49.76,15.57-15,40.3-29.46,78.77-40.21,32.62-9.12,75.09-15.59,130.21-17.52-52.3-13-103.47-18.7-147.71-14.33C279.34,220,250,229,227.08,244.93c-24,16.64-40.93,40.83-48,74-12.1,56.6.09,101.8,17.7,124.66a368.72,368.72,0,0,0,27,31.41c41.49,42.85,90,69.82,164,100.24,42.5,17.49,93.41,36.12,156.17,59.56l22.89,8.57c63.95,24,116.33,42.8,156.57,61.62,65.12,30.45,98.28,61,96.68,113.73-.12,3.73-.34,7.52-.8,11.47-6,51.33-70,81.84-161.69,108-71.05,20.26-158.68,37.91-248.7,60.57-41.23,10.38-83,21.81-123.81,35-108.58,35.15-193.44,76.16-254.47,135.73-76.76,75-115.79,179.3-116.75,338.46-1.5,247,121.36,380,257.91,452,108.15,57,224.89,75.57,295.21,82.15l-57.33,229.57L893,1780.46,598.63,1515Z" transform="translate(162.53 -186.65)"/></g><g class="cls-1"><path class="cls-29" d="M460.16,231.35V202.24s-91-1.16-141.87,15.17L330,248.87C362.57,239.75,405.05,233.29,460.16,231.35Z" transform="translate(162.53 -186.65)"/><path class="cls-30" d="M330,248.87V220c-33.26,3.28-80.11,32.91-103,48.83l24.27,20.31C266.75,274.05,291.49,259.62,330,248.87Z" transform="translate(162.53 -186.65)"/><path class="cls-31" d="M227,362.44c.46-14.21,6.2-56,24.19-73.35V260.16l-24.27,8.62C203,285.42,174,333.27,174,333.27s.12,29.1,0,42.44c-.3,36.35,9.69,60.79,22.56,77.51a365.72,365.72,0,0,0,27,31.41l45.25-74C242.1,393.57,226.51,377.46,227,362.44Z" transform="translate(162.53 -186.65)"/><path class="cls-32" d="M268.89,410.62l-45.22,33.91,0,40.1c41.48,42.85,90,69.82,164,100.25l30.16-103.94C356.49,456.12,303.4,432.59,268.89,410.62Z" transform="translate(162.53 -186.65)"/><path class="cls-33" d="M417.79,480.94l-30.16,65.63v38.31C430.13,602.36,481,621,543.8,644.43l11.06-109.66C507.52,516.27,460.66,498.29,417.79,480.94Z" transform="translate(162.53 -186.65)"/><path class="cls-34" d="M905.32,861.78V809.49s-60.11,33.38-85.38,33.08c-.11,3.72-.33,7.52-.79,11.47-6,51.32-70,81.84-161.69,108l69.68,178.81C850.52,1069.48,905.32,996.52,905.32,861.78Z" transform="translate(162.53 -186.65)"/><path class="cls-35" d="M285,1057.63c-108.59,35.15-193.45,76.15-254.47,135.73,43.66,73.11,91.16,149.83,118.36,198a405.31,405.31,0,0,1,40.54-24.27c62.22-33.22,172.7-72.32,265.74-106.93l-.05-46-46.32-191.59C367.53,1033,325.81,1044.4,285,1057.63Z" transform="translate(162.53 -186.65)"/><path class="cls-36" d="M-86.28,1531.81c-1.49,247,121.37,380.06,257.91,452l106-346.7c-114.95-37.2-196.55-76.13-194.19-135,1.93-48.12,31-86.81,65.38-110.73,0-13.7-.34-46-.34-46s-80-88.27-118-152C-40.11,1262.28-86.28,1482-86.28,1482S-86.2,1519-86.28,1531.81Z" transform="translate(162.53 -186.65)"/><path class="cls-37" d="M527.17,2069.81c2.49.13,74-204.85,93.05-386.69-9.77-3-101.08,27.17-294-30.94-16.71-5-32.93-10-48.54-15.11L171.88,1930.83l-.25,52.94C325.81,2065,497.42,2068.24,527.17,2069.81Z" transform="translate(162.53 -186.65)"/><path class="cls-38" d="M727.14,1140.82V1095L657.46,962c-71.05,20.27-158.69,37.91-248.71,60.58l46.32,191.59.05,46c17.36-6.46,34.13-12.76,49.85-18.84C595.31,1206.37,668.87,1174.52,727.14,1140.82Z" transform="translate(162.53 -186.65)"/><path class="cls-39" d="M609.55,556.39c-18.16-7.28-36.46-14.49-54.69-21.62L543.8,606.13v38.3L566.69,653c64,24,116.34,42.8,156.58,61.62l30.64-98.29C714.12,597.4,666.14,579.06,609.55,556.39Z" transform="translate(162.53 -186.65)"/><path class="cls-40" d="M904.94,841c-4.59-127.7-52.9-178-151-224.67l-30.64,60v38.3c65.11,30.45,98.28,75.21,96.67,128C845.21,842.87,881.78,841.81,904.94,841Z" transform="translate(162.53 -186.65)"/><polygon class="cls-41" points="761.01 1364.68 572.05 2056.31 572.05 2121.34 1055.36 1630.17 1055.36 1565.15 761.01 1364.68"/><path class="cls-42" d="M-86.28,1479.3c-1.49,247,121.37,380,257.91,452l106-346.69c-114.95-37.2-196.55-76.14-194.19-135,1.93-48.11,31-80.13,65.38-104-27.2-48.15-74.7-131.55-118.36-204.65C-46.28,1215.79-85.31,1320.14-86.28,1479.3Z" transform="translate(162.53 -186.65)"/><path class="cls-29" d="M460.16,202.43c-52.3-13-103.46-18.7-147.71-14.33L330,220C362.57,210.83,405.05,204.36,460.16,202.43Z" transform="translate(162.53 -186.65)"/><path class="cls-43" d="M527.17,2017.29c2.49.13,74-204.85,93.05-386.68-9.77-3-101.08,27.17-294-30.95-16.71-5-32.93-10.05-48.54-15.1l-106,346.69C325.81,2012.44,497.42,2015.73,527.17,2017.29Z" transform="translate(162.53 -186.65)"/><path class="cls-44" d="M285,1005.11c-108.59,35.15-193.45,76.16-254.47,135.74,43.66,73.1,91.16,156.5,118.36,204.65a405.31,405.31,0,0,1,40.54-24.27c62.22-33.22,172.7-72.32,265.74-106.93L408.75,970.07C367.53,980.45,325.81,991.88,285,1005.11Z" transform="translate(162.53 -186.65)"/><path class="cls-45" d="M905.32,809.27c0-7.16-.14-14.07-.38-20.79-23.16.81-59.73,1.88-85,1.57-.11,3.73-.33,7.52-.79,11.47-6,51.33-70,81.84-161.69,108L727.14,1095C850.52,1023.64,905.32,944,905.32,809.27Z" transform="translate(162.53 -186.65)"/><path class="cls-46" d="M609.55,503.87c-18.16-7.28-36.46-14.48-54.69-21.61L543.8,606.13l22.89,8.57c64,24,116.34,42.8,156.58,61.62l30.64-112.51C714.12,544.88,666.14,526.54,609.55,503.87Z" transform="translate(162.53 -186.65)"/><path class="cls-47" d="M904.94,788.48c-4.59-127.69-52.9-178-151-224.67L723.27,676.32c65.11,30.45,98.28,61,96.67,113.73C845.21,790.36,881.78,789.29,904.94,788.48Z" transform="translate(162.53 -186.65)"/><path class="cls-48" d="M727.14,1095,657.46,909.5c-71.05,20.26-158.69,37.9-248.71,60.57l46.37,244.23c17.36-6.46,34.13-12.76,49.85-18.84C595.31,1160.53,668.87,1128.68,727.14,1095Z" transform="translate(162.53 -186.65)"/><path class="cls-49" d="M227,309.92c.46-14.2,6.2-32.38,24.19-49.76l-24.27-43.89c-24,16.64-40.93,40.83-48,74-12.1,56.6.1,101.8,17.7,124.66a368.79,368.79,0,0,0,27,31.41l45.25-88.22C242.1,341.05,226.51,324.94,227,309.92Z" transform="translate(162.53 -186.65)"/><path class="cls-50" d="M330,220l-17.5-31.85c-33.26,3.28-62.61,12.25-85.53,28.17l24.27,43.89C266.75,245.13,291.49,230.7,330,220Z" transform="translate(162.53 -186.65)"/><path class="cls-51" d="M417.79,428.42,387.63,546.57c42.5,17.49,93.41,36.12,156.17,59.56l11.06-123.87C507.52,463.75,460.66,445.78,417.79,428.42Z" transform="translate(162.53 -186.65)"/><path class="cls-52" d="M268.89,358.11l-45.25,88.22c41.48,42.85,90,69.82,164,100.24l30.16-118.15C356.49,403.61,303.4,380.07,268.89,358.11Z" transform="translate(162.53 -186.65)"/><polygon class="cls-53" points="761.01 1299.66 572.05 2056.32 1055.36 1565.15 761.01 1299.66"/><path class="cls-54" d="M158.16,1551.42s207.79,87,390.92,97.18C452.71,1891,257.64,1766.65,158.16,1551.42Z" transform="translate(162.53 -186.65)"/><path class="cls-55" d="M819.79,605c51.11,35.79,95.8,110.84,80,253.62-13,117.65-80.08,159.35-112.42,185.7C853.61,951.48,897.3,697.85,819.79,605Z" transform="translate(162.53 -186.65)"/><polygon class="cls-56" points="766.08 1323.66 713.24 1549.49 1033.94 1565.5 766.08 1323.66"/><path class="cls-57" d="M202.5,241.9c-12,13.74-26.69,46.81-27.12,89s14.66,80,38.36,96.75C202.5,377.47,194.93,319.54,202.5,241.9Z" transform="translate(162.53 -186.65)"/></g><g class="cls-1"><g class="cls-58"><ellipse class="cls-59" cx="491.76" cy="1643.45" rx="92.64" ry="30.62"/><ellipse class="cls-60" cx="493.11" cy="1643.08" rx="89.51" ry="29.59"/><ellipse class="cls-61" cx="494.45" cy="1642.71" rx="86.38" ry="28.55"/><ellipse class="cls-62" cx="495.8" cy="1642.35" rx="83.24" ry="27.52"/><ellipse class="cls-63" cx="497.15" cy="1641.98" rx="80.11" ry="26.48"/><ellipse class="cls-64" cx="498.49" cy="1641.61" rx="76.98" ry="25.45"/><ellipse class="cls-65" cx="499.84" cy="1641.24" rx="73.85" ry="24.41"/><ellipse class="cls-66" cx="501.18" cy="1640.87" rx="70.72" ry="23.38"/><ellipse class="cls-67" cx="502.53" cy="1640.51" rx="67.58" ry="22.34"/><ellipse class="cls-68" cx="503.88" cy="1640.14" rx="64.45" ry="21.31"/><ellipse class="cls-69" cx="505.22" cy="1639.77" rx="61.32" ry="20.27"/><ellipse class="cls-70" cx="506.57" cy="1639.4" rx="58.19" ry="19.24"/><ellipse class="cls-71" cx="507.91" cy="1639.03" rx="55.06" ry="18.2"/><ellipse class="cls-72" cx="509.26" cy="1638.66" rx="51.93" ry="17.17"/><ellipse class="cls-73" cx="510.6" cy="1638.3" rx="48.79" ry="16.13"/><path class="cls-74" d="M395.08,1824.58c0,8.33-20.44,15.09-45.66,15.09s-45.66-6.76-45.66-15.09,20.44-15.1,45.66-15.1S395.08,1816.24,395.08,1824.58Z" transform="translate(162.53 -186.65)"/><path class="cls-75" d="M393.3,1824.21c0,7.76-19,14.06-42.53,14.06s-42.53-6.3-42.53-14.06,19-14.06,42.53-14.06S393.3,1816.44,393.3,1824.21Z" transform="translate(162.53 -186.65)"/><path class="cls-76" d="M391.51,1823.84c0,7.19-17.64,13-39.4,13s-39.4-5.83-39.4-13,17.64-13,39.4-13S391.51,1816.65,391.51,1823.84Z" transform="translate(162.53 -186.65)"/><path class="cls-77" d="M389.73,1823.47c0,6.62-16.24,12-36.27,12s-36.27-5.37-36.27-12,16.24-12,36.27-12S389.73,1816.85,389.73,1823.47Z" transform="translate(162.53 -186.65)"/><path class="cls-78" d="M387.94,1823.1c0,6.05-14.83,11-33.13,11s-33.14-4.91-33.14-11,14.83-10.95,33.14-10.95S387.94,1817.05,387.94,1823.1Z" transform="translate(162.53 -186.65)"/><path class="cls-79" d="M386.16,1822.74c0,5.47-13.44,9.91-30,9.91s-30-4.44-30-9.91,13.43-9.92,30-9.92S386.16,1817.26,386.16,1822.74Z" transform="translate(162.53 -186.65)"/><path class="cls-80" d="M384.37,1822.37c0,4.9-12,8.88-26.87,8.88s-26.88-4-26.88-8.88,12-8.89,26.88-8.89S384.37,1817.46,384.37,1822.37Z" transform="translate(162.53 -186.65)"/><path class="cls-81" d="M382.58,1822c0,4.33-10.62,7.85-23.74,7.85s-23.74-3.52-23.74-7.85,10.63-7.85,23.74-7.85S382.58,1817.66,382.58,1822Z" transform="translate(162.53 -186.65)"/><path class="cls-82" d="M380.8,1821.63c0,3.76-9.23,6.81-20.61,6.81s-20.61-3-20.61-6.81,9.23-6.81,20.61-6.81S380.8,1817.87,380.8,1821.63Z" transform="translate(162.53 -186.65)"/><path class="cls-83" d="M379,1821.26c0,3.19-7.82,5.78-17.48,5.78s-17.47-2.59-17.47-5.78,7.82-5.77,17.47-5.77S379,1818.07,379,1821.26Z" transform="translate(162.53 -186.65)"/><path class="cls-84" d="M377.23,1820.89c0,2.62-6.43,4.75-14.35,4.75s-14.35-2.13-14.35-4.75,6.43-4.74,14.35-4.74S377.23,1818.28,377.23,1820.89Z" transform="translate(162.53 -186.65)"/><path class="cls-85" d="M375.44,1820.53c0,2-5,3.7-11.21,3.7s-11.22-1.66-11.22-3.7,5-3.71,11.22-3.71S375.44,1818.48,375.44,1820.53Z" transform="translate(162.53 -186.65)"/></g><path class="cls-86" d="M465.57,1453.34c-19.4-77.23-78.82-117.31-132.74-89.52S250.94,1476.73,270.34,1554a188.17,188.17,0,0,0,6.23,20l78.89,247.11h10L456,1582.14C472.17,1544.89,476.74,1497.81,465.57,1453.34Z" transform="translate(162.53 -186.65)"/><path class="cls-87" d="M475.57,1453.34c-19.39-77.23-78.82-117.31-132.73-89.52S261,1476.73,280.34,1554a188.17,188.17,0,0,0,6.23,20l78.89,247.11L466,1582.14C482.18,1544.89,486.74,1497.81,475.57,1453.34Z" transform="translate(162.53 -186.65)"/><path class="cls-88" d="M450.93,1470.83c14.8,58.93-6.54,123.88-47.68,145.08s-86.48-9.38-101.28-68.3,6.55-123.88,47.69-145.08S436.13,1411.91,450.93,1470.83Z" transform="translate(162.53 -186.65)"/><ellipse class="cls-89" cx="538.98" cy="1322.57" rx="69.02" ry="98.87"/></g><g class="cls-1"><g class="cls-58"><ellipse class="cls-90" cx="804.58" cy="460.45" rx="92.64" ry="34.67"/><ellipse class="cls-91" cx="805.23" cy="460.58" rx="89.51" ry="33.5"/><ellipse class="cls-92" cx="805.89" cy="460.7" rx="86.38" ry="32.33"/><path class="cls-93" d="M727.25,647.47c0,17.21-37.27,31.15-83.24,31.15s-83.24-13.94-83.24-31.15S598,616.32,644,616.32,727.25,630.27,727.25,647.47Z" transform="translate(162.53 -186.65)"/><path class="cls-94" d="M724.77,647.59c0,16.56-35.86,30-80.11,30s-80.11-13.42-80.11-30,35.87-30,80.11-30S724.77,631,724.77,647.59Z" transform="translate(162.53 -186.65)"/><path class="cls-95" d="M722.29,647.72c0,15.91-34.46,28.81-77,28.81s-77-12.9-77-28.81,34.47-28.81,77-28.81S722.29,631.81,722.29,647.72Z" transform="translate(162.53 -186.65)"/><path class="cls-96" d="M719.81,647.84c0,15.26-33.06,27.64-73.84,27.64s-73.85-12.38-73.85-27.64S605.18,620.2,646,620.2,719.81,632.58,719.81,647.84Z" transform="translate(162.53 -186.65)"/><path class="cls-97" d="M717.33,648c0,14.62-31.66,26.47-70.71,26.47S575.9,662.58,575.9,648s31.66-26.46,70.72-26.46S717.33,633.35,717.33,648Z" transform="translate(162.53 -186.65)"/><path class="cls-98" d="M714.85,648.08c0,14-30.25,25.3-67.58,25.3s-67.59-11.33-67.59-25.3,30.26-25.29,67.59-25.29S714.85,634.12,714.85,648.08Z" transform="translate(162.53 -186.65)"/><path class="cls-99" d="M712.37,648.21c0,13.32-28.85,24.12-64.45,24.12s-64.45-10.8-64.45-24.12,28.85-24.12,64.45-24.12S712.37,634.89,712.37,648.21Z" transform="translate(162.53 -186.65)"/><path class="cls-100" d="M709.89,648.33c0,12.67-27.45,22.95-61.32,22.95S587.25,661,587.25,648.33s27.46-23,61.32-23S709.89,635.66,709.89,648.33Z" transform="translate(162.53 -186.65)"/><path class="cls-101" d="M707.42,648.45c0,12-26.06,21.78-58.19,21.78S591,660.48,591,648.45s26.05-21.77,58.19-21.77S707.42,636.43,707.42,648.45Z" transform="translate(162.53 -186.65)"/><path class="cls-102" d="M704.94,648.58c0,11.38-24.65,20.6-55.06,20.6s-55.06-9.22-55.06-20.6S619.47,628,649.88,628,704.94,637.2,704.94,648.58Z" transform="translate(162.53 -186.65)"/><path class="cls-103" d="M702.46,648.7c0,10.73-23.25,19.43-51.93,19.43s-51.93-8.7-51.93-19.43,23.25-19.43,51.93-19.43S702.46,638,702.46,648.7Z" transform="translate(162.53 -186.65)"/><path class="cls-104" d="M700,648.82c0,10.09-21.85,18.26-48.8,18.26s-48.79-8.17-48.79-18.26,21.84-18.26,48.79-18.26S700,638.74,700,648.82Z" transform="translate(162.53 -186.65)"/><path class="cls-105" d="M697.5,648.94c0,9.44-20.45,17.09-45.67,17.09s-45.66-7.65-45.66-17.09,20.44-17.08,45.66-17.08S697.5,639.51,697.5,648.94Z" transform="translate(162.53 -186.65)"/><path class="cls-106" d="M695,649.07c0,8.79-19,15.91-42.53,15.91S610,657.86,610,649.07s19-15.92,42.54-15.92S695,640.28,695,649.07Z" transform="translate(162.53 -186.65)"/><path class="cls-107" d="M692.54,649.19c0,8.14-17.64,14.74-39.4,14.74s-39.4-6.6-39.4-14.74,17.64-14.75,39.4-14.75S692.54,641.05,692.54,649.19Z" transform="translate(162.53 -186.65)"/><path class="cls-108" d="M690.06,649.31c0,7.5-16.24,13.58-36.27,13.58s-36.27-6.08-36.27-13.58,16.24-13.57,36.27-13.57S690.06,641.82,690.06,649.31Z" transform="translate(162.53 -186.65)"/><path class="cls-109" d="M687.58,649.44c0,6.84-14.84,12.4-33.14,12.4s-33.14-5.56-33.14-12.4S636.14,637,654.44,637,687.58,642.59,687.58,649.44Z" transform="translate(162.53 -186.65)"/><path class="cls-110" d="M685.1,649.56c0,6.2-13.44,11.23-30,11.23s-30-5-30-11.23,13.43-11.23,30-11.23S685.1,643.36,685.1,649.56Z" transform="translate(162.53 -186.65)"/><path class="cls-111" d="M682.62,649.68c0,5.56-12,10.06-26.88,10.06s-26.87-4.5-26.87-10.06,12-10.06,26.87-10.06S682.62,644.13,682.62,649.68Z" transform="translate(162.53 -186.65)"/><path class="cls-112" d="M680.14,649.8c0,4.91-10.63,8.89-23.74,8.89s-23.74-4-23.74-8.89,10.63-8.88,23.74-8.88S680.14,644.9,680.14,649.8Z" transform="translate(162.53 -186.65)"/><path class="cls-113" d="M677.66,649.93c0,4.26-9.23,7.71-20.61,7.71s-20.61-3.45-20.61-7.71,9.23-7.72,20.61-7.72S677.66,645.67,677.66,649.93Z" transform="translate(162.53 -186.65)"/><path class="cls-114" d="M675.18,650.05c0,3.61-7.83,6.54-17.48,6.54s-17.48-2.93-17.48-6.54,7.83-6.54,17.48-6.54S675.18,646.44,675.18,650.05Z" transform="translate(162.53 -186.65)"/><path class="cls-115" d="M672.7,650.17c0,3-6.42,5.37-14.35,5.37S644,653.14,644,650.17s6.42-5.37,14.34-5.37S672.7,647.21,672.7,650.17Z" transform="translate(162.53 -186.65)"/><path class="cls-116" d="M670.22,650.29c0,2.32-5,4.2-11.22,4.2s-11.21-1.88-11.21-4.2,5-4.19,11.21-4.19S670.22,648,670.22,650.29Z" transform="translate(162.53 -186.65)"/></g><path class="cls-117" d="M723.17,387c-12.2-55-49.56-83.49-83.46-63.72s-51.48,80.38-39.29,135.35a146.82,146.82,0,0,0,3.92,14.24l49.6,175.9h6.29l56.93-170.08C727.32,452.16,730.19,418.65,723.17,387Z" transform="translate(162.53 -186.65)"/><path class="cls-118" d="M729.46,387c-12.2-55-49.56-83.49-83.46-63.72s-51.49,80.38-39.29,135.35a146.83,146.83,0,0,0,3.91,14.24l49.61,175.9,63.22-170.08C733.61,452.16,736.48,418.65,729.46,387Z" transform="translate(162.53 -186.65)"/><ellipse class="cls-119" cx="829.67" cy="240.12" rx="49.77" ry="80.71"/><path class="cls-120" d="M708,402.94c8.12,36.58-3.59,76.89-26.14,90.05s-47.41-5.82-55.53-42.39,3.6-76.89,26.15-90.05S699.86,366.37,708,402.94Z" transform="translate(162.53 -186.65)"/></g><g class="cls-1"><g class="cls-58"><ellipse class="cls-121" cx="658.56" cy="999.46" rx="92.64" ry="32.69"/><ellipse class="cls-122" cx="659.9" cy="999.07" rx="89.51" ry="31.59"/><ellipse class="cls-123" cx="661.25" cy="998.67" rx="86.38" ry="30.48"/><ellipse class="cls-124" cx="662.6" cy="998.28" rx="83.24" ry="29.38"/><ellipse class="cls-125" cx="663.94" cy="997.89" rx="80.11" ry="28.27"/><ellipse class="cls-126" cx="665.29" cy="997.49" rx="76.98" ry="27.17"/><ellipse class="cls-127" cx="666.63" cy="997.1" rx="73.85" ry="26.06"/><ellipse class="cls-128" cx="667.98" cy="996.71" rx="70.72" ry="24.96"/><ellipse class="cls-129" cx="669.33" cy="996.31" rx="67.58" ry="23.85"/><ellipse class="cls-130" cx="670.67" cy="995.92" rx="64.45" ry="22.75"/><ellipse class="cls-131" cx="672.02" cy="995.53" rx="61.32" ry="21.64"/><ellipse class="cls-132" cx="673.36" cy="995.13" rx="58.19" ry="20.54"/><ellipse class="cls-133" cx="674.71" cy="994.74" rx="55.06" ry="19.43"/><ellipse class="cls-134" cx="676.06" cy="994.35" rx="51.93" ry="18.33"/><ellipse class="cls-135" cx="677.4" cy="993.96" rx="48.79" ry="17.22"/><ellipse class="cls-136" cx="678.75" cy="993.56" rx="45.66" ry="16.11"/><ellipse class="cls-137" cx="680.09" cy="993.17" rx="42.53" ry="15.01"/><ellipse class="cls-138" cx="681.44" cy="992.78" rx="39.4" ry="13.9"/><ellipse class="cls-139" cx="682.79" cy="992.38" rx="36.27" ry="12.8"/><ellipse class="cls-140" cx="684.13" cy="991.99" rx="33.14" ry="11.69"/><ellipse class="cls-141" cx="685.48" cy="991.6" rx="30" ry="10.59"/><ellipse class="cls-142" cx="686.82" cy="991.2" rx="26.87" ry="9.48"/><ellipse class="cls-143" cx="688.17" cy="990.81" rx="23.74" ry="8.38"/><ellipse class="cls-144" cx="689.51" cy="990.42" rx="20.61" ry="7.27"/><ellipse class="cls-145" cx="690.86" cy="990.03" rx="17.48" ry="6.17"/><ellipse class="cls-146" cx="692.21" cy="989.63" rx="14.35" ry="5.06"/><ellipse class="cls-147" cx="693.55" cy="989.24" rx="11.21" ry="3.96"/></g><path class="cls-148" d="M604.38,895.69c-14-59.44-56.84-90.29-95.71-68.9s-59,86.91-45.06,146.35a153.55,153.55,0,0,0,4.49,15.41L525,1178.77h7.21l65.29-183.93C609.14,966.16,612.43,929.93,604.38,895.69Z" transform="translate(162.53 -186.65)"/><path class="cls-149" d="M611.59,895.69c-14-59.44-56.84-90.29-95.71-68.9s-59,86.91-45.06,146.35a153.55,153.55,0,0,0,4.49,15.41l56.89,190.22,72.5-183.93C616.35,966.16,619.64,929.93,611.59,895.69Z" transform="translate(162.53 -186.65)"/><ellipse class="cls-150" cx="702.03" cy="752.06" rx="57.07" ry="87.28"/><ellipse class="cls-151" cx="702.65" cy="752.06" rx="49.77" ry="76.11"/></g><g class="cls-1"><g class="cls-58"><ellipse class="cls-90" cx="292.44" cy="1993.41" rx="16.24" ry="10.56"/><ellipse class="cls-91" cx="292.55" cy="1993.45" rx="15.69" ry="10.2"/><ellipse class="cls-92" cx="292.67" cy="1993.48" rx="15.14" ry="9.85"/><path class="cls-93" d="M144.84,2180.17c0,5.24-6.53,9.49-14.59,9.49s-14.59-4.25-14.59-9.49,6.54-9.49,14.59-9.49S144.84,2174.93,144.84,2180.17Z" transform="translate(162.53 -186.65)"/><path class="cls-94" d="M144.41,2180.21c0,5-6.29,9.13-14,9.13s-14-4.09-14-9.13,6.28-9.14,14-9.14S144.41,2175.16,144.41,2180.21Z" transform="translate(162.53 -186.65)"/><path class="cls-95" d="M144,2180.24c0,4.85-6,8.78-13.5,8.78s-13.49-3.93-13.49-8.78,6-8.77,13.49-8.77S144,2175.4,144,2180.24Z" transform="translate(162.53 -186.65)"/><path class="cls-96" d="M143.54,2180.28c0,4.65-5.79,8.42-12.94,8.42s-12.95-3.77-12.95-8.42,5.8-8.42,12.95-8.42S143.54,2175.63,143.54,2180.28Z" transform="translate(162.53 -186.65)"/><path class="cls-97" d="M143.11,2180.32c0,4.45-5.55,8.06-12.4,8.06s-12.39-3.61-12.39-8.06,5.54-8.06,12.39-8.06S143.11,2175.87,143.11,2180.32Z" transform="translate(162.53 -186.65)"/><path class="cls-98" d="M142.67,2180.36c0,4.25-5.3,7.7-11.85,7.7s-11.84-3.45-11.84-7.7,5.3-7.71,11.84-7.71S142.67,2176.1,142.67,2180.36Z" transform="translate(162.53 -186.65)"/><path class="cls-99" d="M142.24,2180.39c0,4.06-5.06,7.35-11.3,7.35s-11.3-3.29-11.3-7.35,5.06-7.34,11.3-7.34S142.24,2176.34,142.24,2180.39Z" transform="translate(162.53 -186.65)"/><path class="cls-100" d="M141.8,2180.43c0,3.86-4.81,7-10.75,7s-10.75-3.13-10.75-7,4.82-7,10.75-7S141.8,2176.57,141.8,2180.43Z" transform="translate(162.53 -186.65)"/><path class="cls-101" d="M141.37,2180.47c0,3.66-4.57,6.63-10.2,6.63s-10.2-3-10.2-6.63,4.56-6.64,10.2-6.64S141.37,2176.8,141.37,2180.47Z" transform="translate(162.53 -186.65)"/><path class="cls-102" d="M140.93,2180.51c0,3.46-4.32,6.27-9.65,6.27s-9.65-2.81-9.65-6.27,4.32-6.28,9.65-6.28S140.93,2177,140.93,2180.51Z" transform="translate(162.53 -186.65)"/><path class="cls-103" d="M140.5,2180.54c0,3.27-4.08,5.92-9.1,5.92s-9.11-2.65-9.11-5.92,4.08-5.92,9.11-5.92S140.5,2177.27,140.5,2180.54Z" transform="translate(162.53 -186.65)"/><path class="cls-104" d="M140.06,2180.58c0,3.07-3.83,5.56-8.55,5.56s-8.55-2.49-8.55-5.56,3.83-5.56,8.55-5.56S140.06,2177.51,140.06,2180.58Z" transform="translate(162.53 -186.65)"/><path class="cls-105" d="M139.63,2180.62c0,2.87-3.58,5.2-8,5.2s-8-2.33-8-5.2,3.58-5.21,8-5.21S139.63,2177.74,139.63,2180.62Z" transform="translate(162.53 -186.65)"/><path class="cls-106" d="M139.19,2180.66c0,2.67-3.33,4.84-7.45,4.84s-7.46-2.17-7.46-4.84,3.34-4.85,7.46-4.85S139.19,2178,139.19,2180.66Z" transform="translate(162.53 -186.65)"/><path class="cls-107" d="M138.76,2180.69c0,2.48-3.09,4.49-6.91,4.49s-6.9-2-6.9-4.49,3.09-4.49,6.9-4.49S138.76,2178.21,138.76,2180.69Z" transform="translate(162.53 -186.65)"/><path class="cls-108" d="M138.32,2180.73c0,2.28-2.84,4.14-6.35,4.14s-6.36-1.86-6.36-4.14,2.85-4.13,6.36-4.13S138.32,2178.45,138.32,2180.73Z" transform="translate(162.53 -186.65)"/><path class="cls-109" d="M137.89,2180.77c0,2.08-2.6,3.78-5.81,3.78s-5.81-1.7-5.81-3.78,2.6-3.78,5.81-3.78S137.89,2178.68,137.89,2180.77Z" transform="translate(162.53 -186.65)"/><path class="cls-110" d="M137.46,2180.81c0,1.88-2.36,3.42-5.26,3.42s-5.26-1.54-5.26-3.42,2.35-3.43,5.26-3.43S137.46,2178.92,137.46,2180.81Z" transform="translate(162.53 -186.65)"/><path class="cls-111" d="M137,2180.84c0,1.69-2.11,3.07-4.71,3.07s-4.71-1.38-4.71-3.07,2.11-3.06,4.71-3.06S137,2179.15,137,2180.84Z" transform="translate(162.53 -186.65)"/><path class="cls-112" d="M136.59,2180.88c0,1.49-1.87,2.71-4.17,2.71s-4.16-1.22-4.16-2.71,1.87-2.71,4.16-2.71S136.59,2179.39,136.59,2180.88Z" transform="translate(162.53 -186.65)"/><path class="cls-113" d="M136.15,2180.92c0,1.3-1.62,2.35-3.61,2.35s-3.61-1.05-3.61-2.35,1.61-2.35,3.61-2.35S136.15,2179.62,136.15,2180.92Z" transform="translate(162.53 -186.65)"/><path class="cls-114" d="M135.72,2181c0,1.11-1.37,2-3.07,2s-3.06-.89-3.06-2,1.37-2,3.06-2S135.72,2179.85,135.72,2181Z" transform="translate(162.53 -186.65)"/><path class="cls-115" d="M135.28,2181c0,.91-1.12,1.64-2.51,1.64s-2.52-.73-2.52-1.64,1.13-1.63,2.52-1.63S135.28,2180.09,135.28,2181Z" transform="translate(162.53 -186.65)"/><path class="cls-116" d="M134.85,2181c0,.71-.88,1.28-2,1.28s-2-.57-2-1.28.88-1.28,2-1.28S134.85,2180.32,134.85,2181Z" transform="translate(162.53 -186.65)"/></g><path class="cls-117" d="M144.13,2100.82c-2.14-16.74-8.69-25.43-14.63-19.41s-9,24.48-6.89,41.23c.2,1.51.43,3,.69,4.34l8.69,53.58h1.11l10-51.81A85.35,85.35,0,0,0,144.13,2100.82Z" transform="translate(162.53 -186.65)"/><path class="cls-118" d="M145.23,2100.82c-2.14-16.74-8.69-25.43-14.63-19.41s-9,24.48-6.88,41.23c.19,1.51.42,3,.68,4.34l8.7,53.58,11.08-51.81A85.35,85.35,0,0,0,145.23,2100.82Z" transform="translate(162.53 -186.65)"/><ellipse class="cls-152" cx="296.84" cy="1926.29" rx="8.72" ry="24.59"/><path class="cls-120" d="M141.47,2105.68c1.42,11.14-.63,23.42-4.59,27.43s-8.31-1.77-9.73-12.91.63-23.43,4.58-27.43S140,2094.54,141.47,2105.68Z" transform="translate(162.53 -186.65)"/></g><g class="cls-1"><path class="cls-35" d="M75.69,2031.53c-33.07,10.71-58.93,23.2-77.51,41.35,13.3,22.27,27.77,45.64,36.05,60.31a122.78,122.78,0,0,1,12.35-7.39c19-10.12,52.61-22,81-32.58v-14l-14.11-58.36C100.85,2024,88.14,2027.5,75.69,2031.53Z" transform="translate(162.53 -186.65)"/><path class="cls-36" d="M-37.39,2176c-.46,75.26,37,115.78,78.56,137.68l32.3-105.61c-35-11.34-59.88-23.2-59.16-41.13.59-14.66,9.44-26.44,19.92-33.73,0-4.17-.1-14-.1-14s-24.37-26.89-35.95-46.29c-21.51,21-35.57,87.92-35.57,87.92S-37.37,2172.08-37.39,2176Z" transform="translate(162.53 -186.65)"/><path class="cls-153" d="M149.48,2339.87c.76,0,22.55-62.4,28.35-117.8-3-.9-30.79,8.28-89.57-9.42-5.09-1.54-10-3.06-14.79-4.6l-32.22,89.48-.08,16.13C88.14,2338.39,140.42,2339.39,149.48,2339.87Z" transform="translate(162.53 -186.65)"/><path class="cls-38" d="M210.4,2056.87v-14l-21.23-40.5c-21.64,6.17-48.34,11.54-75.76,18.45l14.11,58.36v14c5.29-2,10.4-3.89,15.19-5.74C170.24,2076.84,192.65,2067.14,210.4,2056.87Z" transform="translate(162.53 -186.65)"/><polygon class="cls-154" points="333.73 1995.28 276.17 2205.97 276.17 2225.78 423.4 2076.15 423.4 2056.35 333.73 1995.28"/><polygon class="cls-155" points="354.73 2062.47 297.17 2292.97 444.4 2143.35 354.73 2062.47"/><path class="cls-156" d="M58.07,2269s63.3,26.5,119.09,29.6C147.8,2372.41,88.37,2334.52,58.07,2269Z" transform="translate(162.53 -186.65)"/><path class="cls-157" d="M259.62,1980.65c15.57,10.91,29.18,33.77,24.38,77.26-4,35.84-24.4,48.54-34.25,56.57C269.92,2086.2,283.23,2008.94,259.62,1980.65Z" transform="translate(162.53 -186.65)"/><polygon class="cls-158" points="356.28 2069.78 340.18 2138.57 437.88 2143.45 356.28 2069.78"/><path class="cls-159" d="M71.58,1870c-3.65,4.18-8.13,14.26-8.26,27.11s4.46,24.38,11.68,29.47A171.32,171.32,0,0,1,71.58,1870Z" transform="translate(162.53 -186.65)"/></g></svg>