<svg id="_Layer_" data-name="&lt;Layer&gt;" xmlns="http://www.w3.org/2000/svg" viewBox="0 0 3400 2000"><defs><style>.cls-1{fill:#fff;}.cls-2{fill:#e3ffd2;}</style></defs><title>bg-judul</title><rect class="cls-1" width="3400" height="2000"/><path class="cls-2" d="M3123.19,0c-35.87,278.67-274,494-562.43,494S2034.2,278.67,1998.33,0Z"/><path class="cls-2" d="M3400,1027.41v472.91a245.19,245.19,0,0,1-64.87,8.68c-135.38,0-245.13-109.75-245.13-245.13s109.75-245.13,245.13-245.13A245.18,245.18,0,0,1,3400,1027.41Z"/><path class="cls-2" d="M2137,1815.74A312,312,0,0,1,2077.16,2000H1569.84a314,314,0,0,1-39.2-296.34c45.1-117.79,159.21-201.42,292.86-201.42s247.76,83.63,292.86,201.42A312.44,312.44,0,0,1,2137,1815.74Z"/><path class="cls-2" d="M968,55A164,164,0,1,1,649.45,0h309.1A163.69,163.69,0,0,1,968,55Z"/><circle class="cls-2" cx="2930" cy="1487" r="24"/><circle class="cls-2" cx="3140" cy="650" r="24"/><circle class="cls-2" cx="1242" cy="188" r="24"/></svg>